{
.appVersion = "3091";
classes = (
{
automatic = 1;
code = "A Aacute Abreve Acircumflex Adieresis Agrave Amacron Aogonek Aring Atilde AE B C Cacute Ccaron Ccedilla D Eth Dcaron Dcroat E Eacute Ecaron Ecircumflex Edieresis Edotaccent Egrave Emacron Eogonek F G Gbreve H I IJ Iacute Icircumflex Idieresis Idotaccent Igrave Imacron Iogonek J K L Lacute Lcaron Ldot Lslash M N Nacute Ncaron Ntilde O Oacute Ocircumflex Odieresis Ograve Ohungarumlaut Omacron Oslash Otilde OE P Thorn Q R Racute Rcaron S Sacute Scaron Germandbls T Tcaron U Uacute Ucircumflex Udieresis Ugrave Uhungarumlaut Umacron Uogonek Uring V W X Y Yacute Ydieresis Z Zacute Zcaron Zdotaccent uni0122 uni0136 uni013B uni0145 uni0156 uni015E uni0162 uni0218 uni021A E.swsh.001 Eacute.swsh.001 Ecaron.swsh.001 Ecircumflex.swsh.001 Edieresis.swsh.001 Edotaccent.swsh.001 Egrave.swsh.001 Emacron.swsh.001 M.swsh.001 R.swsh.001 Racute.swsh.001 Rcaron.swsh.001 uni0156.swsh.001 Adieresis.titl.001 Odieresis.titl.001 Iacute_J.loclNLD R.ss03 Racute.ss03 Rcaron.ss03 uni0156.ss03 G.ss04 Gbreve.ss04 uni0122.ss04 IJ.ss05 Iacute_J.loclNLD.ss05 A.swsh Aacute.swsh Abreve.swsh Acircumflex.swsh Adieresis.swsh Agrave.swsh Amacron.swsh Aogonek.swsh Atilde.swsh E.swsh Eacute.swsh Ecaron.swsh Ecircumflex.swsh Edieresis.swsh Edotaccent.swsh Egrave.swsh Emacron.swsh Eogonek.swsh F.swsh L.swsh Lacute.swsh Lcaron.swsh uni013B.swsh Lslash.swsh M.swsh N.swsh Nacute.swsh Ncaron.swsh uni0145.swsh Ntilde.swsh R.swsh Racute.swsh Rcaron.swsh uni0156.swsh S.swsh Sacute.swsh Scaron.swsh uni015E.swsh uni0218.swsh T.swsh Tcaron.swsh uni0162.swsh uni021A.swsh W.swsh Adieresis.titl Odieresis.titl Udieresis.titl";
name = Uppercase;
},
{

glyphs = (
{
color = 4;
glyphname = A;
lastChange = "2016-04-09 00:47:57 +0000";
layers = (
{
anchors = (
{
name = ogonek;
position = "{624, 0}";
},
{
name = top;
position = "{320, 660}";
}
);
layerId = "4A17B37A-CBFD-40E5-9E02-2080A0E1F76C";
name = Regular;
paths = (
{
closed = 1;
nodes = (
"100 0 LINE",
"289 495 LINE",
"318 584 LINE",
"320 584 LINE",
"351 492 LINE",
"539 0 LINE",
"624 0 LINE",
"368 660 LINE",
"273 660 LINE",
"16 0 LINE"
);
},
{
closed = 1;
nodes = (
"519 155 LINE",
"519 230 LINE",
"120 230 LINE",
"120 155 LINE"
);
}
);
width = 640;
},
{
anchors = (
{
name = ogonek;
position = "{697, 0}";
},
{
name = top;
position = "{344, 660}";
}
);
layerId = "99EB5860-B45A-4B60-BB0B-F826C8F71D42";
name = Bold;
paths = (
{
closed = 1;
nodes = (
"222 0 LINE",
"315 379 LINE",
"341 491 LINE",
"344 491 LINE",
"371 379 LINE",
"461 0 LINE",
"689 0 LINE",
"484 660 LINE",
"204 660 LINE",
"0 0 LINE"
);
},
{
closed = 1;
nodes = (
"534 78 LINE",
"534 255 LINE",
"157 255 LINE",
"157 78 LINE"
);
}
);
width = 689;
},
{
anchors = (
{
name = ogonek;
position = "{574, 0}";
},
{
name = top;
position = "{293, 660}";
}
);
layerId = "1C7CD022-87C7-4E11-B656-E47B18819458";
name = Light;
paths = (
{
closed = 1;
nodes = (
"29 0 LINE",
"276 597 LINE",
"293 642 LINE",
"293 642 LINE",
"310 596 LINE",
"557 0 LINE",
"574 0 LINE",
"302 660 LINE",
"284 660 LINE",
"12 0 LINE"
);
},
{
closed = 1;
nodes = (
"465 229 LINE",
"465 243 LINE",
"120 243 LINE",
"120 229 LINE"
);
}
);
width = 586;
}
);
leftKerningGroup = A;
rightKerningGroup = A;
unicode = 0041;
},
{
color = 4;
glyphname = Aring;
lastChange = "2016-01-04 15:34:28 +0000";
layers = (
{
components = (
{
name = A;
}
);
layerId = "99EB5860-B45A-4B60-BB0B-F826C8F71D42";
name = Bold;
paths = (
{
closed = 1;
nodes = (
"239 867 OFFCURVE",
"179 812 OFFCURVE",
"179 730 CURVE SMOOTH",
"179 647 OFFCURVE",
"239 606 OFFCURVE",
"345 606 CURVE SMOOTH",
"441 606 OFFCURVE",
"511 647 OFFCURVE",
"511 730 CURVE SMOOTH",
"511 812 OFFCURVE",
"451 867 OFFCURVE",
"345 867 CURVE SMOOTH"
);
},
{
closed = 1;
nodes = (
"377 768 OFFCURVE",
"395 751 OFFCURVE",
"395 721 CURVE SMOOTH",
"395 691 OFFCURVE",
"377 674 OFFCURVE",
"345 674 CURVE SMOOTH",
"313 674 OFFCURVE",
"295 691 OFFCURVE",
"295 721 CURVE SMOOTH",
"295 751 OFFCURVE",
"313 768 OFFCURVE",
"345 768 CURVE SMOOTH"
);
}
);
width = 689;
},
{
components = (
{
name = A;
}
);
layerId = "4A17B37A-CBFD-40E5-9E02-2080A0E1F76C";
name = Regular;
paths = (
{
closed = 1;
nodes = (
"246 852 OFFCURVE",
"195 804 OFFCURVE",
"195 734 CURVE SMOOTH",
"195 663 OFFCURVE",
"246 615 OFFCURVE",
"321 615 CURVE SMOOTH",
"396 615 OFFCURVE",
"446 663 OFFCURVE",
"446 734 CURVE SMOOTH",
"446 804 OFFCURVE",
"396 852 OFFCURVE",
"321 852 CURVE SMOOTH"
);
},
{
closed = 1;
nodes = (
"361 803 OFFCURVE",
"391 774 OFFCURVE",
"391 734 CURVE SMOOTH",
"391 694 OFFCURVE",
"361 665 OFFCURVE",
"320 665 CURVE SMOOTH",
"279 665 OFFCURVE",
"249 694 OFFCURVE",
"249 734 CURVE SMOOTH",
"249 774 OFFCURVE",
"279 803 OFFCURVE",
"320 803 CURVE SMOOTH"
);
}
);
width = 640;
},
{
components = (
{
name = A;
}
);
layerId = "1C7CD022-87C7-4E11-B656-E47B18819458";
name = Light;
paths = (
{
closed = 1;
nodes = (
"250 786 OFFCURVE",
"221 758 OFFCURVE",
"221 716 CURVE SMOOTH",
"221 674 OFFCURVE",
"250 646 OFFCURVE",
"293 646 CURVE SMOOTH",
"336 646 OFFCURVE",
"365 674 OFFCURVE",
"365 716 CURVE SMOOTH",
"365 758 OFFCURVE",
"336 786 OFFCURVE",
"293 786 CURVE SMOOTH"
);
},
{
closed = 1;
nodes = (
"327 772 OFFCURVE",
"349 750 OFFCURVE",
"349 716 CURVE SMOOTH",
"349 682 OFFCURVE",
"327 660 OFFCURVE",
"293 660 CURVE SMOOTH",
"259 660 OFFCURVE",
"237 682 OFFCURVE",
"237 716 CURVE SMOOTH",
"237 750 OFFCURVE",
"259 772 OFFCURVE",
"293 772 CURVE SMOOTH"
);
}
);
width = 586;
}
);
leftKerningGroup = A;
leftMetricsKey = A;
rightKerningGroup = A;
rightMetricsKey = A;
unicode = 00C5;
},
{
color = 4;
glyphname = AE;
lastChange = "2015-12-28 14:53:01 +0000";
layers = (
{
layerId = "4A17B37A-CBFD-40E5-9E02-2080A0E1F76C";
name = Regular;
paths = (
{
closed = 1;
nodes = (
"382 660 LINE",
"-4 0 LINE",
"82 0 LINE",
"464 660 LINE"
);
},
{
closed = 1;
nodes = (
"206 288 LINE",
"166 213 LINE",
"481 213 LINE",
"481 288 LINE"
);
},
{
closed = 1;
nodes = (
"483 75 LINE",
"483 0 LINE",
"892 0 LINE",
"892 75 LINE"
);
},
{
closed = 1;
nodes = (
"441 660 LINE",
"441 0 LINE",
"521 0 LINE",
"521 660 LINE"
);
},
{
closed = 1;
nodes = (
"483 372 LINE",
"483 297 LINE",
"792 297 LINE",
"792 372 LINE"
);
},
{
closed = 1;
nodes = (
"419 660 LINE",
"379 585 LINE",
"478 585 LINE",
"494 585 LINE",
"877 585 LINE",
"877 660 LINE"
);
}
);
width = 934;
},
{
layerId = "99EB5860-B45A-4B60-BB0B-F826C8F71D42";
leftMetricsKey = "=A";
name = Bold;
paths = (
{
closed = 1;
nodes = (
"204 660 LINE",
"-10 0 LINE",
"220 0 LINE",
"383 660 LINE"
);
},
{
closed = 1;
nodes = (
"153 321 LINE",
"103 185 LINE",
"501 185 LINE",
"501 321 LINE"
);
},
{
closed = 1;
nodes = (
"489 161 LINE",
"489 0 LINE",
"888 0 LINE",
"888 161 LINE"
);
},
{
closed = 1;
nodes = (
"401 660 LINE",
"401 0 LINE",
"615 0 LINE",
"615 660 LINE"
);
},
{
closed = 1;
nodes = (
"489 403 LINE",
"489 254 LINE",
"815 254 LINE",
"815 403 LINE"
);
},
{
closed = 1;
nodes = (
"268 660 LINE",
"228 507 LINE",
"477 507 LINE",
"526 499 LINE",
"876 499 LINE",
"876 660 LINE"
);
}
);
width = 904;
},
{
layerId = "1C7CD022-87C7-4E11-B656-E47B18819458";
name = Light;
paths = (
{
closed = 1;
nodes = (
"412 660 LINE",
"-8 0 LINE",
"15 0 LINE",
"429 660 LINE"
);
},
{
closed = 1;
nodes = (
"173 268 LINE",
"163 254 LINE",
"443 254 LINE",
"443 268 LINE"
);
},
{
closed = 1;
nodes = (
"447 14 LINE",
"447 0 LINE",
"855 0 LINE",
"855 14 LINE"
);
},
{
closed = 1;
nodes = (
"438 660 LINE",
"438 0 LINE",
"454 0 LINE",
"454 660 LINE"
);
},
{
closed = 1;
nodes = (
"447 342 LINE",
"447 328 LINE",
"762 328 LINE",
"762 342 LINE"
);
},
{
closed = 1;
nodes = (
"424 660 LINE",
"413 646 LINE",
"444 646 LINE",
"447 646 LINE",
"839 646 LINE",
"839 660 LINE"
);
}
);
width = 885;
}
);
rightKerningGroup = E;
rightMetricsKey = E;
unicode = 00C6;
},
{
color = 4;
glyphname = B;
lastChange = "2016-03-04 14:26:01 +0000";
layers = (
{
layerId = "4A17B37A-CBFD-40E5-9E02-2080A0E1F76C";
name = Regular;
paths = (
{
closed = 1;
nodes = (
"332 0 LINE SMOOTH",
"488 0 OFFCURVE",
"575 75 OFFCURVE",
"575 180 CURVE SMOOTH",
"575 257 OFFCURVE",
"529 318 OFFCURVE",
"447 335 CURVE",
"447 336 LINE",
"514 350 OFFCURVE",
"558 402 OFFCURVE",
"558 484 CURVE SMOOTH",
"558 587 OFFCURVE",
"489 660 OFFCURVE",
"333 660 CURVE SMOOTH",
"98 660 LINE",
"98 0 LINE"
);
},
{
closed = 1;
nodes = (
"178 295 LINE",
"351 295 LINE SMOOTH",
"445 295 OFFCURVE",
"491 255 OFFCURVE",
"491 185 CURVE SMOOTH",
"491 115 OFFCURVE",
"445 75 OFFCURVE",
"351 75 CURVE SMOOTH",
"178 75 LINE"
);
},
{
closed = 1;
nodes = (
"178 585 LINE",
"334 585 LINE SMOOTH",
"428 585 OFFCURVE",
"474 550 OFFCURVE",
"474 478 CURVE SMOOTH",
"474 405 OFFCURVE",
"428 370 OFFCURVE",
"334 370 CURVE SMOOTH",
"178 370 LINE"
);
}
);
width = 633;
},
{
layerId = "99EB5860-B45A-4B60-BB0B-F826C8F71D42";
name = Bold;
paths = (
{
closed = 1;
nodes = (
"454 0 LINE SMOOTH",
"616 0 OFFCURVE",
"692 60 OFFCURVE",
"692 171 CURVE SMOOTH",
"692 259 OFFCURVE",
"644 318 OFFCURVE",
"526 331 CURVE",
"526 332 LINE",
"625 346 OFFCURVE",
"675 400 OFFCURVE",
"675 487 CURVE SMOOTH",
"675 598 OFFCURVE",
"595 660 OFFCURVE",
"428 660 CURVE SMOOTH",
"50 660 LINE",
"50 0 LINE"
);
},
{
closed = 1;
nodes = (
"273 248 LINE",
"392 248 LINE SMOOTH",
"434 248 OFFCURVE",
"454 232 OFFCURVE",
"454 200 CURVE SMOOTH",
"454 168 OFFCURVE",
"434 152 OFFCURVE",
"392 152 CURVE SMOOTH",
"273 152 LINE"
);
},
{
closed = 1;
nodes = (
"273 500 LINE",
"375 500 LINE SMOOTH",
"417 500 OFFCURVE",
"437 484 OFFCURVE",
"437 452 CURVE SMOOTH",
"437 420 OFFCURVE",
"417 404 OFFCURVE",
"375 404 CURVE SMOOTH",
"273 404 LINE"
);
}
);
width = 704;
},
{
hints = (
{
horizontal = 1;
origin = "{0, 15}";
target = "{1, 8}";
type = Stem;
},
{
horizontal = 1;
origin = "{0, 14}";
target = "{2, 0}";
type = Stem;
},
{
origin = "{0, 15}";
target = "{1, 8}";
type = Stem;
},
{
horizontal = 1;
origin = "{1, 1}";
target = "{2, 7}";
type = Stem;
}
);
layerId = "1C7CD022-87C7-4E11-B656-E47B18819458";
name = Light;
paths = (
{
closed = 1;
nodes = (
"341 0 LINE SMOOTH",
"486 0 OFFCURVE",
"562 58 OFFCURVE",
"562 169 CURVE SMOOTH",
"562 263 OFFCURVE",
"506 320 OFFCURVE",
"411 333 CURVE",
"411 334 LINE",
"500 353 OFFCURVE",
"543 407 OFFCURVE",
"543 493 CURVE SMOOTH",
"543 603 OFFCURVE",
"474 660 OFFCURVE",
"341 660 CURVE SMOOTH",
"99 660 LINE",
"99 0 LINE"
);
},
{
closed = 1;
nodes = (
"115 326 LINE",
"341 326 LINE SMOOTH",
"476 326 OFFCURVE",
"546 274 OFFCURVE",
"546 170 CURVE SMOOTH",
"546 67 OFFCURVE",
"476 14 OFFCURVE",
"341 14 CURVE SMOOTH",
"115 14 LINE"
);
},
{
closed = 1;
nodes = (
"115 646 LINE",
"341 646 LINE SMOOTH",
"463 646 OFFCURVE",
"527 593 OFFCURVE",
"527 492 CURVE SMOOTH",
"527 391 OFFCURVE",
"463 340 OFFCURVE",
"341 340 CURVE SMOOTH",
"115 340 LINE"
);
}
);
width = 619;
}
);
leftKerningGroup = I;
unicode = 0042;
},
{
color = 4;
glyphname = C;
lastChange = "2016-04-09 00:45:54 +0000";
layers = (
{
anchors = (
{
name = bottomC;
position = "{360, 0}";
},
{
name = top;
position = "{359, 660}";
}
);
layerId = "4A17B37A-CBFD-40E5-9E02-2080A0E1F76C";
name = Regular;
paths = (
{
closed = 1;
nodes = (
"40 143 OFFCURVE",
"192 -9 OFFCURVE",
"377 -9 CURVE",
"482 -9 OFFCURVE",
"577 40 OFFCURVE",
"639 118 CURVE",
"578 168 LINE",
"530 108 OFFCURVE",
"458 70 OFFCURVE",
"377 70 CURVE",
"235 70 OFFCURVE",
"119 187 OFFCURVE",
"119 330 CURVE",
"119 474 OFFCURVE",
"235 590 OFFCURVE",
"377 590 CURVE",
"458 590 OFFCURVE",
"530 553 OFFCURVE",
"578 494 CURVE",
"638 544 LINE",
"576 620 OFFCURVE",
"482 669 OFFCURVE",
"377 669 CURVE",
"192 669 OFFCURVE",
"40 517 OFFCURVE",
"40 331 CURVE"
);
}
);
width = 679;
},
{
anchors = (
{
name = bottomC;
position = "{367, 0}";
},
{
name = top;
position = "{371, 660}";
}
);
layerId = "99EB5860-B45A-4B60-BB0B-F826C8F71D42";
leftMetricsKey = "=O";
name = Bold;
paths = (
{
closed = 1;
nodes = (
"29 138 OFFCURVE",
"182 -15 OFFCURVE",
"371 -15 CURVE",
"501 -15 OFFCURVE",
"614 57 OFFCURVE",
"672 162 CURVE",
"487 264 LINE",
"465 224 OFFCURVE",
"422 197 OFFCURVE",
"371 197 CURVE",
"299 197 OFFCURVE",
"241 257 OFFCURVE",
"241 328 CURVE",
"241 401 OFFCURVE",
"299 459 OFFCURVE",
"371 459 CURVE",
"421 459 OFFCURVE",
"464 433 OFFCURVE",
"487 393 CURVE",
"672 495 LINE",
"613 600 OFFCURVE",
"500 671 OFFCURVE",
"371 671 CURVE",
"182 671 OFFCURVE",
"29 518 OFFCURVE",
"29 328 CURVE"
);
}
);
width = 691;
},
{
anchors = (
{
name = bottomC;
position = "{336, 0}";
},
{
name = top;
position = "{339, 660}";
}
);
layerId = "1C7CD022-87C7-4E11-B656-E47B18819458";
name = Light;
paths = (
{
closed = 1;
nodes = (
"49.5 138.379 OFFCURVE",
"203.719 -16.5 OFFCURVE",
"396 -16.5 CURVE",
"504.122 -16.5 OFFCURVE",
"600.546 32.6 OFFCURVE",
"664.05 109.933 CURVE",
"651 121 LINE",
"590 47 OFFCURVE",
"499 0 OFFCURVE",
"396 0 CURVE",
"213 0 OFFCURVE",
"67 147 OFFCURVE",
"67 330 CURVE",
"67 513 OFFCURVE",
"213 660 OFFCURVE",
"396 660 CURVE",
"499 660 OFFCURVE",
"590 613 OFFCURVE",
"651 539 CURVE",
"664.042 550.061 LINE",
"600.648 627.304 OFFCURVE",
"504.369 676.5 OFFCURVE",
"396 676.5 CURVE",
"204.379 676.5 OFFCURVE",
"49.5 522.281 OFFCURVE",
"49.5 330 CURVE"
);
}
);
width = 742;
}
);
leftKerningGroup = O;
rightKerningGroup = C;
unicode = 0043;
},
{
color = 4;
glyphname = D;
lastChange = "2016-03-04 20:36:54 +0000";
layers = (
{
anchors = (
{
name = center;
position = "{356, 330}";
},
{
name = top;
position = "{315, 660}";
}
);
layerId = "4A17B37A-CBFD-40E5-9E02-2080A0E1F76C";
name = Regular;
paths = (
{
closed = 1;
nodes = (
"138 660 LINE",
"138 585 LINE",
"350 585 LINE SMOOTH",
"501 585 OFFCURVE",
"590 490 OFFCURVE",
"590 330 CURVE SMOOTH",
"590 170 OFFCURVE",
"501 75 OFFCURVE",
"350 75 CURVE SMOOTH",
"138 75 LINE",
"138 0 LINE",
"342 0 LINE SMOOTH",
"549 0 OFFCURVE",
"674 118 OFFCURVE",
"674 330 CURVE SMOOTH",
"674 542 OFFCURVE",
"549 660 OFFCURVE",
"342 660 CURVE SMOOTH"
);
},
{
closed = 1;
nodes = (
"98 660 LINE",
"98 0 LINE",
"178 0 LINE",
"178 660 LINE"
);
}
);
width = 724;
},
{
anchors = (
{
name = center;
position = "{15, 14}";
},
{
name = top;
position = "{331, 660}";
}
);
layerId = "99EB5860-B45A-4B60-BB0B-F826C8F71D42";
name = Bold;
paths = (
{
closed = 1;
nodes = (
"218 660 LINE",
"218 494 LINE",
"341 494 LINE SMOOTH",
"427 494 OFFCURVE",
"460 423 OFFCURVE",
"460 330 CURVE SMOOTH",
"460 237 OFFCURVE",
"427 166 OFFCURVE",
"341 166 CURVE SMOOTH",
"218 166 LINE",
"218 0 LINE",
"374 0 LINE SMOOTH",
"581 0 OFFCURVE",
"687 120 OFFCURVE",
"687 330 CURVE SMOOTH",
"687 540 OFFCURVE",
"581 660 OFFCURVE",
"374 660 CURVE SMOOTH"
);
},
{
closed = 1;
nodes = (
"50 660 LINE",
"50 0 LINE",
"283 0 LINE",
"283 660 LINE"
);
}
);
width = 716;
},
{
anchors = (
{
name = center;
position = "{376, 330}";
},
{
name = top;
position = "{330, 660}";
}
);
layerId = "1C7CD022-87C7-4E11-B656-E47B18819458";
name = Light;
paths = (
{
closed = 1;
nodes = (
"99 660 LINE",
"99 646 LINE",
"323 646 LINE SMOOTH",
"526 646 OFFCURVE",
"632 511 OFFCURVE",
"632 340 CURVE SMOOTH",
"632 156 OFFCURVE",
"526 14 OFFCURVE",
"323 14 CURVE SMOOTH",
"98 14 LINE",
"98 0 LINE",
"323 0 LINE SMOOTH",
"537 0 OFFCURVE",
"648 147 OFFCURVE",
"648 340 CURVE SMOOTH",
"648 520 OFFCURVE",
"537 660 OFFCURVE",
"323 660 CURVE SMOOTH"
);
},
{
closed = 1;
nodes = (
"90 660 LINE",
"90 0 LINE",
"106 0 LINE",
"106 660 LINE"
);
}
);
width = 693;
}
);
leftKerningGroup = I;
rightKerningGroup = O;
unicode = 0044;
},
{
color = 4;
glyphname = Dcroat;
lastChange = "2015-12-28 14:53:01 +0000";
layers = (
{
components = (
{
name = D;
transform = "{1, 0, 0, 1, 16, 0}";
}
);
layerId = "4A17B37A-CBFD-40E5-9E02-2080A0E1F76C";
name = Regular;
paths = (
{
closed = 1;
nodes = (
"16 363 LINE",
"16 303 LINE",
"391 303 LINE",
"391 363 LINE"
);
}
);
width = 717;
},
{
associatedMasterId = "99EB5860-B45A-4B60-BB0B-F826C8F71D42";
background = {
components = (
{
name = D;
}
);
paths = (
{
closed = 1;
nodes = (
"10 383 LINE",
"10 323 LINE",
"385 323 LINE",
"385 383 LINE"
);
}
);
};
components = (
{
name = D;
transform = "{1, 0, 0, 1, 30, 0}";
}
);
layerId = "C1DD4913-182C-4664-AAE7-7B3AAF95996E";
name = "[201]";
paths = (
{
closed = 1;
nodes = (
"6 375 LINE",
"6 279 LINE",
"399 279 LINE",
"399 375 LINE"
);
}
);
width = 746;
},
{
components = (
{
name = D;
transform = "{1, 0, 0, 1, 28, 0}";
}
);
layerId = "99EB5860-B45A-4B60-BB0B-F826C8F71D42";
name = Bold;
paths = (
{
closed = 1;
nodes = (
"4 403 LINE",
"4 253 LINE",
"397 253 LINE",
"397 403 LINE"
);
}
);
width = 744;
},
{
components = (
{
alignment = -1;
name = D;
transform = "{1, 0, 0, 1, 8, 0}";
}
);
layerId = "1C7CD022-87C7-4E11-B656-E47B18819458";
name = Light;
paths = (
{
closed = 1;
nodes = (
"5 341 LINE",
"5 327 LINE",
"330 327 LINE",
"330 341 LINE"
);
}
);
width = 691;
}
);
leftKerningGroup = I;
rightKerningGroup = O;
unicode = 0110;
},
{
color = 4;
glyphname = E;
lastChange = "2016-03-15 16:49:33 +0000";
layers = (
{
anchors = (
{
name = bottom;
position = "{329, 0}";
},
{
name = ogonek;
position = "{576, 0}";
},
{
name = top;
position = "{329, 660}";
}
);
layerId = "4A17B37A-CBFD-40E5-9E02-2080A0E1F76C";
name = Regular;
paths = (
{
closed = 1;
nodes = (
"178 0 LINE",
"178 660 LINE",
"98 660 LINE",
"98 0 LINE"
);
},
{
closed = 1;
nodes = (
"576 0 LINE",
"576 75 LINE",
"140 75 LINE",
"140 0 LINE"
);
},
{
closed = 1;
nodes = (
"513 287 LINE",
"513 365 LINE",
"140 365 LINE",
"140 287 LINE"
);
},
{
closed = 1;
nodes = (
"561 585 LINE",
"561 660 LINE",
"140 660 LINE",
"140 585 LINE"
);
}
);
width = 618;
},
{
anchors = (
{
name = bottom;
position = "{329, 0}";
},
{
name = ogonek;
position = "{611, 0}";
},
{
name = top;
position = "{313, 660}";
}
);
layerId = "99EB5860-B45A-4B60-BB0B-F826C8F71D42";
leftMetricsKey = "=I";
name = Bold;
paths = (
{
closed = 1;
nodes = (
"283 0 LINE",
"283 660 LINE",
"50 660 LINE",
"50 0 LINE"
);
},
{
closed = 1;
nodes = (
"610 0 LINE",
"610 171 LINE",
"162 171 LINE",
"162 0 LINE"
);
},
{
closed = 1;
nodes = (
"557 249 LINE",
"557 407 LINE",
"162 407 LINE",
"162 249 LINE"
);
},
{
closed = 1;
nodes = (
"598 489 LINE",
"598 660 LINE",
"162 660 LINE",
"162 489 LINE"
);
}
);
width = 655;
},
{
anchors = (
{
name = bottom;
position = "{298, 0}";
},
{
name = ogonek;
position = "{534, 0}";
},
{
name = top;
position = "{298, 660}";
}
);
layerId = "1C7CD022-87C7-4E11-B656-E47B18819458";
name = Light;
paths = (
{
closed = 1;
nodes = (
"96 0 LINE",
"96 660 LINE",
"80 660 LINE",
"80 0 LINE"
);
},
{
closed = 1;
nodes = (
"534 0 LINE",
"534 14 LINE",
"86 14 LINE",
"86 0 LINE"
);
},
{
closed = 1;
nodes = (
"477 310 LINE",
"477 324 LINE",
"86 324 LINE",
"86 310 LINE"
);
},
{
closed = 1;
nodes = (
"517 646 LINE",
"517 660 LINE",
"86 660 LINE",
"86 646 LINE"
);
}
);
width = 584;
}
);
leftKerningGroup = I;
rightKerningGroup = E;
unicode = 0045;
},
{
color = 4;
glyphname = F;
lastChange = "2016-04-09 00:49:04 +0000";
layers = (
{
layerId = "4A17B37A-CBFD-40E5-9E02-2080A0E1F76C";
name = Regular;
paths = (
{
closed = 1;
nodes = (
"170 0 LINE",
"170 660 LINE",
"90 660 LINE",
"90 0 LINE"
);
},
{
closed = 1;
nodes = (
"505 287 LINE",
"505 365 LINE",
"132 365 LINE",
"132 287 LINE"
);
},
{
closed = 1;
nodes = (
"552 585 LINE",
"552 660 LINE",
"132 660 LINE",
"132 585 LINE"
);
}
);
width = 582;
},
{
layerId = "99EB5860-B45A-4B60-BB0B-F826C8F71D42";
leftMetricsKey = "=I";
name = Bold;
paths = (
{
closed = 1;
nodes = (
"283 0 LINE",
"283 660 LINE",
"50 660 LINE",
"50 0 LINE"
);
},
{
closed = 1;
nodes = (
"555 160 LINE",
"555 355 LINE",
"162 355 LINE",
"162 160 LINE"
);
},
{
closed = 1;
nodes = (
"597 463 LINE",
"597 660 LINE",
"162 660 LINE",
"162 463 LINE"
);
}
);
width = 614;
},
{
layerId = "1C7CD022-87C7-4E11-B656-E47B18819458";
name = Light;
paths = (
{
closed = 1;
nodes = (
"115 0 LINE",
"115 660 LINE",
"99 660 LINE",
"99 0 LINE"
);
},
{
closed = 1;
nodes = (
"494 310 LINE",
"494 324 LINE",
"105 324 LINE",
"105 310 LINE"
);
},
{
closed = 1;
nodes = (
"535 646 LINE",
"535 660 LINE",
"105 660 LINE",
"105 646 LINE"
);
}
);
width = 565;
}
);
leftKerningGroup = I;
unicode = 0046;
},
{
color = 4;
glyphname = G;
lastChange = "2016-04-09 01:00:59 +0000";
layers = (
{
anchors = (
{
name = bottom;
position = "{373, 0}";
},
{
name = top;
position = "{373, 660}";
}
);
layerId = "4A17B37A-CBFD-40E5-9E02-2080A0E1F76C";
name = Regular;
paths = (
{
closed = 1;
nodes = (
"35 140 OFFCURVE",
"185 -10 OFFCURVE",
"373 -10 CURVE",
"552 -10 OFFCURVE",
"702 126 OFFCURVE",
"715 305 CURVE",
"634 305 LINE",
"621 172 OFFCURVE",
"509 69 OFFCURVE",
"373 69 CURVE",
"229 69 OFFCURVE",
"117 185 OFFCURVE",
"117 330 CURVE",
"117 476 OFFCURVE",
"229 592 OFFCURVE",
"373 592 CURVE",
"457 592 OFFCURVE",
"534 550 OFFCURVE",
"581 486 CURVE",
"646 535 LINE",
"583 617 OFFCURVE",
"484 671 OFFCURVE",
"373 671 CURVE",
"185 671 OFFCURVE",
"35 520 OFFCURVE",
"35 331 CURVE"
);
},
{
closed = 1;
nodes = (
"415 222 LINE",
"665 222 LINE",
"715 305 LINE",
"715 305 LINE",
"415 305 LINE"
);
}
);
width = 745;
},
{
anchors = (
{
name = bottom;
position = "{381, 0}";
},
{
name = top;
position = "{370, 660}";
}
);
layerId = "99EB5860-B45A-4B60-BB0B-F826C8F71D42";
leftMetricsKey = "=O";
name = Bold;
paths = (
{
closed = 1;
nodes = (
"29 138 OFFCURVE",
"181 -15 OFFCURVE",
"371 -15 CURVE",
"561 -15 OFFCURVE",
"715 138 OFFCURVE",
"715 328 CURVE",
"503 328 LINE",
"503 257 OFFCURVE",
"445 197 OFFCURVE",
"371 197 CURVE",
"299 197 OFFCURVE",
"241 257 OFFCURVE",
"241 328 CURVE",
"241 401 OFFCURVE",
"299 459 OFFCURVE",
"371 459 CURVE",
"406 459 OFFCURVE",
"437 447 OFFCURVE",
"460 425 CURVE",
"635 547 LINE",
"572 623 OFFCURVE",
"477 671 OFFCURVE",
"371 671 CURVE",
"181 671 OFFCURVE",
"29 518 OFFCURVE",
"29 328 CURVE"
);
},
{
closed = 1;
nodes = (
"395 252 LINE",
"659 252 LINE",
"715 328 LINE",
"715 407 LINE",
"395 407 LINE"
);
}
);
width = 737;
},
{
anchors = (
{
name = bottom;
position = "{389, 4}";
},
{
name = top;
position = "{389, 656}";
}
);
layerId = "1C7CD022-87C7-4E11-B656-E47B18819458";
name = Light;
paths = (
{
closed = 1;
nodes = (
"49 142 OFFCURVE",
"201 -10 OFFCURVE",
"389 -10 CURVE",
"547 -10 OFFCURVE",
"679 97 OFFCURVE",
"718 243 CURVE",
"700 243 LINE",
"662 105 OFFCURVE",
"539 7 OFFCURVE",
"389 7 CURVE",
"209 7 OFFCURVE",
"66 150 OFFCURVE",
"66 330 CURVE",
"66 510 OFFCURVE",
"209 653 OFFCURVE",
"389 653 CURVE",
"507 653 OFFCURVE",
"608 593 OFFCURVE",
"665 499 CURVE",
"679 506 LINE",
"620 608 OFFCURVE",
"515 670 OFFCURVE",
"389 670 CURVE",
"201 670 OFFCURVE",
"49 518 OFFCURVE",
"49 330 CURVE"
);
},
{
closed = 1;
nodes = (
"465 227 LINE",
"711 227 LINE",
"718 243 LINE",
"718 243 LINE",
"465 243 LINE"
);
}
);
width = 763;
}
);
leftKerningGroup = O;
leftMetricsKey = O;
rightKerningGroup = G;
unicode = 0047;
},
{
color = 4;
glyphname = H;
lastChange = "2016-03-04 14:25:30 +0000";
layers = (
{
layerId = "4A17B37A-CBFD-40E5-9E02-2080A0E1F76C";
name = Regular;
paths = (
{
closed = 1;
nodes = (
"536 660 LINE",
"536 0 LINE",
"616 0 LINE",
"616 660 LINE"
);
},
{
closed = 1;
nodes = (
"98 660 LINE",
"98 0 LINE",
"178 0 LINE",
"178 660 LINE"
);
},
{
closed = 1;
nodes = (
"140 365 LINE",
"140 287 LINE",
"573 287 LINE",
"573 365 LINE"
);
}
);
width = 714;
},
{
layerId = "99EB5860-B45A-4B60-BB0B-F826C8F71D42";
name = Bold;
paths = (
{
closed = 1;
nodes = (
"454 660 LINE",
"454 0 LINE",
"687 0 LINE",
"687 660 LINE"
);
},
{
closed = 1;
nodes = (
"60 660 LINE",
"60 0 LINE",
"293 0 LINE",
"293 660 LINE"
);
},
{
closed = 1;
nodes = (
"162 422 LINE",
"162 211 LINE",
"593 211 LINE",
"593 422 LINE"
);
}
);
width = 747;
},
{
layerId = "1C7CD022-87C7-4E11-B656-E47B18819458";
name = Light;
paths = (
{
closed = 1;
nodes = (
"581 660 LINE",
"581 0 LINE",
"597 0 LINE",
"597 660 LINE"
);
},
{
closed = 1;
nodes = (
"99 660 LINE",
"99 0 LINE",
"115 0 LINE",
"115 660 LINE"
);
},
{
closed = 1;
nodes = (
"107 324 LINE",
"107 310 LINE",
"590 310 LINE",
"590 324 LINE"
);
}
);
width = 696;
}
);
leftKerningGroup = I;
rightKerningGroup = I;
unicode = 0048;
},
{
color = 4;
glyphname = I;
lastChange = "2016-03-04 20:32:36 +0000";
layers = (
{
anchors = (
{
name = ogonek;
position = "{178, 0}";
},
{
name = top;
position = "{138, 660}";
}
);
layerId = "4A17B37A-CBFD-40E5-9E02-2080A0E1F76C";
name = Regular;
paths = (
{
closed = 1;
nodes = (
"96 660 LINE",
"96 0 LINE",
"180 0 LINE",
"180 660 LINE"
);
}
);
width = 276;
},
{
anchors = (
{
name = ogonek;
position = "{283, 0}";
},
{
name = top;
position = "{166, 660}";
}
);
layerId = "99EB5860-B45A-4B60-BB0B-F826C8F71D42";
name = Bold;
paths = (
{
closed = 1;
nodes = (
"50 660 LINE",
"50 0 LINE",
"283 0 LINE",
"283 660 LINE"
);
}
);
width = 333;
},
{
anchors = (
{
name = ogonek;
position = "{126, 0}";
},
{
name = top;
position = "{118, 660}";
}
);
layerId = "1C7CD022-87C7-4E11-B656-E47B18819458";
name = Light;
paths = (
{
closed = 1;
nodes = (
"110 660 LINE",
"110 0 LINE",
"126 0 LINE",
"126 660 LINE"
);
}
);
width = 236;
}
);
leftKerningGroup = I;
rightKerningGroup = I;
unicode = 0049;
},
{
color = 4;
glyphname = Idieresis;
lastChange = "2015-12-28 14:53:01 +0000";
layers = (
{
components = (
{
name = I;
}
);
hints = (
{
horizontal = 1;
origin = "{1, 5}";
target = "{1, 11}";
type = Stem;
}
);
layerId = "4A17B37A-CBFD-40E5-9E02-2080A0E1F76C";
name = Regular;
paths = (
{
closed = 1;
nodes = (
"18 856 OFFCURVE",
"-5 833 OFFCURVE",
"-5 799 CURVE SMOOTH",
"-5 765 OFFCURVE",
"18 742 OFFCURVE",
"52 742 CURVE SMOOTH",
"86 742 OFFCURVE",
"109 765 OFFCURVE",
"109 799 CURVE SMOOTH",
"109 833 OFFCURVE",
"86 856 OFFCURVE",
"52 856 CURVE SMOOTH"
);
},
{
closed = 1;
nodes = (
"190 856 OFFCURVE",
"167 833 OFFCURVE",
"167 799 CURVE SMOOTH",
"167 765 OFFCURVE",
"190 742 OFFCURVE",
"224 742 CURVE SMOOTH",
"258 742 OFFCURVE",
"281 765 OFFCURVE",
"281 799 CURVE SMOOTH",
"281 833 OFFCURVE",
"258 856 OFFCURVE",
"224 856 CURVE SMOOTH"
);
}
);
width = 276;
},
{
components = (
{
name = I;
}
);
layerId = "99EB5860-B45A-4B60-BB0B-F826C8F71D42";
name = Bold;
paths = (
{
closed = 1;
nodes = (
"-10 880 OFFCURVE",
"-46 847 OFFCURVE",
"-46 789 CURVE SMOOTH",
"-46 731 OFFCURVE",
"-10 698 OFFCURVE",
"52 698 CURVE SMOOTH",
"116 698 OFFCURVE",
"154 731 OFFCURVE",
"154 789 CURVE SMOOTH",
"154 847 OFFCURVE",
"116 880 OFFCURVE",
"52 880 CURVE SMOOTH"
);
},
{
closed = 1;
nodes = (
"215 880 OFFCURVE",
"179 847 OFFCURVE",
"179 789 CURVE SMOOTH",
"179 731 OFFCURVE",
"215 698 OFFCURVE",
"277 698 CURVE SMOOTH",
"341 698 OFFCURVE",
"379 731 OFFCURVE",
"379 789 CURVE SMOOTH",
"379 847 OFFCURVE",
"341 880 OFFCURVE",
"277 880 CURVE SMOOTH"
);
}
);
width = 333;
},
{
components = (
{
alignment = -1;
name = I;
}
);
layerId = "1C7CD022-87C7-4E11-B656-E47B18819458";
name = Light;
paths = (
{
closed = 1;
nodes = (
"35 802 OFFCURVE",
"26 793 OFFCURVE",
"26 780 CURVE SMOOTH",
"26 767 OFFCURVE",
"35 758 OFFCURVE",
"48 758 CURVE SMOOTH",
"61 758 OFFCURVE",
"70 767 OFFCURVE",
"70 780 CURVE SMOOTH",
"70 793 OFFCURVE",
"61 802 OFFCURVE",
"48 802 CURVE SMOOTH"
);
},
{
closed = 1;
nodes = (
"153 802 OFFCURVE",
"144 793 OFFCURVE",
"144 780 CURVE SMOOTH",
"144 767 OFFCURVE",
"153 758 OFFCURVE",
"166 758 CURVE SMOOTH",
"179 758 OFFCURVE",
"188 767 OFFCURVE",
"188 780 CURVE SMOOTH",
"188 793 OFFCURVE",
"179 802 OFFCURVE",
"166 802 CURVE SMOOTH"
);
}
);
width = 214;
}
);
leftKerningGroup = I;
rightKerningGroup = I;
unicode = 00CF;
},
{
color = 4;
glyphname = Imacron;
lastChange = "2015-12-28 14:53:01 +0000";
layers = (
{
components = (
{
name = I;
}
);
layerId = "4A17B37A-CBFD-40E5-9E02-2080A0E1F76C";
name = Regular;
paths = (
{
closed = 1;
nodes = (
"30 823 LINE",
"30 756 LINE",
"246 756 LINE",
"246 823 LINE"
);
}
);
width = 276;
},
{
components = (
{
name = I;
}
);
layerId = "99EB5860-B45A-4B60-BB0B-F826C8F71D42";
name = Bold;
paths = (
{
closed = 1;
nodes = (
"1 841 LINE",
"1 711 LINE",
"330 711 LINE",
"330 841 LINE"
);
}
);
width = 333;
},
{
components = (
{
name = I;
}
);
hints = (
{
horizontal = 1;
origin = "{0, 1}";
target = "{0, 0}";
type = Stem;
}
);
layerId = "1C7CD022-87C7-4E11-B656-E47B18819458";
name = Light;
paths = (
{
closed = 1;
nodes = (
"-2 779 LINE",
"-2 765 LINE",
"216 765 LINE",
"216 779 LINE"
);
}
);
width = 214;
}
);
leftKerningGroup = I;
rightKerningGroup = I;
unicode = 012A;
},
{
color = 4;
glyphname = J;
lastChange = "2016-03-04 20:48:57 +0000";
layers = (
{
layerId = "4A17B37A-CBFD-40E5-9E02-2080A0E1F76C";
name = Regular;
paths = (
{
closed = 1;
nodes = (
"375 660 LINE",
"375 246 LINE SMOOTH",
"375 225 OFFCURVE",
"374 206 OFFCURVE",
"371 189 CURVE SMOOTH",
"358 108 OFFCURVE",
"314 65 OFFCURVE",
"233 65 CURVE SMOOTH",
"166 65 OFFCURVE",
"123 113 OFFCURVE",
"113 196 CURVE SMOOTH",
"112 208 OFFCURVE",
"111 220 OFFCURVE",
"111 233 CURVE",
"34 234 LINE",
"34 223 OFFCURVE",
"34 212 OFFCURVE",
"35 202 CURVE SMOOTH",
"46 66 OFFCURVE",
"122 -10 OFFCURVE",
"236 -10 CURVE SMOOTH",
"361 -10 OFFCURVE",
"455 78 OFFCURVE",
"455 226 CURVE SMOOTH",
"455 660 LINE"
);
}
);
width = 530;
},
{
layerId = "99EB5860-B45A-4B60-BB0B-F826C8F71D42";
name = Bold;
paths = (
{
closed = 1;
nodes = (
"389 660 LINE",
"389 327 LINE SMOOTH",
"389 301 OFFCURVE",
"388 268 OFFCURVE",
"388 237 CURVE SMOOTH",
"388 192 OFFCURVE",
"354 165 OFFCURVE",
"321 165 CURVE SMOOTH",
"288 165 OFFCURVE",
"251 190 OFFCURVE",
"251 239 CURVE SMOOTH",
"251 270 OFFCURVE",
"252 302 OFFCURVE",
"252 329 CURVE",
"23 329 LINE",
"23 296 OFFCURVE",
"23 285 OFFCURVE",
"23 256 CURVE SMOOTH",
"23 88 OFFCURVE",
"124 -10 OFFCURVE",
"318 -10 CURVE SMOOTH",
"519 -10 OFFCURVE",
"622 77 OFFCURVE",
"622 259 CURVE SMOOTH",
"622 660 LINE"
);
}
);
width = 657;
},
{
layerId = "1C7CD022-87C7-4E11-B656-E47B18819458";
name = Light;
paths = (
{
closed = 1;
nodes = (
"390 660 LINE",
"390 215 LINE SMOOTH",
"390 207 OFFCURVE",
"390 199 OFFCURVE",
"389 191 CURVE SMOOTH",
"382 71 OFFCURVE",
"323 4 OFFCURVE",
"212 4 CURVE SMOOTH",
"99 4 OFFCURVE",
"54 77 OFFCURVE",
"48 187 CURVE SMOOTH",
"48 194 OFFCURVE",
"48 201 OFFCURVE",
"48 208 CURVE",
"32 208 LINE",
"32 199 OFFCURVE",
"32 189 OFFCURVE",
"33 180 CURVE SMOOTH",
"40 70 OFFCURVE",
"90 -10 OFFCURVE",
"212 -10 CURVE SMOOTH",
"340 -10 OFFCURVE",
"406 71 OFFCURVE",
"406 215 CURVE SMOOTH",
"406 660 LINE"
);
}
);
width = 498;
}
);
rightKerningGroup = I;
unicode = 004A;
},
{
color = 4;
glyphname = K;
lastChange = "2016-03-04 21:00:42 +0000";
layers = (
{
anchors = (
{
name = bottom;
position = "{363, 0}";
},
{
name = top;
position = "{343, 660}";
}
);
layerId = "4A17B37A-CBFD-40E5-9E02-2080A0E1F76C";
name = Regular;
paths = (
{
closed = 1;
nodes = (
"510 660 LINE",
"138 279 LINE",
"138 171 LINE",
"315 352 LINE",
"327 365 LINE",
"615 660 LINE"
);
},
{
closed = 1;
nodes = (
"98 660 LINE",
"98 0 LINE",
"178 0 LINE",
"178 660 LINE"
);
},
{
closed = 1;
nodes = (
"269 371 LINE",
"522 0 LINE",
"618 0 LINE",
"335 416 LINE"
);
}
);
width = 636;
},
{
anchors = (
{
name = bottom;
position = "{356, 0}";
},
{
name = top;
position = "{359, 660}";
}
);
layerId = "99EB5860-B45A-4B60-BB0B-F826C8F71D42";
name = Bold;
paths = (
{
closed = 1;
nodes = (
"455 660 LINE",
"170 253 LINE",
"224 92 LINE",
"369 290 LINE",
"379 239 LINE",
"703 660 LINE"
);
},
{
closed = 1;
nodes = (
"50 660 LINE",
"50 0 LINE",
"283 0 LINE",
"283 660 LINE"
);
},
{
closed = 1;
nodes = (
"296 330 LINE",
"460 0 LINE",
"721 0 LINE",
"467 459 LINE"
);
}
);
width = 731;
},
{
anchors = (
{
name = bottom;
position = "{319, 0}";
},
{
name = top;
position = "{319, 660}";
}
);
layerId = "1C7CD022-87C7-4E11-B656-E47B18819458";
name = Light;
paths = (
{
closed = 1;
nodes = (
"511 660 LINE",
"106 248 LINE",
"106 225 LINE",
"268 389 LINE",
"270 391 LINE",
"534 660 LINE"
);
},
{
closed = 1;
nodes = (
"99 660 LINE",
"99 0 LINE",
"115 0 LINE",
"115 660 LINE"
);
},
{
closed = 1;
nodes = (
"259 390 LINE",
"523 0 LINE",
"544 0 LINE",
"270 404 LINE"
);
}
);
width = 569;
}
);
leftKerningGroup = I;
rightKerningGroup = K;
unicode = 004B;
},
{
color = 4;
glyphname = L;
lastChange = "2016-03-15 16:43:59 +0000";
layers = (
{
anchors = (
{
name = bottom;
position = "{344, 0}";
},
{
name = center;
position = "{446, 342}";
},
{
name = top;
position = "{130, 660}";
},
{
name = topright;
position = "{282, 700}";
}
);
layerId = "4A17B37A-CBFD-40E5-9E02-2080A0E1F76C";
name = Regular;
paths = (
{
closed = 1;
nodes = (
"90 660 LINE",
"90 0 LINE",
"170 0 LINE",
"170 660 LINE"
);
},
{
closed = 1;
nodes = (
"132 75 LINE",
"132 0 LINE",
"548 0 LINE",
"548 75 LINE"
);
}
);
width = 570;
},
{
anchors = (
{
name = bottom;
position = "{318, 0}";
},
{
name = center;
position = "{405, 364}";
},
{
name = top;
position = "{166, 660}";
},
{
name = topright;
position = "{388, 701}";
}
);
layerId = "99EB5860-B45A-4B60-BB0B-F826C8F71D42";
name = Bold;
paths = (
{
closed = 1;
nodes = (
"50 660 LINE",
"50 0 LINE",
"283 0 LINE",
"283 660 LINE"
);
},
{
closed = 1;
nodes = (
"162 183 LINE",
"162 0 LINE",
"582 0 LINE",
"582 183 LINE"
);
}
);
width = 605;
},
{
anchors = (
{
name = bottom;
position = "{331, 0}";
},
{
name = center;
position = "{465, 335}";
},
{
name = top;
position = "{107, 660}";
},
{
name = topright;
position = "{261, 700}";
}
);
layerId = "1C7CD022-87C7-4E11-B656-E47B18819458";
name = Light;
paths = (
{
closed = 1;
nodes = (
"99 660 LINE",
"99 0 LINE",
"115 0 LINE",
"115 660 LINE"
);
},
{
closed = 1;
nodes = (
"105 14 LINE",
"105 0 LINE",
"531 0 LINE",
"531 14 LINE"
);
}
);
width = 551;
}
);
leftKerningGroup = I;
rightKerningGroup = L;
unicode = 004C;
},
{
color = 4;
glyphname = Lslash;
lastChange = "2015-12-28 14:53:01 +0000";
layers = (
{
components = (
{
name = L;
transform = "{1, 0, 0, 1, 30, 0}";
}
);
layerId = "4A17B37A-CBFD-40E5-9E02-2080A0E1F76C";
name = Regular;
paths = (
{
closed = 1;
nodes = (
"23 279 LINE",
"23 196 LINE",
"385 398 LINE",
"385 481 LINE"
);
}
);
width = 608;
},
{
components = (
{
name = L;
transform = "{1, 0, 0, 1, 50, 0}";
}
);
layerId = "99EB5860-B45A-4B60-BB0B-F826C8F71D42";
name = Bold;
paths = (
{
closed = 1;
nodes = (
"-14 299 LINE",
"-14 146 LINE",
"499 372 LINE",
"499 525 LINE"
);
}
);
width = 655;
},
{
components = (
{
alignment = -1;
name = L;
transform = "{1, 0, 0, 1, 11, 0}";
}
);
layerId = "1C7CD022-87C7-4E11-B656-E47B18819458";
name = Light;
paths = (
{
closed = 1;
nodes = (
"9 232 LINE",
"9 212 LINE",
"334 419 LINE",
"334 439 LINE"
);
}
);
width = 554;
}
);
leftKerningGroup = I;
rightKerningGroup = L;
unicode = 0141;
},
{
color = 4;
glyphname = M;
lastChange = "2016-04-09 00:46:10 +0000";
layers = (
{
layerId = "4A17B37A-CBFD-40E5-9E02-2080A0E1F76C";
name = Regular;
paths = (
{
closed = 1;
nodes = (
"600 660 LINE",
"456 258 LINE",
"405 94 LINE",
"403 94 LINE",
"353 259 LINE",
"208 660 LINE",
"85 660 LINE",
"85 0 LINE",
"161 0 LINE",
"161 415 LINE",
"152 589 LINE",
"153 589 LINE",
"370 0 LINE",
"438 0 LINE",
"655 589 LINE",
"656 589 LINE",
"647 415 LINE",
"647 0 LINE",
"723 0 LINE",
"723 660 LINE"
);
}
);
width = 808;
},
{
layerId = "99EB5860-B45A-4B60-BB0B-F826C8F71D42";
leftMetricsKey = "=I";
rightMetricsKey = "=I";
name = Bold;
paths = (
{
closed = 1;
nodes = (
"587 660 LINE",
"511 367 LINE",
"482 244 LINE",
"480 244 LINE",
"451 367 LINE",
"375 660 LINE",
"50 660 LINE",
"50 0 LINE",
"253 0 LINE",
"253 229 LINE",
"250 411 LINE",
"254 411 LINE",
"380 0 LINE",
"566 0 LINE",
"694 411 LINE",
"697 411 LINE",
"694 229 LINE",
"694 0 LINE",
"897 0 LINE",
"897 660 LINE"
);
}
);
width = 947;
},
{
layerId = "1C7CD022-87C7-4E11-B656-E47B18819458";
name = Light;
paths = (
{
closed = 1;
nodes = (
"666 660 LINE",
"405 47 LINE",
"393 19 LINE",
"393 19 LINE",
"381 48 LINE",
"120 660 LINE",
"99 660 LINE",
"99 0 LINE",
"115 0 LINE",
"115 580 LINE",
"114 637 LINE",
"114 637 LINE",
"383 0 LINE",
"403 0 LINE",
"672 637 LINE",
"672 637 LINE",
"671 580 LINE",
"671 0 LINE",
"687 0 LINE",
"687 660 LINE"
);
}
);
width = 786;
}
);
leftKerningGroup = I;
rightKerningGroup = I;
unicode = 004D;
},
{
color = 4;
glyphname = N;
lastChange = "2016-03-04 20:29:36 +0000";
layers = (
{
anchors = (
{
name = bottom;
position = "{387, 0}";
},
{
name = top;
position = "{361, 660}";
}
);
layerId = "4A17B37A-CBFD-40E5-9E02-2080A0E1F76C";
name = Regular;
paths = (
{
closed = 1;
nodes = (
"540 660 LINE",
"540 194 LINE",
"544 88 LINE",
"543 88 LINE",
"472 220 LINE",
"197 660 LINE",
"98 660 LINE",
"98 0 LINE",
"174 0 LINE",
"174 466 LINE",
"170 572 LINE",
"171 572 LINE",
"241 442 LINE",
"517 0 LINE",
"616 0 LINE",
"616 660 LINE"
);
}
);
width = 714;
},
{
anchors = (
{
name = bottom;
position = "{374, 0}";
},
{
name = top;
position = "{373, 660}";
}
);
layerId = "99EB5860-B45A-4B60-BB0B-F826C8F71D42";
name = Bold;
paths = (
{
closed = 1;
nodes = (
"494 660 LINE",
"494 425 LINE",
"498 301 LINE",
"496 301 LINE",
"460 369 LINE",
"302 660 LINE",
"50 660 LINE",
"50 0 LINE",
"252 0 LINE",
"252 235 LINE",
"248 364 LINE",
"250 364 LINE",
"286 290 LINE",
"444 0 LINE",
"696 0 LINE",
"696 660 LINE"
);
}
);
width = 746;
},
{
anchors = (
{
name = bottom;
position = "{328, 0}";
},
{
name = top;
position = "{334, 660}";
}
);
layerId = "1C7CD022-87C7-4E11-B656-E47B18819458";
name = Light;
paths = (
{
closed = 1;
nodes = (
"560 660 LINE",
"560 73 LINE",
"561 16 LINE",
"561 16 LINE",
"535 55 LINE",
"102 660 LINE",
"80 660 LINE",
"80 0 LINE",
"96 0 LINE",
"96 587 LINE",
"95 644 LINE",
"95 644 LINE",
"121 605 LINE",
"554 0 LINE",
"576 0 LINE",
"576 660 LINE"
);
}
);
width = 656;
}
);
leftKerningGroup = I;
rightKerningGroup = I;
unicode = 004E;
},
{
color = 4;
glyphname = O;
lastChange = "2016-04-09 00:42:45 +0000";
layers = (
{
anchors = (
{
name = top;
position = "{374, 660}";
}
);
layerId = "4A17B37A-CBFD-40E5-9E02-2080A0E1F76C";
name = Regular;
paths = (
{
closed = 1;
nodes = (
"35 143 OFFCURVE",
"187 -9 OFFCURVE",
"373 -9 CURVE",
"559 -9 OFFCURVE",
"711 143 OFFCURVE",
"711 331 CURVE",
"711 517 OFFCURVE",
"559 669 OFFCURVE",
"373 669 CURVE",
"187 669 OFFCURVE",
"35 517 OFFCURVE",
"35 331 CURVE"
);
},
{
closed = 1;
nodes = (
"112 474 OFFCURVE",
"230 592 OFFCURVE",
"373 592 CURVE",
"516 592 OFFCURVE",
"633 474 OFFCURVE",
"633 330 CURVE",
"633 187 OFFCURVE",
"516 69 OFFCURVE",
"373 69 CURVE",
"230 69 OFFCURVE",
"112 187 OFFCURVE",
"112 330 CURVE"
);
}
);
width = 746;
},
{
anchors = (
{
name = top;
position = "{371, 660}";
}
);
layerId = "99EB5860-B45A-4B60-BB0B-F826C8F71D42";
name = Bold;
paths = (
{
closed = 1;
nodes = (
"29 138 OFFCURVE",
"182 -15 OFFCURVE",
"372 -15 CURVE",
"562 -15 OFFCURVE",
"715 138 OFFCURVE",
"715 328 CURVE",
"715 518 OFFCURVE",
"562 671 OFFCURVE",
"372 671 CURVE",
"182 671 OFFCURVE",
"29 518 OFFCURVE",
"29 328 CURVE"
);
},
{
closed = 1;
nodes = (
"242 400 OFFCURVE",
"300 459 OFFCURVE",
"372 459 CURVE",
"446 459 OFFCURVE",
"504 400 OFFCURVE",
"504 328 CURVE",
"504 257 OFFCURVE",
"446 197 OFFCURVE",
"372 197 CURVE",
"300 197 OFFCURVE",
"242 257 OFFCURVE",
"242 328 CURVE"
);
}
);
width = 745;
},
{
anchors = (
{
name = top;
position = "{394, 660}";
}
);
layerId = "1C7CD022-87C7-4E11-B656-E47B18819458";
name = Light;
paths = (
{
closed = 1;
nodes = (
"49.5 138.379 OFFCURVE",
"203.719 -16.5 OFFCURVE",
"396 -16.5 CURVE SMOOTH",
"587.621 -16.5 OFFCURVE",
"742.5 137.719 OFFCURVE",
"742.5 330 CURVE SMOOTH",
"742.5 521.621 OFFCURVE",
"588.281 676.5 OFFCURVE",
"396 676.5 CURVE SMOOTH",
"204.379 676.5 OFFCURVE",
"49.5 522.281 OFFCURVE",
"49.5 330 CURVE SMOOTH"
);
},
{
closed = 1;
nodes = (
"66 512 OFFCURVE",
"214 660 OFFCURVE",
"396 660 CURVE SMOOTH",
"578 660 OFFCURVE",
"726 512 OFFCURVE",
"726 330 CURVE SMOOTH",
"726 148 OFFCURVE",
"578 0 OFFCURVE",
"396 0 CURVE SMOOTH",
"214 0 OFFCURVE",
"66 148 OFFCURVE",
"66 330 CURVE SMOOTH"
);
}
);
width = 792;
}
);
leftKerningGroup = O;
rightKerningGroup = O;
unicode = 004F;
},
{
color = 4;
glyphname = Oslash;
lastChange = "2015-12-28 14:53:01 +0000";
layers = (
{
components = (
{
alignment = -1;
name = O;
}
);
layerId = "1C7CD022-87C7-4E11-B656-E47B18819458";
name = Light;
paths = (
{
closed = 1;
nodes = (
"643 690 LINE",
"577 599 LINE",
"590 590 LINE",
"663 690 LINE"
);
},
{
closed = 1;
nodes = (
"195 71 LINE",
"205 59 LINE",
"590 590 LINE",
"577 599 LINE"
);
},
{
closed = 1;
nodes = (
"141 -30 LINE",
"205 59 LINE",
"195 71 LINE",
"121 -30 LINE"
);
}
);
width = 714;
},
{
components = (
{
name = O;
}
);
layerId = "4A17B37A-CBFD-40E5-9E02-2080A0E1F76C";
name = Regular;
paths = (
{
closed = 1;
nodes = (
"613 683 LINE",
"541 580 LINE",
"587 544 LINE",
"684 683 LINE"
);
},
{
closed = 1;
nodes = (
"206 100 LINE",
"252 63 LINE",
"587 544 LINE",
"541 580 LINE"
);
},
{
closed = 1;
nodes = (
"182 -37 LINE",
"252 63 LINE",
"206 100 LINE",
"111 -37 LINE"
);
}
);
width = 798;
},
{
components = (
{
name = O;
}
);
layerId = "99EB5860-B45A-4B60-BB0B-F826C8F71D42";
name = Bold;
paths = (
{
closed = 1;
nodes = (
"584 680 LINE",
"483 541 LINE",
"532 482 LINE",
"679 680 LINE"
);
},
{
closed = 1;
nodes = (
"203 167 LINE",
"261 112 LINE",
"529 488 LINE",
"472 545 LINE"
);
},
{
closed = 1;
nodes = (
"144 -21 LINE",
"245 118 LINE",
"193 176 LINE",
"48 -21 LINE"
);
}
);
width = 729;
}
);
leftKerningGroup = O;
rightKerningGroup = O;
unicode = 00D8;
},
{
color = 4;
glyphname = OE;
lastChange = "2015-12-28 14:53:01 +0000";
layers = (
{
layerId = "4A17B37A-CBFD-40E5-9E02-2080A0E1F76C";
name = Regular;
paths = (
{
closed = 1;
nodes = (
"172 670 OFFCURVE",
"58 539 OFFCURVE",
"58 330 CURVE SMOOTH",
"58 121 OFFCURVE",
"174 -10 OFFCURVE",
"362 -10 CURVE SMOOTH",
"526 -10 OFFCURVE",
"640 121 OFFCURVE",
"640 330 CURVE SMOOTH",
"640 539 OFFCURVE",
"530 670 OFFCURVE",
"366 670 CURVE SMOOTH"
);
},
{
closed = 1;
nodes = (
"491 595 OFFCURVE",
"576 496 OFFCURVE",
"576 330 CURVE SMOOTH",
"576 164 OFFCURVE",
"491 65 OFFCURVE",
"366 65 CURVE SMOOTH",
"223 65 OFFCURVE",
"142 164 OFFCURVE",
"142 330 CURVE SMOOTH",
"142 496 OFFCURVE",
"223 595 OFFCURVE",
"366 595 CURVE SMOOTH"
);
},
{
closed = 1;
nodes = (
"618 75 LINE",
"618 0 LINE",
"1018 0 LINE",
"1018 75 LINE"
);
},
{
closed = 1;
nodes = (
"576 660 LINE",
"576 0 LINE",
"649 0 LINE",
"649 660 LINE"
);
},
{
closed = 1;
nodes = (
"618 372 LINE",
"618 297 LINE",
"918 297 LINE",
"918 372 LINE"
);
},
{
closed = 1;
nodes = (
"618 660 LINE",
"618 585 LINE",
"1003 585 LINE",
"1003 660 LINE"
);
}
);
width = 1060;
},
{
layerId = "99EB5860-B45A-4B60-BB0B-F826C8F71D42";
name = Bold;
paths = (
{
closed = 1;
nodes = (
"152 670 OFFCURVE",
"29 546 OFFCURVE",
"29 330 CURVE SMOOTH",
"29 114 OFFCURVE",
"152 -10 OFFCURVE",
"342 -10 CURVE SMOOTH",
"550 -10 OFFCURVE",
"642 162 OFFCURVE",
"642 330 CURVE SMOOTH",
"642 498 OFFCURVE",
"550 670 OFFCURVE",
"342 670 CURVE SMOOTH"
);
},
{
closed = 1;
nodes = (
"423 495 OFFCURVE",
"452 445 OFFCURVE",
"452 330 CURVE SMOOTH",
"452 215 OFFCURVE",
"423 165 OFFCURVE",
"355 165 CURVE SMOOTH",
"291 165 OFFCURVE",
"262 215 OFFCURVE",
"262 330 CURVE SMOOTH",
"262 445 OFFCURVE",
"291 495 OFFCURVE",
"355 495 CURVE SMOOTH"
);
},
{
closed = 1;
nodes = (
"565 171 LINE",
"565 0 LINE",
"1011 0 LINE",
"1011 171 LINE"
);
},
{
closed = 1;
nodes = (
"542 660 LINE",
"542 0 LINE",
"685 0 LINE",
"685 660 LINE"
);
},
{
closed = 1;
nodes = (
"565 407 LINE",
"565 249 LINE",
"938 249 LINE",
"938 407 LINE"
);
},
{
closed = 1;
nodes = (
"565 660 LINE",
"565 489 LINE",
"999 489 LINE",
"999 660 LINE"
);
}
);
width = 1027;
},
{
layerId = "1C7CD022-87C7-4E11-B656-E47B18819458";
name = Light;
paths = (
{
closed = 1;
nodes = (
"167 670 OFFCURVE",
"56 539 OFFCURVE",
"56 330 CURVE SMOOTH",
"56 121 OFFCURVE",
"167 -10 OFFCURVE",
"337 -10 CURVE SMOOTH",
"525 -10 OFFCURVE",
"606 101 OFFCURVE",
"606 330 CURVE SMOOTH",
"606 559 OFFCURVE",
"525 670 OFFCURVE",
"337 670 CURVE SMOOTH"
);
},
{
closed = 1;
nodes = (
"517 656 OFFCURVE",
"592 550 OFFCURVE",
"592 330 CURVE SMOOTH",
"592 110 OFFCURVE",
"517 4 OFFCURVE",
"337 4 CURVE SMOOTH",
"177 4 OFFCURVE",
"72 130 OFFCURVE",
"72 330 CURVE SMOOTH",
"72 530 OFFCURVE",
"177 656 OFFCURVE",
"337 656 CURVE SMOOTH"
);
},
{
closed = 1;
nodes = (
"606 14 LINE",
"598 0 LINE",
"1020 0 LINE",
"1020 14 LINE"
);
},
{
closed = 1;
nodes = (
"592 660 LINE",
"592 0 LINE",
"608 0 LINE",
"608 660 LINE"
);
},
{
closed = 1;
nodes = (
"598 344 LINE",
"598 330 LINE",
"931 330 LINE",
"931 344 LINE"
);
},
{
closed = 1;
nodes = (
"598 660 LINE",
"598 646 LINE",
"1003 646 LINE",
"1003 660 LINE"
);
}
);
width = 1050;
}
);
leftKerningGroup = O;
leftMetricsKey = O;
rightKerningGroup = E;
rightMetricsKey = E;
unicode = 0152;
},
{
color = 4;
glyphname = P;
lastChange = "2016-04-09 00:46:21 +0000";
layers = (
{
layerId = "4A17B37A-CBFD-40E5-9E02-2080A0E1F76C";
name = Regular;
paths = (
{
closed = 1;
nodes = (
"138 660 LINE",
"138 585 LINE",
"347 585 LINE SMOOTH",
"441 585 OFFCURVE",
"501 521 OFFCURVE",
"501 442 CURVE SMOOTH",
"501 363 OFFCURVE",
"441 294 OFFCURVE",
"347 294 CURVE SMOOTH",
"138 294 LINE",
"138 219 LINE",
"348 219 LINE SMOOTH",
"482 219 OFFCURVE",
"585 323 OFFCURVE",
"585 442 CURVE SMOOTH",
"585 561 OFFCURVE",
"482 660 OFFCURVE",
"348 660 CURVE SMOOTH"
);
},
{
closed = 1;
nodes = (
"98 660 LINE",
"98 0 LINE",
"178 0 LINE",
"178 660 LINE"
);
}
);
width = 620;
},
{
layerId = "99EB5860-B45A-4B60-BB0B-F826C8F71D42";
name = Bold;
paths = (
{
closed = 1;
nodes = (
"208 660 LINE",
"208 494 LINE",
"361 494 LINE SMOOTH",
"420 494 OFFCURVE",
"451 450 OFFCURVE",
"451 406 CURVE SMOOTH",
"451 361 OFFCURVE",
"420 317 OFFCURVE",
"361 317 CURVE SMOOTH",
"208 317 LINE",
"208 154 LINE",
"408 154 LINE SMOOTH",
"584 154 OFFCURVE",
"684 266 OFFCURVE",
"684 412 CURVE SMOOTH",
"684 559 OFFCURVE",
"584 660 OFFCURVE",
"408 660 CURVE SMOOTH"
);
},
{
closed = 1;
nodes = (
"50 660 LINE",
"50 0 LINE",
"278 0 LINE",
"278 660 LINE"
);
}
);
width = 703;
},
{
layerId = "1C7CD022-87C7-4E11-B656-E47B18819458";
name = Light;
paths = (
{
closed = 1;
nodes = (
"107 660 LINE",
"107 646 LINE",
"338 646 LINE SMOOTH",
"459 646 OFFCURVE",
"538 565 OFFCURVE",
"538 461 CURVE SMOOTH",
"538 357 OFFCURVE",
"459 264 OFFCURVE",
"338 264 CURVE SMOOTH",
"107 264 LINE",
"107 250 LINE",
"338 250 LINE SMOOTH",
"467 250 OFFCURVE",
"554 349 OFFCURVE",
"554 461 CURVE SMOOTH",
"554 573 OFFCURVE",
"467 660 OFFCURVE",
"338 660 CURVE SMOOTH"
);
},
{
closed = 1;
nodes = (
"99 660 LINE",
"99 0 LINE",
"115 0 LINE",
"115 660 LINE"
);
}
);
width = 614;
}
);
leftKerningGroup = I;
unicode = 0050;
},
{
color = 4;
glyphname = Thorn;
lastChange = "2015-12-28 14:53:01 +0000";
layers = (
{
layerId = "4A17B37A-CBFD-40E5-9E02-2080A0E1F76C";
name = Regular;
paths = (
{
closed = 1;
nodes = (
"138 542 LINE",
"138 467 LINE",
"325 467 LINE SMOOTH",
"429 467 OFFCURVE",
"479 425 OFFCURVE",
"479 337 CURVE SMOOTH",
"479 249 OFFCURVE",
"429 207 OFFCURVE",
"325 207 CURVE SMOOTH",
"138 207 LINE",
"138 132 LINE",
"317 132 LINE SMOOTH",
"481 132 OFFCURVE",
"563 206 OFFCURVE",
"563 337 CURVE SMOOTH",
"563 469 OFFCURVE",
"481 542 OFFCURVE",
"317 542 CURVE SMOOTH"
);
},
{
closed = 1;
nodes = (
"98 660 LINE",
"98 0 LINE",
"178 0 LINE",
"178 660 LINE"
);
}
);
width = 607;
},
{
layerId = "99EB5860-B45A-4B60-BB0B-F826C8F71D42";
leftMetricsKey = "=I";
name = Bold;
paths = (
{
closed = 1;
nodes = (
"166 571 LINE",
"166 406 LINE",
"354 406 LINE SMOOTH",
"402 406 OFFCURVE",
"431 385 OFFCURVE",
"430 337 CURVE SMOOTH",
"431 288 OFFCURVE",
"402 267 OFFCURVE",
"354 267 CURVE SMOOTH",
"166 267 LINE",
"166 103 LINE",
"392 103 LINE SMOOTH",
"563 103 OFFCURVE",
"664 182 OFFCURVE",
"663 337 CURVE SMOOTH",
"664 492 OFFCURVE",
"563 571 OFFCURVE",
"392 571 CURVE SMOOTH"
);
},
{
closed = 1;
nodes = (
"50 660 LINE",
"50 0 LINE",
"283 0 LINE",
"283 660 LINE"
);
}
);
width = 692;
},
{
layerId = "1C7CD022-87C7-4E11-B656-E47B18819458";
name = Light;
paths = (
{
closed = 1;
nodes = (
"108 525 LINE",
"108 511 LINE",
"303 511 LINE SMOOTH",
"441 511 OFFCURVE",
"511 453 OFFCURVE",
"511 340 CURVE SMOOTH",
"511 227 OFFCURVE",
"441 169 OFFCURVE",
"303 169 CURVE SMOOTH",
"108 169 LINE",
"108 155 LINE",
"294 155 LINE SMOOTH",
"448 155 OFFCURVE",
"527 218 OFFCURVE",
"527 340 CURVE SMOOTH",
"527 462 OFFCURVE",
"448 525 OFFCURVE",
"294 525 CURVE SMOOTH"
);
},
{
closed = 1;
nodes = (
"99 660 LINE",
"99 0 LINE",
"115 0 LINE",
"115 660 LINE"
);
}
);
width = 567;
}
);
leftKerningGroup = I;
unicode = 00DE;
},
{
color = 4;
glyphname = Q;
lastChange = "2016-05-11 14:02:47 +0000";
layers = (
{
components = (
{
name = O;
}
);
hints = (
{
horizontal = 1;
place = "{-25, 251}";
type = Stem;
}
);
layerId = "4A17B37A-CBFD-40E5-9E02-2080A0E1F76C";
name = Regular;
paths = (
{
closed = 1;
nodes = (
"622 -79 LINE",
"690 -31 LINE",
"604 89 LINE",
"536 41 LINE"
);
}
);
width = 762;
},
{
components = (
{
name = O;
}
);
guideLines = (
{
angle = 90;
position = "{692, 57}";
}
);
hints = (
{
horizontal = 1;
place = "{-210, 170}";
type = Stem;
}
);
layerId = "99EB5860-B45A-4B60-BB0B-F826C8F71D42";
leftMetricsKey = "=O";
rightMetricsKey = "=O";
name = Bold;
paths = (
{
closed = 1;
nodes = (
"568 -107 LINE",
"733 12 LINE",
"579 226 LINE",
"413 107 LINE"
);
}
);
width = 753;
},
{
components = (
{
alignment = -1;
name = O;
}
);
hints = (
{
horizontal = 1;
place = "{-195, 14}";
type = Stem;
}
);
layerId = "1C7CD022-87C7-4E11-B656-E47B18819458";
name = Light;
paths = (
{
closed = 1;
nodes = (
"702 -89 LINE",
"714 -80 LINE",
"542 149 LINE",
"530 140 LINE"
);
}
);
width = 792;
}
);
leftKerningGroup = O;
rightKerningGroup = O;
unicode = 0051;
},
{
color = 4;
glyphname = R;
lastChange = "2015-12-28 14:53:01 +0000";
layers = (
{
anchors = (
{
name = bottom;
position = "{355, 0}";
},
{
name = top;
position = "{312, 660}";
}
);
layerId = "4A17B37A-CBFD-40E5-9E02-2080A0E1F76C";
name = Regular;
paths = (
{
closed = 1;
nodes = (
"138 660 LINE",
"138 585 LINE",
"347 585 LINE SMOOTH",
"441 585 OFFCURVE",
"501 521 OFFCURVE",
"501 442 CURVE SMOOTH",
"501 363 OFFCURVE",
"441 294 OFFCURVE",
"347 294 CURVE SMOOTH",
"138 294 LINE",
"138 219 LINE",
"348 219 LINE SMOOTH",
"482 219 OFFCURVE",
"585 323 OFFCURVE",
"585 442 CURVE SMOOTH",
"585 561 OFFCURVE",
"482 660 OFFCURVE",
"348 660 CURVE SMOOTH"
);
},
{
closed = 1;
nodes = (
"98 660 LINE",
"98 0 LINE",
"178 0 LINE",
"178 660 LINE"
);
},
{
closed = 1;
nodes = (
"357 242 LINE",
"516 0 LINE",
"611 0 LINE",
"424 286 LINE"
);
}
);
width = 645;
},
{
anchors = (
{
name = bottom;
position = "{362, 0}";
},
{
name = top;
position = "{334, 660}";
}
);
layerId = "99EB5860-B45A-4B60-BB0B-F826C8F71D42";
name = Bold;
paths = (
{
closed = 1;
nodes = (
"208 660 LINE",
"208 494 LINE",
"361 494 LINE SMOOTH",
"420 494 OFFCURVE",
"451 450 OFFCURVE",
"451 406 CURVE SMOOTH",
"451 361 OFFCURVE",
"420 317 OFFCURVE",
"361 317 CURVE SMOOTH",
"208 317 LINE",
"208 144 LINE",
"408 144 LINE",
"584 144 OFFCURVE",
"684 266 OFFCURVE",
"684 412 CURVE SMOOTH",
"684 559 OFFCURVE",
"584 660 OFFCURVE",
"408 660 CURVE SMOOTH"
);
},
{
closed = 1;
nodes = (
"50 660 LINE",
"50 0 LINE",
"278 0 LINE",
"278 660 LINE"
);
},
{
closed = 1;
nodes = (
"321 226 LINE",
"429 0 LINE",
"672 0 LINE SMOOTH",
"542 260 LINE"
);
}
);
width = 705;
},
{
anchors = (
{
name = bottom;
position = "{346, 0}";
},
{
name = top;
position = "{293, 660}";
}
);
layerId = "1C7CD022-87C7-4E11-B656-E47B18819458";
name = Light;
paths = (
{
closed = 1;
nodes = (
"107 660 LINE",
"107 646 LINE",
"338 646 LINE",
"459 646 OFFCURVE",
"538 565 OFFCURVE",
"538 461 CURVE SMOOTH",
"538 357 OFFCURVE",
"459 264 OFFCURVE",
"338 264 CURVE SMOOTH",
"107 264 LINE",
"107 250 LINE",
"338 250 LINE SMOOTH",
"467 250 OFFCURVE",
"554 349 OFFCURVE",
"554 461 CURVE SMOOTH",
"554 573 OFFCURVE",
"467 660 OFFCURVE",
"338 660 CURVE SMOOTH"
);
},
{
closed = 1;
nodes = (
"99 660 LINE",
"99 0 LINE",
"115 0 LINE",
"115 660 LINE"
);
},
{
closed = 1;
nodes = (
"385 260 LINE",
"558 0 LINE",
"576 0 LINE",
"398 270 LINE"
);
}
);
width = 629;
}
);
leftKerningGroup = I;
rightKerningGroup = R;
unicode = 0052;
},
{
color = 4;
glyphname = S;
lastChange = "2016-04-09 00:59:48 +0000";
layers = (
{
anchors = (
{
name = bottom;
position = "{319, 0}";
},
{
name = bottomC;
position = "{289, 0}";
},
{
name = top;
position = "{286, 660}";
}
);
layerId = "4A17B37A-CBFD-40E5-9E02-2080A0E1F76C";
name = Regular;
paths = (
{
closed = 1;
nodes = (
"424 -10 OFFCURVE",
"510 72 OFFCURVE",
"510 180 CURVE SMOOTH",
"510 302 OFFCURVE",
"399 338 OFFCURVE",
"311 365 CURVE SMOOTH",
"207 396 OFFCURVE",
"149 415 OFFCURVE",
"149 489 CURVE SMOOTH",
"149 563 OFFCURVE",
"206 601 OFFCURVE",
"287 601 CURVE SMOOTH",
"364 601 OFFCURVE",
"423 566 OFFCURVE",
"425 476 CURVE",
"498 476 LINE",
"498 604 OFFCURVE",
"397 671 OFFCURVE",
"282 671 CURVE SMOOTH",
"162 671 OFFCURVE",
"72 598 OFFCURVE",
"72 483 CURVE SMOOTH",
"72 378 OFFCURVE",
"146 337 OFFCURVE",
"278 298 CURVE SMOOTH",
"347 278 OFFCURVE",
"433 253 OFFCURVE",
"433 171 CURVE SMOOTH",
"433 109 OFFCURVE",
"385 60 OFFCURVE",
"289 60 CURVE SMOOTH",
"178 60 OFFCURVE",
"130 127 OFFCURVE",
"130 170 CURVE SMOOTH",
"130 179 OFFCURVE",
"130 204 OFFCURVE",
"130 204 CURVE SMOOTH",
"63 204 LINE",
"61 192 OFFCURVE",
"60 171 OFFCURVE",
"60 160 CURVE",
"60 82 OFFCURVE",
"142 -10 OFFCURVE",
"287 -10 CURVE SMOOTH"
);
}
);
width = 570;
},
{
anchors = (
{
name = bottom;
position = "{314, 0}";
},
{
name = bottomC;
position = "{306, 0}";
},
{
name = top;
position = "{307, 660}";
}
);
layerId = "99EB5860-B45A-4B60-BB0B-F826C8F71D42";
name = Bold;
paths = (
{
closed = 1;
nodes = (
"454 -14 OFFCURVE",
"596 24 OFFCURVE",
"596 186 CURVE SMOOTH",
"596 306 OFFCURVE",
"519 367 OFFCURVE",
"365 401 CURVE SMOOTH",
"318 411 OFFCURVE",
"253 428 OFFCURVE",
"253 468 CURVE",
"253 494 OFFCURVE",
"269 512 OFFCURVE",
"307 512 CURVE SMOOTH",
"363 512 OFFCURVE",
"377 472 OFFCURVE",
"375 422 CURVE",
"570 422 LINE",
"570 577 OFFCURVE",
"485 671 OFFCURVE",
"309 671 CURVE SMOOTH",
"145 671 OFFCURVE",
"28 591 OFFCURVE",
"28 453 CURVE SMOOTH",
"28 306 OFFCURVE",
"162 269 OFFCURVE",
"264 244 CURVE SMOOTH",
"313 232 OFFCURVE",
"371 217 OFFCURVE",
"371 180 CURVE SMOOTH",
"371 154 OFFCURVE",
"341 137 OFFCURVE",
"298 137 CURVE SMOOTH",
"243 137 OFFCURVE",
"211 165 OFFCURVE",
"211 195 CURVE SMOOTH",
"211 206 OFFCURVE",
"211 216 OFFCURVE",
"213 232 CURVE",
"31 232 LINE",
"27 209 OFFCURVE",
"26 189 OFFCURVE",
"26 177 CURVE SMOOTH",
"26 58 OFFCURVE",
"124 -14 OFFCURVE",
"311 -14 CURVE SMOOTH"
);
}
);
width = 622;
},
{
anchors = (
{
name = bottom;
position = "{269, -5}";
},
{
name = bottomC;
position = "{241, -5}";
},
{
name = top;
position = "{242, 662}";
}
);
layerId = "1C7CD022-87C7-4E11-B656-E47B18819458";
name = Light;
paths = (
{
closed = 1;
nodes = (
"385 -10 OFFCURVE",
"468 49 OFFCURVE",
"468 149 CURVE SMOOTH",
"468 263 OFFCURVE",
"362 303 OFFCURVE",
"273 334 CURVE SMOOTH",
"140 381 OFFCURVE",
"82 405 OFFCURVE",
"82 499 CURVE SMOOTH",
"82 598 OFFCURVE",
"146 656 OFFCURVE",
"256 656 CURVE SMOOTH",
"376 656 OFFCURVE",
"442 586 OFFCURVE",
"434 493 CURVE",
"450 493 LINE",
"458 595 OFFCURVE",
"380 671 OFFCURVE",
"256 671 CURVE SMOOTH",
"139 671 OFFCURVE",
"65 603 OFFCURVE",
"65 498 CURVE SMOOTH",
"65 390 OFFCURVE",
"142 363 OFFCURVE",
"266 320 CURVE SMOOTH",
"359 287 OFFCURVE",
"452 252 OFFCURVE",
"452 148 CURVE SMOOTH",
"452 55 OFFCURVE",
"377 6 OFFCURVE",
"258 6 CURVE",
"144 6 OFFCURVE",
"77 50 OFFCURVE",
"69 138 CURVE SMOOTH",
"67 159 OFFCURVE",
"72 177 OFFCURVE",
"77 196 CURVE",
"61 196 LINE",
"55 171 OFFCURVE",
"52 155 OFFCURVE",
"53 136 CURVE SMOOTH",
"57 47 OFFCURVE",
"134 -10 OFFCURVE",
"258 -10 CURVE SMOOTH"
);
}
);
width = 529;
}
);
leftKerningGroup = S;
rightKerningGroup = S;
unicode = 0053;
},
{
color = 4;
glyphname = Germandbls;
lastChange = "2015-12-28 14:53:01 +0000";
layers = (
{
layerId = "1C7CD022-87C7-4E11-B656-E47B18819458";
name = Light;
paths = (
{
closed = 1;
nodes = (
"115 0 LINE",
"115 442 LINE SMOOTH",
"115 563 OFFCURVE",
"189 646 OFFCURVE",
"311 646 CURVE SMOOTH",
"542 646 LINE",
"299 344 LINE",
"312 338 LINE",
"560 645 LINE",
"560 660 LINE",
"311 660 LINE SMOOTH",
"178 660 OFFCURVE",
"99 573 OFFCURVE",
"99 443 CURVE SMOOTH",
"99 0 LINE"
);
},
{
closed = 1;
nodes = (
"521 -5 OFFCURVE",
"595 70 OFFCURVE",
"595 180 CURVE SMOOTH",
"595 294 OFFCURVE",
"529 344 OFFCURVE",
"391 344 CURVE SMOOTH",
"299 344 LINE",
"299 330 LINE",
"391 330 LINE SMOOTH",
"519 330 OFFCURVE",
"579 285 OFFCURVE",
"579 180 CURVE SMOOTH",
"579 78 OFFCURVE",
"508 8 OFFCURVE",
"406 8 CURVE SMOOTH",
"333 8 OFFCURVE",
"287 35 OFFCURVE",
"267 67 CURVE",
"256 55 LINE",
"275 23 OFFCURVE",
"333 -5 OFFCURVE",
"406 -5 CURVE SMOOTH"
);
}
);
width = 639;
},
{
layerId = "4A17B37A-CBFD-40E5-9E02-2080A0E1F76C";
name = Regular;
paths = (
{
closed = 1;
nodes = (
"178 0 LINE",
"178 442 LINE SMOOTH",
"178 525 OFFCURVE",
"243 585 OFFCURVE",
"320 585 CURVE SMOOTH",
"503 585 LINE",
"329 370 LINE",
"380 329 LINE",
"598 584 LINE",
"598 660 LINE",
"320 660 LINE SMOOTH",
"193 660 OFFCURVE",
"98 573 OFFCURVE",
"98 443 CURVE SMOOTH",
"98 0 LINE"
);
},
{
closed = 1;
nodes = (
"555 -5 OFFCURVE",
"641 70 OFFCURVE",
"641 185 CURVE SMOOTH",
"641 303 OFFCURVE",
"559 370 OFFCURVE",
"438 370 CURVE SMOOTH",
"329 370 LINE",
"329 302 LINE",
"406 302 LINE SMOOTH",
"502 302 OFFCURVE",
"557 257 OFFCURVE",
"557 185 CURVE SMOOTH",
"557 116 OFFCURVE",
"506 68 OFFCURVE",
"428 68 CURVE SMOOTH",
"375 68 OFFCURVE",
"324 88 OFFCURVE",
"299 118 CURVE",
"265 59 LINE",
"289 24 OFFCURVE",
"353 -5 OFFCURVE",
"436 -5 CURVE SMOOTH"
);
}
);
width = 671;
},
{
layerId = "99EB5860-B45A-4B60-BB0B-F826C8F71D42";
name = Bold;
paths = (
{
closed = 1;
nodes = (
"283 0 LINE",
"283 362 LINE SMOOTH",
"283 449 OFFCURVE",
"325 494 OFFCURVE",
"405 494 CURVE SMOOTH",
"481 494 LINE",
"352 359 LINE",
"505 292 LINE",
"691 498 LINE",
"691 660 LINE",
"355 660 LINE SMOOTH",
"162 660 OFFCURVE",
"50 565 OFFCURVE",
"50 403 CURVE SMOOTH",
"50 0 LINE"
);
},
{
closed = 1;
nodes = (
"631 -5 OFFCURVE",
"726 56 OFFCURVE",
"726 189 CURVE SMOOTH",
"726 317 OFFCURVE",
"627 359 OFFCURVE",
"506 359 CURVE SMOOTH",
"352 359 LINE",
"352 243 LINE",
"448 243 LINE SMOOTH",
"487 243 OFFCURVE",
"513 231 OFFCURVE",
"513 198 CURVE SMOOTH",
"513 168 OFFCURVE",
"488 151 OFFCURVE",
"452 151 CURVE SMOOTH",
"411 151 OFFCURVE",
"392 158 OFFCURVE",
"367 177 CURVE",
"313 49 LINE",
"351 14 OFFCURVE",
"402 -5 OFFCURVE",
"505 -5 CURVE SMOOTH"
);
}
);
width = 738;
}
);
leftKerningGroup = I;
leftMetricsKey = I;
unicode = 1E9E;
},
{
color = 4;
glyphname = T;
lastChange = "2016-04-09 00:47:08 +0000";
layers = (
{
anchors = (
{
name = bottom;
position = "{316, 0}";
},
{
name = center;
position = "{300, 330}";
},
{
name = top;
position = "{300, 660}";
}
);
layerId = "4A17B37A-CBFD-40E5-9E02-2080A0E1F76C";
name = Regular;
paths = (
{
closed = 1;
nodes = (
"260 660 LINE",
"260 0 LINE",
"340 0 LINE",
"340 660 LINE"
);
},
{
closed = 1;
nodes = (
"30 660 LINE",
"30 585 LINE",
"570 585 LINE",
"570 660 LINE"
);
}
);
width = 600;
},
{
anchors = (
{
name = bottom;
position = "{326, 0}";
},
{
name = center;
position = "{343, 330}";
},
{
name = top;
position = "{343, 660}";
}
);
layerId = "99EB5860-B45A-4B60-BB0B-F826C8F71D42";
name = Bold;
paths = (
{
closed = 1;
nodes = (
"227 660 LINE",
"227 0 LINE",
"460 0 LINE",
"460 660 LINE"
);
},
{
closed = 1;
nodes = (
"20 660 LINE",
"20 461 LINE",
"666 461 LINE",
"666 660 LINE"
);
}
);
width = 686;
},
{
anchors = (
{
name = bottom;
position = "{285, 0}";
},
{
name = center;
position = "{281, 371}";
},
{
name = top;
position = "{281, 660}";
}
);
layerId = "1C7CD022-87C7-4E11-B656-E47B18819458";
name = Light;
paths = (
{
closed = 1;
nodes = (
"273 653 LINE",
"273 0 LINE",
"289 0 LINE",
"289 653 LINE"
);
},
{
closed = 1;
nodes = (
"20 660 LINE",
"20 646 LINE",
"542 646 LINE",
"542 660 LINE"
);
}
);
width = 562;
}
);
leftKerningGroup = T;
rightKerningGroup = T;
unicode = 0054;
},
{
color = 4;
glyphname = U;
lastChange = "2016-03-04 20:47:59 +0000";
layers = (
{
anchors = (
{
name = ogonek;
position = "{459, 16}";
},
{
name = top;
position = "{339, 660}";
}
);
layerId = "4A17B37A-CBFD-40E5-9E02-2080A0E1F76C";
name = Regular;
paths = (
{
closed = 1;
nodes = (
"518 660 LINE",
"518 266 LINE SMOOTH",
"518 128 OFFCURVE",
"462 65 OFFCURVE",
"339 65 CURVE SMOOTH",
"216 65 OFFCURVE",
"160 128 OFFCURVE",
"160 266 CURVE SMOOTH",
"160 660 LINE",
"80 660 LINE",
"80 246 LINE SMOOTH",
"80 76 OFFCURVE",
"173 -10 OFFCURVE",
"339 -10 CURVE SMOOTH",
"506 -10 OFFCURVE",
"598 76 OFFCURVE",
"598 246 CURVE SMOOTH",
"598 660 LINE"
);
}
);
width = 678;
},
{
anchors = (
{
name = ogonek;
position = "{491, 10}";
},
{
name = top;
position = "{354, 660}";
}
);
layerId = "99EB5860-B45A-4B60-BB0B-F826C8F71D42";
name = Bold;
paths = (
{
closed = 1;
nodes = (
"440 660 LINE",
"440 266 LINE SMOOTH",
"440 199 OFFCURVE",
"410 165 OFFCURVE",
"354 165 CURVE SMOOTH",
"299 165 OFFCURVE",
"269 199 OFFCURVE",
"269 266 CURVE SMOOTH",
"269 660 LINE",
"35 660 LINE",
"35 284 LINE SMOOTH",
"35 87 OFFCURVE",
"141 -10 OFFCURVE",
"354 -10 CURVE SMOOTH",
"567 -10 OFFCURVE",
"673 87 OFFCURVE",
"673 284 CURVE SMOOTH",
"673 660 LINE"
);
}
);
width = 708;
},
{
anchors = (
{
name = ogonek;
position = "{425, 8}";
},
{
name = top;
position = "{329, 660}";
}
);
layerId = "1C7CD022-87C7-4E11-B656-E47B18819458";
name = Light;
paths = (
{
closed = 1;
nodes = (
"562 660 LINE",
"562 235 LINE SMOOTH",
"562 88 OFFCURVE",
"475 4 OFFCURVE",
"329 4 CURVE SMOOTH",
"183 4 OFFCURVE",
"96 88 OFFCURVE",
"96 235 CURVE SMOOTH",
"96 660 LINE",
"80 660 LINE",
"80 235 LINE SMOOTH",
"80 78 OFFCURVE",
"173 -10 OFFCURVE",
"329 -10 CURVE SMOOTH",
"485 -10 OFFCURVE",
"578 78 OFFCURVE",
"578 235 CURVE SMOOTH",
"578 660 LINE"
);
}
);
width = 658;
}
);
leftKerningGroup = U;
rightKerningGroup = U;
unicode = 0055;
},
{
color = 4;
glyphname = V;
lastChange = "2016-03-04 21:01:43 +0000";
layers = (
{
guideLines = (
{
angle = 180;
position = "{948, 202}";
}
);
layerId = "4A17B37A-CBFD-40E5-9E02-2080A0E1F76C";
name = Regular;
paths = (
{
closed = 1;
nodes = (
"524 660 LINE",
"356 203 LINE",
"314 73 LINE",
"272 204 LINE",
"104 660 LINE",
"18 660 LINE",
"269 0 LINE",
"360 0 LINE",
"610 660 LINE"
);
}
);
width = 628;
},
{
layerId = "99EB5860-B45A-4B60-BB0B-F826C8F71D42";
name = Bold;
paths = (
{
closed = 1;
nodes = (
"489 660 LINE",
"396 337 LINE",
"366 239 LINE",
"334 339 LINE",
"243 660 LINE",
"0 660 LINE",
"223 0 LINE",
"500 0 LINE",
"723 660 LINE"
);
}
);
width = 723;
},
{
layerId = "1C7CD022-87C7-4E11-B656-E47B18819458";
name = Light;
paths = (
{
closed = 1;
nodes = (
"542 660 LINE",
"315 87 LINE",
"288 18 LINE",
"261 87 LINE",
"34 660 LINE",
"17 660 LINE",
"277 0 LINE",
"299 0 LINE",
"559 660 LINE"
);
}
);
width = 576;
}
);
unicode = 0056;
},
{
color = 4;
glyphname = W;
lastChange = "2015-12-28 14:53:01 +0000";
layers = (
{
guideLines = (
{
angle = 180;
position = "{924, 202}";
}
);
layerId = "4A17B37A-CBFD-40E5-9E02-2080A0E1F76C";
name = Regular;
paths = (
{
closed = 1;
nodes = (
"470 567 LINE",
"471 567 LINE",
"505 428 LINE",
"622 0 LINE",
"721 0 LINE",
"915 660 LINE",
"834 660 LINE",
"674 81 LINE",
"518 660 LINE",
"427 660 LINE",
"271 83 LINE",
"112 660 LINE",
"26 660 LINE",
"221 0 LINE",
"320 0 LINE",
"436 428 LINE"
);
}
);
width = 941;
},
{
layerId = "99EB5860-B45A-4B60-BB0B-F826C8F71D42";
name = Bold;
paths = (
{
closed = 1;
nodes = (
"520 337 LINE",
"523 337 LINE",
"549 228 LINE",
"601 0 LINE",
"848 0 LINE",
"1026 660 LINE",
"794 660 LINE",
"729 256 LINE",
"631 660 LINE",
"411 660 LINE",
"318 253 LINE",
"251 660 LINE",
"10 660 LINE",
"187 0 LINE",
"443 0 LINE",
"494 228 LINE"
);
}
);
width = 1036;
},
{
layerId = "1C7CD022-87C7-4E11-B656-E47B18819458";
name = Light;
paths = (
{
closed = 1;
nodes = (
"454 638 LINE",
"455 638 LINE",
"496 502 LINE",
"647 0 LINE",
"668 0 LINE",
"886 660 LINE",
"869 660 LINE",
"657 16 LINE",
"465 660 LINE",
"444 660 LINE",
"252 16 LINE",
"40 660 LINE",
"23 660 LINE",
"241 0 LINE",
"262 0 LINE",
"414 502 LINE"
);
}
);
width = 909;
}
);
unicode = 0057;
},
{
color = 4;
glyphname = X;
lastChange = "2015-12-28 14:53:01 +0000";
layers = (
{
layerId = "4A17B37A-CBFD-40E5-9E02-2080A0E1F76C";
name = Regular;
paths = (
{
closed = 1;
nodes = (
"467 660 LINE",
"280 375 LINE",
"273 375 LINE",
"15 0 LINE",
"108 0 LINE",
"310 308 LINE",
"317 308 LINE",
"552 660 LINE"
);
},
{
closed = 1;
nodes = (
"35 660 LINE",
"262 312 LINE",
"270 300 LINE",
"466 0 LINE",
"559 0 LINE",
"322 366 LINE",
"313 379 LINE",
"130 660 LINE"
);
}
);
width = 581;
},
{
guideLines = (
{
angle = 90;
position = "{722, 439}";
},
{
angle = 90;
position = "{38, 379}";
}
);
layerId = "99EB5860-B45A-4B60-BB0B-F826C8F71D42";
name = Bold;
paths = (
{
closed = 1;
nodes = (
"488 660 LINE",
"309 355 LINE",
"259 373 LINE",
"20 0 LINE",
"273 0 LINE",
"433 245 LINE",
"480 253 LINE",
"732 660 LINE"
);
},
{
closed = 1;
nodes = (
"28 660 LINE",
"270 265 LINE",
"308 250 LINE",
"480 0 LINE",
"751 0 LINE",
"511 366 LINE",
"462 373 LINE",
"293 660 LINE"
);
}
);
width = 771;
},
{
layerId = "1C7CD022-87C7-4E11-B656-E47B18819458";
name = Light;
paths = (
{
closed = 1;
nodes = (
"486 660 LINE",
"267 350 LINE",
"264 346 LINE",
"20 0 LINE",
"41 0 LINE",
"275 331 LINE",
"280 338 LINE",
"508 660 LINE"
);
},
{
closed = 1;
nodes = (
"41 660 LINE",
"264 337 LINE",
"268 331 LINE",
"497 0 LINE",
"517 0 LINE",
"280 343 LINE",
"273 353 LINE",
"61 660 LINE"
);
}
);
width = 537;
}
);
unicode = 0058;
},
{
color = 4;
glyphname = Y;
lastChange = "2016-03-04 21:01:08 +0000";
layers = (
{
anchors = (
{
name = top;
position = "{276, 660}";
}
);
layerId = "4A17B37A-CBFD-40E5-9E02-2080A0E1F76C";
name = Regular;
paths = (
{
closed = 1;
nodes = (
"457 660 LINE",
"329 434 LINE",
"276 340 LINE",
"223 434 LINE",
"95 660 LINE",
"0 660 LINE",
"236 258 LINE",
"236 0 LINE",
"316 0 LINE",
"316 258 LINE",
"552 660 LINE"
);
}
);
width = 552;
},
{
anchors = (
{
name = top;
position = "{356, 660}";
}
);
layerId = "99EB5860-B45A-4B60-BB0B-F826C8F71D42";
name = Bold;
paths = (
{
closed = 1;
nodes = (
"475 660 LINE",
"405 509 LINE",
"358 404 LINE",
"311 509 LINE",
"241 660 LINE",
"9 660 LINE",
"240 229 LINE",
"240 0 LINE",
"473 0 LINE",
"473 229 LINE",
"704.006 660 LINE"
);
}
);
width = 713;
},
{
anchors = (
{
name = top;
position = "{270, 660}";
}
);
layerId = "1C7CD022-87C7-4E11-B656-E47B18819458";
name = Light;
paths = (
{
closed = 1;
nodes = (
"491 660 LINE",
"362 434 LINE",
"270 273 LINE",
"178 434 LINE",
"49 660 LINE",
"30 660 LINE",
"262 256 LINE",
"262 0 LINE",
"278 0 LINE",
"278 256 LINE",
"510 660 LINE"
);
}
);
width = 540;
}
);
leftKerningGroup = Y;
rightKerningGroup = Y;
unicode = 0059;
},
{
color = 4;
glyphname = Z;
lastChange = "2016-03-04 20:51:29 +0000";
layers = (
{
anchors = (
{
name = top;
position = "{296, 660}";
}
);
layerId = "4A17B37A-CBFD-40E5-9E02-2080A0E1F76C";
name = Regular;
paths = (
{
closed = 1;
nodes = (
"576 660 LINE",
"519 660 LINE",
"86 660 LINE",
"86 585 LINE",
"471 585 LINE",
"457 614 LINE",
"37 0 LINE",
"94 0 LINE",
"545 0 LINE",
"545 72 LINE",
"138 72 LINE",
"152 43 LINE"
);
}
);
width = 601;
},
{
anchors = (
{
name = top;
position = "{340, 660}";
}
);
layerId = "99EB5860-B45A-4B60-BB0B-F826C8F71D42";
name = Bold;
paths = (
{
closed = 1;
nodes = (
"645 660 LINE",
"487 660 LINE",
"50 660 LINE",
"50 467 LINE",
"398 467 LINE",
"358 571 LINE",
"20 0 LINE",
"179 0 LINE",
"623 0 LINE",
"623 176 LINE",
"279 176 LINE",
"320 99 LINE"
);
}
);
width = 648;
},
{
anchors = (
{
name = top;
position = "{282, 660}";
}
);
layerId = "1C7CD022-87C7-4E11-B656-E47B18819458";
name = Light;
paths = (
{
closed = 1;
nodes = (
"523 660 LINE",
"513 660 LINE",
"41 660 LINE",
"41 646 LINE",
"502 646 LINE",
"499 652 LINE",
"24 0 LINE",
"34 0 LINE",
"533 0 LINE",
"533 14 LINE",
"45 14 LINE",
"48 8 LINE"
);
}
);
width = 557;
}
);
leftKerningGroup = Z;
rightKerningGroup = Z;
unicode = 005A;
},
{
color = 4;
glyphname = uni0162;
lastChange = "2015-12-28 14:53:01 +0000";
layers = (
{
components = (
{
name = T;
}
);
layerId = "4A17B37A-CBFD-40E5-9E02-2080A0E1F76C";
name = Regular;
paths = (
{
closed = 1;
nodes = (
"310 -39 OFFCURVE",
"332 -59 OFFCURVE",
"332 -97 CURVE SMOOTH",
"332 -132 OFFCURVE",
"307 -155 OFFCURVE",
"275 -155 CURVE SMOOTH",
"247 -155 OFFCURVE",
"222 -142 OFFCURVE",
"206 -125 CURVE",
"176 -180 LINE",
"204 -205 OFFCURVE",
"239 -215 OFFCURVE",
"286 -215 CURVE SMOOTH",
"358 -215 OFFCURVE",
"403 -164 OFFCURVE",
"403 -109 CURVE SMOOTH",
"403 -65 OFFCURVE",
"382 -23 OFFCURVE",
"325 14 CURVE",
"252 0 LINE"
);
}
);
width = 584;
},
{
components = (
{
name = T;
}
);
layerId = "99EB5860-B45A-4B60-BB0B-F826C8F71D42";
leftMetricsKey = "=T";
rightMetricsKey = "=T";
name = Bold;
paths = (
{
closed = 1;
nodes = (
"344 0 OFFCURVE",
"372 -18 OFFCURVE",
"372 -51 CURVE SMOOTH",
"372 -87 OFFCURVE",
"345 -101 OFFCURVE",
"316 -101 CURVE SMOOTH",
"281 -101 OFFCURVE",
"265 -89 OFFCURVE",
"250 -70 CURVE",
"194 -170 LINE",
"218 -193 OFFCURVE",
"260 -215 OFFCURVE",
"333 -215 CURVE SMOOTH",
"421 -215 OFFCURVE",
"494 -184 OFFCURVE",
"494 -83 CURVE SMOOTH",
"494 3 OFFCURVE",
"434 46 OFFCURVE",
"308 48 CURVE",
"298 0 LINE"
);
}
);
width = 686;
},
{
components = (
{
alignment = -1;
name = T;
}
);
layerId = "1C7CD022-87C7-4E11-B656-E47B18819458";
name = Light;
paths = (
{
closed = 1;
nodes = (
"321 -36 OFFCURVE",
"348 -68 OFFCURVE",
"348 -117 CURVE SMOOTH",
"348 -160 OFFCURVE",
"319 -189 OFFCURVE",
"274 -189 CURVE SMOOTH",
"233 -189 OFFCURVE",
"211 -174 OFFCURVE",
"190 -148 CURVE",
"181 -158 LINE",
"201 -184 OFFCURVE",
"227 -202 OFFCURVE",
"274 -202 CURVE SMOOTH",
"328 -202 OFFCURVE",
"363 -168 OFFCURVE",
"363 -117 CURVE SMOOTH",
"363 -65 OFFCURVE",
"336 -32 OFFCURVE",
"279 3 CURVE",
"264 0 LINE"
);
}
);
width = 544;
}
);
leftKerningGroup = T;
leftMetricsKey = T;
rightKerningGroup = T;
rightMetricsKey = T;
unicode = 0162;
},
{
color = 4;
glyphname = E.swsh.001;
lastChange = "2015-12-28 14:53:01 +0000";
layers = (
{
anchors = (
{
name = bottom;
position = "{317, 0}";
},
{
name = ogonek;
position = "{504, 0}";
},
{
name = top;
position = "{357, 660}";
}
);
layerId = "1C7CD022-87C7-4E11-B656-E47B18819458";
name = Light;
paths = (
{
closed = 1;
nodes = (
"570 264 LINE",
"630 252 OFFCURVE",
"661 208 OFFCURVE",
"661 139 CURVE SMOOTH",
"661 49 OFFCURVE",
"604 14 OFFCURVE",
"499 14 CURVE SMOOTH",
"284 14 LINE",
"284 0 LINE",
"504 0 LINE SMOOTH",
"616 0 OFFCURVE",
"677 43 OFFCURVE",
"677 139 CURVE SMOOTH",
"677 214 OFFCURVE",
"643 260 OFFCURVE",
"581 275 CURVE"
);
},
{
closed = 1;
nodes = (
"99 0 LINE",
"115 0 LINE",
"115 660 LINE",
"99 660 LINE"
);
},
{
closed = 1;
nodes = (
"105 330 LINE",
"403 330 LINE",
"403 344 LINE",
"105 344 LINE"
);
},
{
closed = 1;
nodes = (
"105 646 LINE",
"583 646 LINE",
"583 660 LINE",
"105 660 LINE"
);
},
{
closed = 1;
nodes = (
"105 0 LINE",
"386 0 LINE",
"386 14 LINE",
"105 14 LINE"
);
}
);
width = 687;
},
{
anchors = (
{
name = bottom;
position = "{329, 0}";
},
{
name = ogonek;
position = "{498, 0}";
},
{
name = top;
position = "{355, 660}";
}
);
layerId = "4A17B37A-CBFD-40E5-9E02-2080A0E1F76C";
name = Regular;
paths = (
{
closed = 1;
nodes = (
"573 274 LINE",
"615 273 OFFCURVE",
"647 240 OFFCURVE",
"647 176 CURVE SMOOTH",
"647 104 OFFCURVE",
"599 75 OFFCURVE",
"501 75 CURVE SMOOTH",
"344 75 LINE",
"344 0 LINE",
"518 0 LINE SMOOTH",
"645 0 OFFCURVE",
"727 62 OFFCURVE",
"727 175 CURVE SMOOTH",
"727 275 OFFCURVE",
"669 335 OFFCURVE",
"604 338 CURVE"
);
},
{
closed = 1;
nodes = (
"98 0 LINE",
"178 0 LINE",
"178 660 LINE",
"98 660 LINE"
);
},
{
closed = 1;
nodes = (
"140 288 LINE",
"396 288 LINE",
"396 363 LINE",
"140 363 LINE"
);
},
{
closed = 1;
nodes = (
"140 585 LINE",
"586 585 LINE",
"586 660 LINE",
"140 660 LINE"
);
},
{
closed = 1;
nodes = (
"140 0 LINE",
"491 0 LINE",
"491 75 LINE",
"140 75 LINE"
);
}
);
width = 727;
},
{
anchors = (
{
name = bottom;
position = "{329, 0}";
},
{
name = ogonek;
position = "{630, 0}";
},
{
name = top;
position = "{313, 660}";
}
);
layerId = "99EB5860-B45A-4B60-BB0B-F826C8F71D42";
name = Bold;
paths = (
{
closed = 1;
nodes = (
"607 268 LINE",
"664 261 OFFCURVE",
"683 241 OFFCURVE",
"683 215 CURVE SMOOTH",
"683 185 OFFCURVE",
"664 171 OFFCURVE",
"620 171 CURVE SMOOTH",
"470 171 LINE",
"470 0 LINE",
"650 0 LINE SMOOTH",
"788 0 OFFCURVE",
"877 55 OFFCURVE",
"877 207 CURVE SMOOTH",
"877 305 OFFCURVE",
"821 379 OFFCURVE",
"680 402 CURVE"
);
},
{
closed = 1;
nodes = (
"50 0 LINE",
"283 0 LINE",
"283 660 LINE",
"50 660 LINE"
);
},
{
closed = 1;
nodes = (
"162 249 LINE",
"477 249 LINE",
"477 407 LINE",
"162 407 LINE"
);
},
{
closed = 1;
nodes = (
"162 489 LINE",
"640 489 LINE",
"640 660 LINE",
"162 660 LINE"
);
},
{
closed = 1;
nodes = (
"162 0 LINE",
"568 0 LINE",
"568 171 LINE",
"162 171 LINE"
);
}
);
width = 887;
}
);
leftKerningGroup = I;
leftMetricsKey = I;
rightMetricsKey = "=|F.swsh";
userData = {
com.typemytype.robofont.layerData = {
background = {
anchors = (
);
components = (
{
baseGlyph = E;
transformation = (
1,
0,
0,
1,
0,
0
);
}
);
contours = (
);
lib = {
};
name = E.swsh_f;
unicodes = (
);
width = 583;
};
};
};
},
{
color = 4;
glyphname = M.swsh.001;
lastChange = "2015-12-28 14:53:01 +0000";
layers = (
{
components = (
{
alignment = -1;
name = M;
transform = "{1, 0, 0, 1, 214, 0}";
}
);
layerId = "1C7CD022-87C7-4E11-B656-E47B18819458";
name = Light;
paths = (
{
closed = 1;
nodes = (
"143 361 LINE",
"71 377 OFFCURVE",
"26 424 OFFCURVE",
"26 502 CURVE SMOOTH",
"26 602 OFFCURVE",
"83 646 OFFCURVE",
"188 646 CURVE SMOOTH",
"323 646 LINE",
"323 660 LINE",
"183 660 LINE SMOOTH",
"71 660 OFFCURVE",
"10 608 OFFCURVE",
"10 502 CURVE SMOOTH",
"10 416 OFFCURVE",
"59 366 OFFCURVE",
"132 350 CURVE"
);
}
);
width = 1000;
},
{
components = (
{
name = M;
transform = "{1, 0, 0, 1, 219, 0}";
}
);
layerId = "4A17B37A-CBFD-40E5-9E02-2080A0E1F76C";
name = Regular;
paths = (
{
closed = 1;
nodes = (
"190 366 LINE",
"126 377 OFFCURVE",
"80 419 OFFCURVE",
"80 480 CURVE SMOOTH",
"80 558 OFFCURVE",
"138 595 OFFCURVE",
"226 595 CURVE SMOOTH",
"423 595 LINE",
"423 660 LINE",
"209 660 LINE SMOOTH",
"82 660 OFFCURVE",
"0 593 OFFCURVE",
"0 481 CURVE SMOOTH",
"0 382 OFFCURVE",
"74 315 OFFCURVE",
"159 302 CURVE"
);
}
);
width = 1053;
},
{
components = (
{
name = M;
transform = "{1, 0, 0, 1, 267, 0}";
}
);
layerId = "99EB5860-B45A-4B60-BB0B-F826C8F71D42";
name = Bold;
paths = (
{
closed = 1;
nodes = (
"290 362 LINE",
"240 365 OFFCURVE",
"214 396 OFFCURVE",
"214 432 CURVE SMOOTH",
"214 464 OFFCURVE",
"230 494 OFFCURVE",
"277 494 CURVE SMOOTH",
"527 494 LINE",
"527 660 LINE",
"277 660 LINE SMOOTH",
"99 660 OFFCURVE",
"10 578 OFFCURVE",
"10 436 CURVE SMOOTH",
"10 299 OFFCURVE",
"97 216 OFFCURVE",
"227 212 CURVE"
);
}
);
width = 1215;
}
);
leftMetricsKey = F.swsh;
rightKerningGroup = I;
rightMetricsKey = I;
userData = {
com.typemytype.robofont.layerData = {
background = {
anchors = (
);
components = (
{
baseGlyph = M;
transformation = (
1,
0,
0,
1,
0,
0
);
}
);
contours = (
);
lib = {
};
name = M.swsh_i;
unicodes = (
);
width = 786;
};
};
};
},
{
color = 4;
glyphname = R.swsh.001;
lastChange = "2015-12-28 14:53:01 +0000";
layers = (
{
anchors = (
{
name = bottom;
position = "{346, 0}";
},
{
name = top;
position = "{293, 660}";
}
);
layerId = "1C7CD022-87C7-4E11-B656-E47B18819458";
name = Light;
paths = (
{
closed = 1;
nodes = (
"664 -92 LINE",
"619 -82 OFFCURVE",
"587 -51 OFFCURVE",
"568 -24 CURVE SMOOTH",
"372 264 LINE",
"359 256 LINE",
"552 -29 LINE SMOOTH",
"572 -58 OFFCURVE",
"604 -91 OFFCURVE",
"657 -104 CURVE"
);
},
{
closed = 1;
nodes = (
"107 660 LINE",
"107 646 LINE",
"338 646 LINE SMOOTH",
"459 646 OFFCURVE",
"538 565 OFFCURVE",
"538 461 CURVE SMOOTH",
"538 357 OFFCURVE",
"459 264 OFFCURVE",
"338 264 CURVE SMOOTH",
"107 264 LINE",
"107 250 LINE",
"338 250 LINE SMOOTH",
"467 250 OFFCURVE",
"554 349 OFFCURVE",
"554 461 CURVE SMOOTH",
"554 573 OFFCURVE",
"467 660 OFFCURVE",
"338 660 CURVE SMOOTH"
);
},
{
closed = 1;
nodes = (
"99 660 LINE",
"99 0 LINE",
"115 0 LINE",
"115 660 LINE"
);
}
);
width = 664;
},
{
anchors = (
{
name = bottom;
position = "{355, 0}";
},
{
name = top;
position = "{312, 660}";
}
);
layerId = "4A17B37A-CBFD-40E5-9E02-2080A0E1F76C";
name = Regular;
paths = (
{
closed = 1;
nodes = (
"675 -31 LINE",
"626 -14 OFFCURVE",
"555 48 OFFCURVE",
"525 90 CURVE SMOOTH",
"394 271 LINE SMOOTH",
"337 227 LINE",
"449 68 LINE SMOOTH",
"488 12 OFFCURVE",
"518 -29 OFFCURVE",
"632 -86 CURVE"
);
},
{
closed = 1;
nodes = (
"138 660 LINE",
"138 585 LINE",
"347 585 LINE SMOOTH",
"441 585 OFFCURVE",
"501 521 OFFCURVE",
"501 442 CURVE SMOOTH",
"501 363 OFFCURVE",
"441 294 OFFCURVE",
"347 294 CURVE SMOOTH",
"138 294 LINE",
"138 219 LINE",
"348 219 LINE SMOOTH",
"482 219 OFFCURVE",
"585 323 OFFCURVE",
"585 442 CURVE SMOOTH",
"585 561 OFFCURVE",
"482 660 OFFCURVE",
"348 660 CURVE SMOOTH"
);
},
{
closed = 1;
nodes = (
"98 660 LINE",
"98 0 LINE",
"178 0 LINE",
"178 660 LINE"
);
}
);
width = 665;
},
{
anchors = (
{
name = bottom;
position = "{362, 0}";
},
{
name = top;
position = "{334, 660}";
}
);
layerId = "99EB5860-B45A-4B60-BB0B-F826C8F71D42";
name = Bold;
paths = (
{
closed = 1;
nodes = (
"781 24 LINE",
"722 31 OFFCURVE",
"677 62 OFFCURVE",
"620 136 CURVE SMOOTH",
"512 277 LINE",
"313 243 LINE",
"481 -4 LINE SMOOTH",
"518 -58 OFFCURVE",
"576 -102 OFFCURVE",
"653 -102 CURVE"
);
},
{
closed = 1;
nodes = (
"208 660 LINE",
"208 494 LINE",
"361 494 LINE SMOOTH",
"420 494 OFFCURVE",
"451 450 OFFCURVE",
"451 406 CURVE SMOOTH",
"451 361 OFFCURVE",
"420 317 OFFCURVE",
"361 317 CURVE SMOOTH",
"208 317 LINE",
"208 164 LINE",
"408 164 LINE SMOOTH",
"584 164 OFFCURVE",
"684 266 OFFCURVE",
"684 412 CURVE SMOOTH",
"684 559 OFFCURVE",
"584 660 OFFCURVE",
"408 660 CURVE SMOOTH"
);
},
{
closed = 1;
nodes = (
"50 660 LINE",
"50 0 LINE",
"278 0 LINE",
"278 660 LINE"
);
}
);
width = 781;
}
);
leftKerningGroup = I;
leftMetricsKey = I;
userData = {
com.typemytype.robofont.layerData = {
background = {
anchors = (
);
components = (
{
baseGlyph = R;
transformation = (
1,
0,
0,
1,
0,
0
);
}
);
contours = (
);
lib = {
};
name = R.swsh_f;
unicodes = (
);
width = 611;
};
};
};
},
{
color = 4;
glyphname = Adieresis.titl.001;
lastChange = "2015-12-28 14:53:01 +0000";
layers = (
{
layerId = "1C7CD022-87C7-4E11-B656-E47B18819458";
name = Light;
paths = (
{
closed = 1;
nodes = (
"29 0 LINE",
"276 597 LINE",
"293 642 LINE",
"293 642 LINE",
"310 596 LINE",
"557 0 LINE",
"574 0 LINE",
"302 660 LINE",
"284 660 LINE",
"12 0 LINE"
);
},
{
closed = 1;
nodes = (
"201 618 OFFCURVE",
"205 619 OFFCURVE",
"208 620 CURVE",
"219 642 LINE",
"218 654 OFFCURVE",
"209 662 OFFCURVE",
"197 662 CURVE SMOOTH",
"184 662 OFFCURVE",
"175 653 OFFCURVE",
"175 640 CURVE SMOOTH",
"175 627 OFFCURVE",
"184 618 OFFCURVE",
"197 618 CURVE SMOOTH"
);
},
{
closed = 1;
nodes = (
"400 618 OFFCURVE",
"409 627 OFFCURVE",
"409 640 CURVE SMOOTH",
"409 653 OFFCURVE",
"400 662 OFFCURVE",
"387 662 CURVE SMOOTH",
"375 662 OFFCURVE",
"366 654 OFFCURVE",
"365 642 CURVE",
"376 620 LINE",
"379 619 OFFCURVE",
"383 618 OFFCURVE",
"387 618 CURVE SMOOTH"
);
},
{
closed = 1;
nodes = (
"504 138 LINE",
"504 152 LINE",
"81 152 LINE",
"81 138 LINE"
);
}
);
width = 586;
},
{
layerId = "4A17B37A-CBFD-40E5-9E02-2080A0E1F76C";
name = Regular;
paths = (
{
closed = 1;
nodes = (
"100 0 LINE",
"289 495 LINE",
"318 584 LINE",
"320 584 LINE",
"351 492 LINE",
"539 0 LINE",
"624 0 LINE",
"368 660 LINE",
"273 660 LINE",
"16 0 LINE"
);
},
{
closed = 1;
nodes = (
"190 553 OFFCURVE",
"197 554 OFFCURVE",
"203 556 CURVE",
"234 631 LINE",
"226 650 OFFCURVE",
"207 662 OFFCURVE",
"183 662 CURVE SMOOTH",
"151 662 OFFCURVE",
"129 640 OFFCURVE",
"129 608 CURVE SMOOTH",
"129 575 OFFCURVE",
"151 553 OFFCURVE",
"183 553 CURVE SMOOTH"
);
},
{
closed = 1;
nodes = (
"490 553 OFFCURVE",
"512 575 OFFCURVE",
"512 608 CURVE SMOOTH",
"512 640 OFFCURVE",
"490 662 OFFCURVE",
"458 662 CURVE SMOOTH",
"434 662 OFFCURVE",
"415 650 OFFCURVE",
"407 631 CURVE",
"438 556 LINE",
"444 554 OFFCURVE",
"451 553 OFFCURVE",
"458 553 CURVE SMOOTH"
);
},
{
closed = 1;
nodes = (
"519 125 LINE",
"519 200 LINE",
"120 200 LINE",
"120 125 LINE"
);
}
);
width = 640;
},
{
layerId = "99EB5860-B45A-4B60-BB0B-F826C8F71D42";
name = Bold;
paths = (
{
closed = 1;
nodes = (
"222 0 LINE",
"315 379 LINE",
"341 491 LINE",
"344 491 LINE",
"371 379 LINE",
"461 0 LINE",
"699 0 LINE",
"484 660 LINE",
"204 660 LINE",
"-10 0 LINE"
);
},
{
closed = 1;
nodes = (
"127 502 OFFCURVE",
"129 502 OFFCURVE",
"130 502 CURVE",
"177 651 LINE",
"163 658 OFFCURVE",
"145 662 OFFCURVE",
"124 662 CURVE SMOOTH",
"65 662 OFFCURVE",
"32 633 OFFCURVE",
"32 582 CURVE SMOOTH",
"32 531 OFFCURVE",
"65 502 OFFCURVE",
"124 502 CURVE SMOOTH"
);
},
{
closed = 1;
nodes = (
"623 502 OFFCURVE",
"656 531 OFFCURVE",
"656 582 CURVE SMOOTH",
"656 633 OFFCURVE",
"623 662 OFFCURVE",
"564 662 CURVE SMOOTH",
"543 662 OFFCURVE",
"525 658 OFFCURVE",
"511 651 CURVE",
"558 502 LINE",
"559 502 OFFCURVE",
"561 502 OFFCURVE",
"564 502 CURVE SMOOTH"
);
},
{
closed = 1;
nodes = (
"534 76 LINE",
"534 221 LINE",
"157 221 LINE",
"157 76 LINE"
);
}
);
width = 689;
}
);
leftKerningGroup = A;
rightKerningGroup = A;
},
{
color = 4;
glyphname = Odieresis.titl.001;
lastChange = "2015-12-28 14:53:01 +0000";
layers = (
{
anchors = (
{
name = top;
position = "{394, 660}";
}
);
layerId = "1C7CD022-87C7-4E11-B656-E47B18819458";
name = Light;
paths = (
{
closed = 1;
nodes = (
"569 639 OFFCURVE",
"570 643 OFFCURVE",
"570 648 CURVE SMOOTH",
"570 661 OFFCURVE",
"561 670 OFFCURVE",
"548 670 CURVE SMOOTH",
"537 670 OFFCURVE",
"530 664 OFFCURVE",
"527 655 CURVE",
"541 650 OFFCURVE",
"554 643 OFFCURVE",
"567 636 CURVE"
);
},
{
closed = 1;
nodes = (
"267 664 OFFCURVE",
"260 670 OFFCURVE",
"249 670 CURVE SMOOTH",
"236 670 OFFCURVE",
"227 661 OFFCURVE",
"227 648 CURVE SMOOTH",
"227 643 OFFCURVE",
"228 639 OFFCURVE",
"230 636 CURVE",
"243 643 OFFCURVE",
"256 650 OFFCURVE",
"270 655 CURVE"
);
},
{
closed = 1;
nodes = (
"56 142 OFFCURVE",
"208 -10 OFFCURVE",
"396 -10 CURVE",
"584 -10 OFFCURVE",
"736 142 OFFCURVE",
"736 330 CURVE",
"736 518 OFFCURVE",
"584 670 OFFCURVE",
"396 670 CURVE",
"208 670 OFFCURVE",
"56 518 OFFCURVE",
"56 330 CURVE"
);
},
{
closed = 1;
nodes = (
"70 510 OFFCURVE",
"216 656 OFFCURVE",
"396 656 CURVE",
"576 656 OFFCURVE",
"722 510 OFFCURVE",
"722 330 CURVE",
"722 150 OFFCURVE",
"576 4 OFFCURVE",
"396 4 CURVE",
"216 4 OFFCURVE",
"70 150 OFFCURVE",
"70 330 CURVE"
);
}
);
width = 792;
},
{
anchors = (
{
name = top;
position = "{400, 660}";
}
);
layerId = "4A17B37A-CBFD-40E5-9E02-2080A0E1F76C";
name = Regular;
paths = (
{
closed = 1;
nodes = (
"687 575 OFFCURVE",
"698 593 OFFCURVE",
"698 616 CURVE SMOOTH",
"698 648 OFFCURVE",
"676 670 OFFCURVE",
"644 670 CURVE SMOOTH",
"620 670 OFFCURVE",
"601 658 OFFCURVE",
"593 639 CURVE",
"625 618 OFFCURVE",
"644 598 OFFCURVE",
"669 566 CURVE"
);
},
{
closed = 1;
nodes = (
"184 658 OFFCURVE",
"165 670 OFFCURVE",
"141 670 CURVE SMOOTH",
"109 670 OFFCURVE",
"87 648 OFFCURVE",
"87 616 CURVE SMOOTH",
"87 593 OFFCURVE",
"98 575 OFFCURVE",
"116 566 CURVE",
"139 596 OFFCURVE",
"158 617 OFFCURVE",
"192 639 CURVE"
);
},
{
closed = 1;
nodes = (
"58 143 OFFCURVE",
"212 -10 OFFCURVE",
"399 -10 CURVE",
"586 -10 OFFCURVE",
"740 143 OFFCURVE",
"740 331 CURVE",
"740 517 OFFCURVE",
"586 670 OFFCURVE",
"399 670 CURVE",
"212 670 OFFCURVE",
"58 517 OFFCURVE",
"58 331 CURVE"
);
},
{
closed = 1;
nodes = (
"140 473 OFFCURVE",
"257 590 OFFCURVE",
"399 590 CURVE",
"541 590 OFFCURVE",
"658 473 OFFCURVE",
"658 330 CURVE",
"658 188 OFFCURVE",
"541 71 OFFCURVE",
"399 71 CURVE",
"257 71 OFFCURVE",
"140 188 OFFCURVE",
"140 330 CURVE"
);
}
);
width = 798;
},
{
anchors = (
{
name = top;
position = "{368, 660}";
}
);
layerId = "99EB5860-B45A-4B60-BB0B-F826C8F71D42";
name = Bold;
paths = (
{
closed = 1;
nodes = (
"679 555 OFFCURVE",
"688 574 OFFCURVE",
"688 598 CURVE SMOOTH",
"688 643 OFFCURVE",
"657 670 OFFCURVE",
"603 670 CURVE SMOOTH",
"577 670 OFFCURVE",
"557 663 OFFCURVE",
"543 650 CURVE",
"588 627 OFFCURVE",
"636 588 OFFCURVE",
"663 542 CURVE"
);
},
{
closed = 1;
nodes = (
"173 663 OFFCURVE",
"152 670 OFFCURVE",
"125 670 CURVE SMOOTH",
"75 670 OFFCURVE",
"45 643 OFFCURVE",
"45 597 CURVE SMOOTH",
"45 575 OFFCURVE",
"53 557 OFFCURVE",
"68 544 CURVE",
"95 588 OFFCURVE",
"139 626 OFFCURVE",
"187 650 CURVE"
);
},
{
closed = 1;
nodes = (
"29 142 OFFCURVE",
"181 -10 OFFCURVE",
"369 -10 CURVE",
"557 -10 OFFCURVE",
"709 142 OFFCURVE",
"709 330 CURVE",
"709 518 OFFCURVE",
"557 670 OFFCURVE",
"369 670 CURVE",
"181 670 OFFCURVE",
"29 518 OFFCURVE",
"29 330 CURVE"
);
},
{
closed = 1;
nodes = (
"205 421 OFFCURVE",
"278 495 OFFCURVE",
"369 495 CURVE",
"461 495 OFFCURVE",
"535 421 OFFCURVE",
"535 330 CURVE",
"535 239 OFFCURVE",
"461 165 OFFCURVE",
"369 165 CURVE",
"278 165 OFFCURVE",
"205 239 OFFCURVE",
"205 330 CURVE"
);
}
);
width = 738;
}
);
leftKerningGroup = O;
rightKerningGroup = O;
},
{
color = 4;
glyphname = R.ss03;
lastChange = "2015-12-28 14:53:01 +0000";
layers = (
{
anchors = (
{
name = bottom;
position = "{346, 0}";
},
{
name = top;
position = "{293, 660}";
}
);
layerId = "1C7CD022-87C7-4E11-B656-E47B18819458";
name = Light;
paths = (
{
closed = 1;
nodes = (
"107 660 LINE",
"107 646 LINE",
"338 646 LINE SMOOTH",
"459 646 OFFCURVE",
"538 565 OFFCURVE",
"538 461 CURVE SMOOTH",
"538 357 OFFCURVE",
"459 264 OFFCURVE",
"338 264 CURVE SMOOTH",
"107 264 LINE",
"107 250 LINE",
"338 250 LINE SMOOTH",
"467 250 OFFCURVE",
"554 349 OFFCURVE",
"554 461 CURVE SMOOTH",
"554 573 OFFCURVE",
"467 660 OFFCURVE",
"338 660 CURVE SMOOTH"
);
},
{
closed = 1;
nodes = (
"99 660 LINE",
"99 0 LINE",
"115 0 LINE",
"115 660 LINE"
);
},
{
closed = 1;
nodes = (
"385 260 LINE",
"558 0 LINE",
"576 0 LINE",
"398 270 LINE"
);
}
);
width = 612;
},
{
anchors = (
{
name = bottom;
position = "{355, 0}";
},
{
name = top;
position = "{312, 660}";
}
);
layerId = "4A17B37A-CBFD-40E5-9E02-2080A0E1F76C";
name = Regular;
paths = (
{
closed = 1;
nodes = (
"138 660 LINE",
"138 585 LINE",
"347 585 LINE SMOOTH",
"441 585 OFFCURVE",
"501 521 OFFCURVE",
"501 442 CURVE SMOOTH",
"501 363 OFFCURVE",
"441 294 OFFCURVE",
"347 294 CURVE SMOOTH",
"138 294 LINE",
"138 219 LINE",
"348 219 LINE SMOOTH",
"482 219 OFFCURVE",
"585 323 OFFCURVE",
"585 442 CURVE SMOOTH",
"585 561 OFFCURVE",
"482 660 OFFCURVE",
"348 660 CURVE SMOOTH"
);
},
{
closed = 1;
nodes = (
"98 660 LINE",
"98 0 LINE",
"178 0 LINE",
"178 660 LINE"
);
},
{
closed = 1;
nodes = (
"357 242 LINE",
"516 0 LINE",
"611 0 LINE",
"424 286 LINE"
);
}
);
width = 635;
},
{
anchors = (
{
name = bottom;
position = "{362, 0}";
},
{
name = top;
position = "{334, 660}";
}
);
layerId = "99EB5860-B45A-4B60-BB0B-F826C8F71D42";
name = Bold;
paths = (
{
closed = 1;
nodes = (
"208 660 LINE",
"208 494 LINE",
"361 494 LINE SMOOTH",
"420 494 OFFCURVE",
"451 450 OFFCURVE",
"451 406 CURVE SMOOTH",
"451 361 OFFCURVE",
"420 317 OFFCURVE",
"361 317 CURVE SMOOTH",
"208 317 LINE",
"208 164 LINE",
"408 164 LINE SMOOTH",
"584 164 OFFCURVE",
"684 266 OFFCURVE",
"684 412 CURVE SMOOTH",
"684 559 OFFCURVE",
"584 660 OFFCURVE",
"408 660 CURVE SMOOTH"
);
},
{
closed = 1;
nodes = (
"50 660 LINE",
"50 0 LINE",
"278 0 LINE",
"278 660 LINE"
);
},
{
closed = 1;
nodes = (
"351 226 LINE",
"459 0 LINE",
"712 0 LINE",
"552 260 LINE"
);
}
);
width = 705;
}
);
leftKerningGroup = I;
rightKerningGroup = R;
userData = {
com.typemytype.robofont.layerData = {
background = {
anchors = (
);
components = (
{
baseGlyph = R;
transformation = (
1,
0,
0,
1,
"-600",
0
);
}
);
contours = (
{
points = (
{
segmentType = line;
smooth = 0;
x = 114;
y = 300;
},
{
segmentType = line;
smooth = 1;
x = 356;
y = 300;
},
{
smooth = 0;
x = 464;
y = 300;
},
{
smooth = 0;
x = 515;
y = 245;
},
{
segmentType = curve;
smooth = 1;
x = 518;
y = 157;
},
{
smooth = 0;
x = 521;
y = 25;
},
{
smooth = 0;
x = 536;
y = 6;
},
{
segmentType = curve;
smooth = 0;
x = 542;
y = 0;
},
{
segmentType = line;
smooth = 0;
x = 558;
y = 0;
},
{
segmentType = line;
smooth = 0;
x = 558;
y = 2;
},
{
smooth = 0;
x = 550;
y = 10;
},
{
smooth = 0;
x = 535;
y = 22;
},
{
segmentType = curve;
smooth = 1;
x = 531;
y = 160;
},
{
smooth = 0;
x = 529;
y = 243;
},
{
smooth = 0;
x = 483;
y = 294;
},
{
segmentType = curve;
smooth = 0;
x = 401;
y = 308;
},
{
smooth = 0;
x = 495;
y = 325;
},
{
smooth = 0;
x = 545;
y = 391;
},
{
segmentType = curve;
smooth = 1;
x = 545;
y = 484;
},
{
smooth = 0;
x = 545;
y = 598;
},
{
smooth = 0;
x = 457;
y = 660;
},
{
segmentType = curve;
smooth = 1;
x = 336;
y = 660;
},
{
segmentType = line;
smooth = 0;
x = 100;
y = 660;
},
{
segmentType = line;
smooth = 0;
x = 100;
y = 0;
},
{
segmentType = line;
smooth = 0;
x = 114;
y = 0;
}
);
},
{
points = (
{
segmentType = line;
smooth = 0;
x = 114;
y = 647;
},
{
segmentType = line;
smooth = 1;
x = 336;
y = 647;
},
{
smooth = 0;
x = 450;
y = 647;
},
{
smooth = 0;
x = 531;
y = 588;
},
{
segmentType = curve;
smooth = 1;
x = 531;
y = 484;
},
{
smooth = 0;
x = 531;
y = 375;
},
{
smooth = 0;
x = 462;
y = 313;
},
{
segmentType = curve;
smooth = 1;
x = 330;
y = 313;
},
{
segmentType = line;
smooth = 0;
x = 114;
y = 313;
}
);
}
);
lib = {
};
name = R.alt;
unicodes = (
);
width = 612;
};
};
};
},
{
color = 4;
glyphname = G.ss04;
lastChange = "2015-12-28 15:06:22 +0000";
layers = (
{
anchors = (
{
name = bottom;
position = "{390, 4}";
},
{
name = top;
position = "{390, 670}";
}
);
layerId = "1C7CD022-87C7-4E11-B656-E47B18819458";
name = Light;
paths = (
{
closed = 1;
nodes = (
"50 142 OFFCURVE",
"202 -10 OFFCURVE",
"390 -10 CURVE",
"547 -10 OFFCURVE",
"680 97 OFFCURVE",
"718 243 CURVE",
"704 243 LINE",
"666 105 OFFCURVE",
"539 4 OFFCURVE",
"390 4 CURVE",
"210 4 OFFCURVE",
"64 150 OFFCURVE",
"64 330 CURVE",
"64 510 OFFCURVE",
"210 656 OFFCURVE",
"390 656 CURVE",
"507 656 OFFCURVE",
"610 594 OFFCURVE",
"668 500 CURVE",
"680 506 LINE",
"621 608 OFFCURVE",
"516 670 OFFCURVE",
"390 670 CURVE",
"202 670 OFFCURVE",
"50 518 OFFCURVE",
"50 330 CURVE"
);
},
{
closed = 1;
nodes = (
"466 230 LINE",
"712 230 LINE",
"719 243 LINE",
"719 243 LINE",
"466 243 LINE"
);
}
);
width = 786;
},
{
anchors = (
{
name = bottom;
position = "{395, 7}";
},
{
name = top;
position = "{363, 660}";
}
);
layerId = "4A17B37A-CBFD-40E5-9E02-2080A0E1F76C";
name = Regular;
paths = (
{
closed = 1;
nodes = (
"35 140 OFFCURVE",
"191 -15 OFFCURVE",
"381 -15 CURVE",
"562.3 -15 OFFCURVE",
"713 126 OFFCURVE",
"726 305 CURVE",
"644 305 LINE",
"631 172 OFFCURVE",
"518 64 OFFCURVE",
"381 64 CURVE",
"236 64 OFFCURVE",
"118 185 OFFCURVE",
"118 330 CURVE",
"118 476 OFFCURVE",
"236 596 OFFCURVE",
"381 596 CURVE",
"466 596 OFFCURVE",
"542.886 553.664 OFFCURVE",
"591.243 489.828 CURVE",
"655.947 539.016 LINE",
"592.533 621.491 OFFCURVE",
"492.635 675 OFFCURVE",
"381 675 CURVE",
"191 675 OFFCURVE",
"35 520 OFFCURVE",
"35 331 CURVE"
);
},
{
closed = 1;
nodes = (
"423 222 LINE",
"676 222 LINE",
"726 305 LINE",
"726 305 LINE",
"423 305 LINE"
);
}
);
width = 756;
},
{
anchors = (
{
name = bottom;
position = "{379, 0}";
},
{
name = top;
position = "{364, 660}";
}
);
layerId = "99EB5860-B45A-4B60-BB0B-F826C8F71D42";
name = Bold;
paths = (
{
closed = 1;
nodes = (
"17 135 OFFCURVE",
"174 -22 OFFCURVE",
"369 -22 CURVE",
"564 -22 OFFCURVE",
"722 135 OFFCURVE",
"722 330 CURVE",
"505 330 LINE",
"505 257 OFFCURVE",
"445 195 OFFCURVE",
"369 195 CURVE",
"295 195 OFFCURVE",
"235 257 OFFCURVE",
"235 330 CURVE",
"235 405 OFFCURVE",
"295 465 OFFCURVE",
"369 465 CURVE",
"404.604 465 OFFCURVE",
"436.696 451.832 OFFCURVE",
"460.754 430.123 CURVE",
"640.768 555.33 LINE",
"576.025 633.335 OFFCURVE",
"478.328 683 OFFCURVE",
"369 683 CURVE",
"174 683 OFFCURVE",
"17 525 OFFCURVE",
"17 330 CURVE"
);
},
{
closed = 1;
nodes = (
"394 234 LINE",
"665 234 LINE",
"722 330 LINE",
"722 391 LINE",
"394 391 LINE"
);
}
);
width = 735;
}
);
leftKerningGroup = O;
leftMetricsKey = O;
rightKerningGroup = G;
userData = {
com.typemytype.robofont.layerData = {
background = {
anchors = (
);
components = (
);
contours = (
{
points = (
{
smooth = 0;
x = 152;
y = 670;
},
{
smooth = 0;
x = 36;
y = 539;
},
{
segmentType = curve;
smooth = 1;
x = 36;
y = 330;
},
{
smooth = 0;
x = 36;
y = 121;
},
{
smooth = 0;
x = 152;
y = "-10";
},
{
segmentType = curve;
smooth = 1;
x = 337;
y = "-10";
},
{
smooth = 0;
x = 522;
y = "-10";
},
{
smooth = 0;
x = 638;
y = 121;
},
{
segmentType = curve;
smooth = 1;
x = 638;
y = 330;
},
{
smooth = 0;
x = 638;
y = 539;
},
{
smooth = 0;
x = 522;
y = 670;
},
{
segmentType = curve;
smooth = 1;
x = 337;
y = 670;
}
);
},
{
points = (
{
smooth = 0;
x = 512;
y = 656;
},
{
smooth = 0;
x = 622;
y = 530;
},
{
segmentType = curve;
smooth = 1;
x = 622;
y = 330;
},
{
smooth = 0;
x = 622;
y = 130;
},
{
smooth = 0;
x = 512;
y = 4;
},
{
segmentType = curve;
smooth = 1;
x = 337;
y = 4;
},
{
smooth = 0;
x = 162;
y = 4;
},
{
smooth = 0;
x = 52;
y = 130;
},
{
segmentType = curve;
smooth = 1;
x = 52;
y = 330;
},
{
smooth = 0;
x = 52;
y = 530;
},
{
smooth = 0;
x = 162;
y = 656;
},
{
segmentType = curve;
smooth = 1;
x = 337;
y = 656;
}
);
}
);
lib = {
};
name = G.alt;
unicodes = (
);
width = 684;
};
};
};
},
{
color = 4;
glyphname = IJ.ss05;
lastChange = "2015-12-28 14:53:01 +0000";
layers = (
{
layerId = "1C7CD022-87C7-4E11-B656-E47B18819458";
name = Light;
paths = (
{
closed = 1;
nodes = (
"99 660 LINE",
"99 262 LINE",
"115 262 LINE",
"115 660 LINE"
);
},
{
closed = 1;
nodes = (
"462 660 LINE",
"462 209 LINE SMOOTH",
"462 84 OFFCURVE",
"400 4 OFFCURVE",
"282 4 CURVE SMOOTH",
"162 4 OFFCURVE",
"111 61 OFFCURVE",
"111 163 CURVE",
"95 163 LINE",
"95 49 OFFCURVE",
"150 -10 OFFCURVE",
"282 -10 CURVE SMOOTH",
"410 -10 OFFCURVE",
"478 75 OFFCURVE",
"478 209 CURVE SMOOTH",
"478 660 LINE"
);
}
);
width = 570;
},
{
layerId = "4A17B37A-CBFD-40E5-9E02-2080A0E1F76C";
name = Regular;
paths = (
{
closed = 1;
nodes = (
"98 660 LINE",
"98 287 LINE",
"178 287 LINE",
"178 660 LINE"
);
},
{
closed = 1;
nodes = (
"442 660 LINE",
"442 246 LINE SMOOTH",
"442 127 OFFCURVE",
"390 65 OFFCURVE",
"303 65 CURVE SMOOTH",
"216 65 OFFCURVE",
"164 105 OFFCURVE",
"179 191 CURVE",
"102 191 LINE",
"87 63 OFFCURVE",
"160 -10 OFFCURVE",
"303 -10 CURVE SMOOTH",
"436 -10 OFFCURVE",
"522 78 OFFCURVE",
"522 226 CURVE SMOOTH",
"522 660 LINE"
);
}
);
width = 613;
},
{
layerId = "99EB5860-B45A-4B60-BB0B-F826C8F71D42";
name = Bold;
paths = (
{
closed = 1;
nodes = (
"50 660 LINE",
"50 292 LINE",
"283 292 LINE",
"283 660 LINE"
);
},
{
closed = 1;
nodes = (
"414 660 LINE",
"414 265 LINE SMOOTH",
"414 193 OFFCURVE",
"394 165 OFFCURVE",
"348 165 CURVE SMOOTH",
"297 165 OFFCURVE",
"278 191 OFFCURVE",
"284 248 CURVE",
"50 248 LINE",
"29 75 OFFCURVE",
"144 -10 OFFCURVE",
"341 -10 CURVE SMOOTH",
"531 -10 OFFCURVE",
"647 95 OFFCURVE",
"647 272 CURVE SMOOTH",
"647 660 LINE"
);
}
);
width = 682;
}
);
leftKerningGroup = I;
rightKerningGroup = I;
rightMetricsKey = J;
},
{
color = 4;
glyphname = A.swsh;
lastChange = "2015-12-28 14:53:01 +0000";
layers = (
{
anchors = (
{
name = ogonek;
position = "{862, 0}";
},
{
name = top;
position = "{581, 660}";
}
);
components = (
{
name = __swash_topleft;
transform = "{1, 0, 0, 1, 120, 0}";
}
);
layerId = "1C7CD022-87C7-4E11-B656-E47B18819458";
name = Light;
paths = (
{
closed = 1;
nodes = (
"248 -110 OFFCURVE",
"287 -73 OFFCURVE",
"326 20 CURVE SMOOTH",
"564 597 LINE",
"581 642 LINE",
"581 642 LINE",
"598 596 LINE",
"845 0 LINE",
"862 0 LINE",
"590 660 LINE",
"572 660 LINE",
"315 36 LINE SMOOTH",
"272 -68 OFFCURVE",
"239 -96 OFFCURVE",
"163 -96 CURVE SMOOTH",
"79 -96 OFFCURVE",
"24 -62 OFFCURVE",
"24 39 CURVE",
"10 32 LINE",
"10 -72 OFFCURVE",
"74 -110 OFFCURVE",
"165 -110 CURVE SMOOTH"
);
},
{
closed = 1;
nodes = (
"783 152 LINE",
"783 166 LINE",
"377 166 LINE",
"377 152 LINE"
);
}
);
width = 874;
},
{
anchors = (
{
name = ogonek;
position = "{834, 0}";
},
{
name = top;
position = "{530, 660}";
}
);
components = (
{
name = __swash_topleft;
transform = "{1, 0, 0, 1, 10, 0}";
}
);
layerId = "4A17B37A-CBFD-40E5-9E02-2080A0E1F76C";
name = Regular;
paths = (
{
closed = 1;
nodes = (
"230 -110 OFFCURVE",
"289 -58 OFFCURVE",
"326 42 CURVE SMOOTH",
"499 495 LINE",
"528 584 LINE",
"530 584 LINE",
"561 492 LINE",
"749 0 LINE",
"834 0 LINE",
"578 660 LINE",
"483 660 LINE",
"263 95 LINE SMOOTH",
"221 -12 OFFCURVE",
"195 -40 OFFCURVE",
"127 -40 CURVE SMOOTH",
"62 -40 OFFCURVE",
"25 -21 OFFCURVE",
"13 65 CURVE",
"-45 22 LINE",
"-39 -60 OFFCURVE",
"23 -110 OFFCURVE",
"128 -110 CURVE SMOOTH"
);
},
{
closed = 1;
nodes = (
"740 111 LINE",
"740 186 LINE",
"326 186 LINE",
"326 111 LINE"
);
}
);
width = 850;
},
{
anchors = (
{
name = ogonek;
position = "{929, 0}";
},
{
name = top;
position = "{574, 660}";
}
);
components = (
{
name = __swash_topleft;
transform = "{1, 0, 0, 1, 10, 0}";
}
);
layerId = "99EB5860-B45A-4B60-BB0B-F826C8F71D42";
name = Bold;
paths = (
{
closed = 1;
nodes = (
"349 -110 OFFCURVE",
"427 -34 OFFCURVE",
"466 103 CURVE SMOOTH",
"545 379 LINE",
"571 491 LINE",
"574 491 LINE",
"601 379 LINE",
"691 0 LINE",
"929 0 LINE",
"714 660 LINE",
"434 660 LINE",
"279 181 LINE SMOOTH",
"252 96 OFFCURVE",
"217 56 OFFCURVE",
"160 56 CURVE SMOOTH",
"116 56 OFFCURVE",
"86 69 OFFCURVE",
"54 107 CURVE",
"-1 -47 LINE",
"29 -93 OFFCURVE",
"96 -110 OFFCURVE",
"176 -110 CURVE SMOOTH"
);
},
{
closed = 1;
nodes = (
"764 70 LINE",
"764 215 LINE",
"387 215 LINE",
"387 70 LINE"
);
}
);
width = 919;
}
);
rightKerningGroup = A;
rightMetricsKey = A;
userData = {
com.typemytype.robofont.layerData = {
background = {
anchors = (
);
components = (
{
baseGlyph = A;
transformation = (
1,
0,
0,
1,
0,
0
);
}
);
contours = (
);
lib = {
};
name = A.swsh_i;
unicodes = (
);
width = 586;
};
};
};
},
{
color = 4;
glyphname = L.swsh;
lastChange = "2015-12-28 14:53:01 +0000";
layers = (
{
anchors = (
{
name = bottom;
position = "{327, 0}";
},
{
name = center;
position = "{465, 335}";
},
{
name = top;
position = "{107, 660}";
},
{
name = topright;
position = "{261, 700}";
}
);
layerId = "1C7CD022-87C7-4E11-B656-E47B18819458";
name = Light;
paths = (
{
closed = 1;
nodes = (
"400 0 LINE SMOOTH",
"512 0 OFFCURVE",
"573 52 OFFCURVE",
"573 158 CURVE SMOOTH",
"573 244 OFFCURVE",
"524 294 OFFCURVE",
"451 310 CURVE",
"440 299 LINE",
"512 283 OFFCURVE",
"557 236 OFFCURVE",
"557 158 CURVE SMOOTH",
"557 58 OFFCURVE",
"500 14 OFFCURVE",
"395 14 CURVE SMOOTH",
"260 14 LINE",
"260 0 LINE"
);
},
{
closed = 1;
nodes = (
"361 0 LINE",
"361 14 LINE",
"105 14 LINE",
"105 0 LINE"
);
},
{
closed = 1;
nodes = (
"115 0 LINE",
"115 660 LINE",
"99 660 LINE",
"99 0 LINE"
);
}
);
width = 583;
},
{
anchors = (
{
name = bottom;
position = "{367, 0}";
},
{
name = center;
position = "{454, 342}";
},
{
name = top;
position = "{138, 660}";
},
{
name = topright;
position = "{290, 700}";
}
);
layerId = "4A17B37A-CBFD-40E5-9E02-2080A0E1F76C";
name = Regular;
paths = (
{
closed = 1;
nodes = (
"408 0 LINE SMOOTH",
"535 0 OFFCURVE",
"617 57 OFFCURVE",
"617 179 CURVE SMOOTH",
"617 288 OFFCURVE",
"543 345 OFFCURVE",
"458 348 CURVE",
"427 284 LINE",
"491 283 OFFCURVE",
"537 251 OFFCURVE",
"537 180 CURVE SMOOTH",
"537 99 OFFCURVE",
"479 75 OFFCURVE",
"391 75 CURVE SMOOTH",
"264 75 LINE",
"264 0 LINE"
);
},
{
closed = 1;
nodes = (
"336 0 LINE",
"336 75 LINE",
"140 75 LINE",
"140 0 LINE"
);
},
{
closed = 1;
nodes = (
"178 0 LINE",
"178 660 LINE",
"98 660 LINE",
"98 0 LINE"
);
}
);
width = 617;
},
{
anchors = (
{
name = bottom;
position = "{365, 0}";
},
{
name = center;
position = "{405, 364}";
},
{
name = top;
position = "{166, 660}";
},
{
name = topright;
position = "{388, 701}";
}
);
layerId = "99EB5860-B45A-4B60-BB0B-F826C8F71D42";
name = Bold;
paths = (
{
closed = 1;
nodes = (
"461 0 LINE SMOOTH",
"639 0 OFFCURVE",
"728 82 OFFCURVE",
"728 224 CURVE SMOOTH",
"728 304 OFFCURVE",
"701 433 OFFCURVE",
"521 438 CURVE",
"458 298 LINE",
"515 295 OFFCURVE",
"534 264 OFFCURVE",
"534 228 CURVE SMOOTH",
"534 199 OFFCURVE",
"515 171 OFFCURVE",
"461 171 CURVE SMOOTH",
"331 171 LINE",
"331 0 LINE"
);
},
{
closed = 1;
nodes = (
"365 0 LINE",
"406 171 LINE",
"162 171 LINE",
"162 0 LINE"
);
},
{
closed = 1;
nodes = (
"283 0 LINE",
"283 660 LINE",
"50 660 LINE",
"50 0 LINE"
);
}
);
width = 738;
}
);
leftKerningGroup = I;
leftMetricsKey = I;
rightMetricsKey = "=|F.swsh";
userData = {
com.typemytype.robofont.layerData = {
background = {
anchors = (
);
components = (
{
baseGlyph = L;
transformation = (
1,
0,
0,
1,
0,
0
);
}
);
contours = (
);
lib = {
};
name = L.swsh_f;
unicodes = (
);
width = 543;
};
};
};
},
{
color = 4;
glyphname = Lslash.swsh;
lastChange = "2015-12-28 14:53:01 +0000";
layers = (
{
components = (
{
alignment = -1;
name = L.swsh;
transform = "{1, 0, 0, 1, 11, 0}";
}
);
layerId = "1C7CD022-87C7-4E11-B656-E47B18819458";
name = Light;
paths = (
{
closed = 1;
nodes = (
"9 232 LINE",
"9 212 LINE",
"334 419 LINE",
"334 439 LINE"
);
}
);
width = 594;
},
{
components = (
{
name = L.swsh;
transform = "{1, 0, 0, 1, 30, 0}";
}
);
layerId = "4A17B37A-CBFD-40E5-9E02-2080A0E1F76C";
name = Regular;
paths = (
{
closed = 1;
nodes = (
"23 279 LINE",
"23 196 LINE",
"385 398 LINE",
"385 481 LINE"
);
}
);
width = 647;
},
{
components = (
{
name = L.swsh;
transform = "{1, 0, 0, 1, 50, 0}";
}
);
layerId = "99EB5860-B45A-4B60-BB0B-F826C8F71D42";
name = Bold;
paths = (
{
closed = 1;
nodes = (
"-14 299 LINE",
"-14 146 LINE",
"499 372 LINE",
"499 525 LINE"
);
}
);
width = 788;
}
);
leftMetricsKey = Lslash;
rightMetricsKey = L.swsh;
},
{
color = 4;
glyphname = M.swsh;
lastChange = "2015-12-28 14:53:01 +0000";
layers = (
{
components = (
{
name = swash_bttmleft;
transform = "{1, 0, 0, 1, 42, 0}";
}
);
layerId = "1C7CD022-87C7-4E11-B656-E47B18819458";
name = Light;
paths = (
{
closed = 1;
nodes = (
"617 0 LINE",
"886 637 LINE",
"886 637 LINE",
"885 580 LINE",
"885 0 LINE",
"901 0 LINE",
"901 660 LINE",
"880 660 LINE",
"619 47 LINE",
"607 19 LINE",
"607 19 LINE",
"595 48 LINE",
"334 660 LINE",
"313 660 LINE",
"313 80 LINE",
"329 80 LINE",
"329 580 LINE",
"328 637 LINE",
"328 637 LINE",
"597 0 LINE"
);
},
{
closed = 1;
nodes = (
"143 361 LINE",
"71 377 OFFCURVE",
"26 424 OFFCURVE",
"26 502 CURVE SMOOTH",
"26 602 OFFCURVE",
"83 646 OFFCURVE",
"188 646 CURVE SMOOTH",
"322 646 LINE",
"322 660 LINE",
"183 660 LINE SMOOTH",
"71 660 OFFCURVE",
"10 608 OFFCURVE",
"10 502 CURVE SMOOTH",
"10 416 OFFCURVE",
"59 366 OFFCURVE",
"132 350 CURVE"
);
}
);
width = 1000;
},
{
components = (
{
name = swash_bttmleft;
transform = "{1, 0, 0, 1, 42, 0}";
}
);
layerId = "4A17B37A-CBFD-40E5-9E02-2080A0E1F76C";
name = Regular;
paths = (
{
closed = 1;
nodes = (
"670 0 LINE",
"887 589 LINE",
"888 589 LINE",
"879 415 LINE",
"879 0 LINE",
"955 0 LINE",
"955 660 LINE",
"832 660 LINE",
"688 258 LINE",
"637 94 LINE",
"635 94 LINE",
"585 259 LINE",
"440 660 LINE",
"317 660 LINE",
"317 200 LINE",
"393 200 LINE",
"393 415 LINE",
"384 589 LINE",
"385 589 LINE",
"602 0 LINE"
);
},
{
closed = 1;
nodes = (
"190 366 LINE",
"126 377 OFFCURVE",
"80 419 OFFCURVE",
"80 480 CURVE SMOOTH",
"80 558 OFFCURVE",
"138 595 OFFCURVE",
"226 595 CURVE SMOOTH",
"423 595 LINE",
"423 660 LINE",
"209 660 LINE SMOOTH",
"82 660 OFFCURVE",
"0 593 OFFCURVE",
"0 481 CURVE SMOOTH",
"0 382 OFFCURVE",
"74 315 OFFCURVE",
"159 302 CURVE"
);
}
);
width = 1053;
},
{
components = (
{
name = swash_bttmleft;
transform = "{1, 0, 0, 1, 82, 0}";
}
);
layerId = "99EB5860-B45A-4B60-BB0B-F826C8F71D42";
name = Bold;
paths = (
{
closed = 1;
nodes = (
"834 0 LINE",
"962 451 LINE",
"965 451 LINE",
"962 229 LINE",
"962 0 LINE",
"1165 0 LINE",
"1165 660 LINE",
"855 660 LINE",
"779 367 LINE",
"750 244 LINE",
"748 244 LINE",
"719 367 LINE",
"643 660 LINE",
"317 660 LINE",
"317 192 LINE",
"521 192 LINE",
"521 229 LINE",
"518 451 LINE",
"522 451 LINE",
"648 0 LINE"
);
},
{
closed = 1;
nodes = (
"290 362 LINE",
"240 365 OFFCURVE",
"214 396 OFFCURVE",
"214 432 CURVE SMOOTH",
"214 464 OFFCURVE",
"230 494 OFFCURVE",
"277 494 CURVE SMOOTH",
"527 494 LINE",
"527 660 LINE",
"277 660 LINE SMOOTH",
"99 660 OFFCURVE",
"10 578 OFFCURVE",
"10 436 CURVE SMOOTH",
"10 299 OFFCURVE",
"97 216 OFFCURVE",
"227 212 CURVE"
);
}
);
width = 1215;
}
);
leftMetricsKey = F.swsh;
rightKerningGroup = I;
rightMetricsKey = I;
userData = {
com.typemytype.robofont.layerData = {
background = {
anchors = (
);
components = (
{
baseGlyph = M;
transformation = (
1,
0,
0,
1,
0,
0
);
}
);
contours = (
);
lib = {
};
name = M.swsh_i;
unicodes = (
);
width = 786;
};
};
};
},
{
color = 4;
glyphname = N.swsh;
lastChange = "2015-12-28 14:53:01 +0000";
layers = (
{
anchors = (
{
name = bottom;
position = "{347, 0}";
},
{
name = top;
position = "{353, 660}";
}
);
layerId = "1C7CD022-87C7-4E11-B656-E47B18819458";
name = Light;
paths = (
{
closed = 1;
nodes = (
"115 0 LINE",
"115 587 LINE",
"114 644 LINE",
"114 644 LINE",
"140 605 LINE",
"573 0 LINE",
"595 0 LINE",
"595 461 LINE",
"579 461 LINE",
"579 73 LINE",
"580 16 LINE",
"580 16 LINE",
"554 55 LINE",
"121 660 LINE",
"99 660 LINE",
"99 0 LINE"
);
},
{
closed = 1;
nodes = (
"595 423 LINE",
"595 562 LINE SMOOTH",
"595 669 OFFCURVE",
"645 721 OFFCURVE",
"729 721 CURVE SMOOTH",
"805 721 OFFCURVE",
"850 687 OFFCURVE",
"860 612 CURVE",
"873 619 LINE",
"863 698 OFFCURVE",
"813 735 OFFCURVE",
"729 735 CURVE SMOOTH",
"635 735 OFFCURVE",
"579 677 OFFCURVE",
"579 559 CURVE SMOOTH",
"579 423 LINE"
);
}
);
width = 873;
},
{
anchors = (
{
name = bottom;
position = "{387, 0}";
},
{
name = top;
position = "{361, 660}";
}
);
layerId = "4A17B37A-CBFD-40E5-9E02-2080A0E1F76C";
name = Regular;
paths = (
{
closed = 1;
nodes = (
"174 0 LINE",
"174 466 LINE",
"170 572 LINE",
"171 572 LINE",
"241 442 LINE",
"517 0 LINE",
"616 0 LINE",
"616 492 LINE",
"540 492 LINE",
"540 194 LINE",
"544 88 LINE",
"543 88 LINE",
"472 220 LINE",
"197 660 LINE",
"98 660 LINE",
"98 0 LINE"
);
},
{
closed = 1;
nodes = (
"616 423 LINE",
"616 535 LINE SMOOTH",
"616 612 OFFCURVE",
"659 666 OFFCURVE",
"732 666 CURVE SMOOTH",
"803 666 OFFCURVE",
"834 635 OFFCURVE",
"846 561 CURVE",
"905 604 LINE",
"893 683 OFFCURVE",
"839 735 OFFCURVE",
"732 735 CURVE SMOOTH",
"606 735 OFFCURVE",
"540 651 OFFCURVE",
"540 559 CURVE SMOOTH",
"540 423 LINE"
);
}
);
width = 895;
},
{
anchors = (
{
name = bottom;
position = "{374, 0}";
},
{
name = top;
position = "{373, 660}";
}
);
layerId = "99EB5860-B45A-4B60-BB0B-F826C8F71D42";
name = Bold;
paths = (
{
closed = 1;
nodes = (
"252 0 LINE",
"252 245 LINE",
"248 381 LINE",
"250 381 LINE",
"286 300 LINE",
"444 0 LINE",
"696 0 LINE",
"696 400 LINE",
"494 440 LINE",
"494 415 LINE",
"498 279 LINE",
"496 279 LINE",
"460 359 LINE",
"302 660 LINE",
"50 660 LINE",
"50 0 LINE"
);
},
{
closed = 1;
nodes = (
"696 359 LINE",
"696 455 LINE SMOOTH",
"696 521 OFFCURVE",
"729 554 OFFCURVE",
"785 554 CURVE SMOOTH",
"835 554 OFFCURVE",
"860 539 OFFCURVE",
"887 506 CURVE",
"957 647 LINE",
"910 696 OFFCURVE",
"851 720 OFFCURVE",
"752 720 CURVE SMOOTH",
"600 720 OFFCURVE",
"494 656 OFFCURVE",
"494 471 CURVE SMOOTH",
"494 431 LINE"
);
}
);
width = 746;
}
);
leftKerningGroup = I;
leftMetricsKey = I;
userData = {
com.typemytype.robofont.layerData = {
background = {
anchors = (
);
components = (
{
baseGlyph = N;
transformation = (
1,
0,
0,
1,
0,
0
);
}
);
contours = (
);
lib = {
};
name = N.swsh_f;
unicodes = (
);
width = 694;
};
};
};
},
{
color = 4;
glyphname = R.swsh;
lastChange = "2015-12-28 14:53:01 +0000";
layers = (
{
anchors = (
{
name = bottom;
position = "{560, 0}";
},
{
name = top;
position = "{507, 660}";
}
);
components = (
{
name = __swash_topleft;
transform = "{1, 0, 0, 1, -24, 0}";
}
);
layerId = "1C7CD022-87C7-4E11-B656-E47B18819458";
name = Light;
paths = (
{
closed = 1;
nodes = (
"273 -110 OFFCURVE",
"329 -52 OFFCURVE",
"329 46 CURVE SMOOTH",
"329 202 LINE",
"313 202 LINE",
"313 43 LINE SMOOTH",
"313 -44 OFFCURVE",
"263 -96 OFFCURVE",
"179 -96 CURVE SMOOTH",
"97 -96 OFFCURVE",
"48 -48 OFFCURVE",
"48 33 CURVE",
"35 26 LINE",
"35 -59 OFFCURVE",
"89 -110 OFFCURVE",
"179 -110 CURVE SMOOTH"
);
},
{
closed = 1;
nodes = (
"329 163 LINE",
"329 660 LINE",
"313 660 LINE",
"313 163 LINE"
);
},
{
closed = 1;
nodes = (
"790 0 LINE",
"614 267 LINE",
"601 257 LINE",
"772 0 LINE"
);
},
{
closed = 1;
nodes = (
"321 660 LINE",
"321 646 LINE",
"552 646 LINE SMOOTH",
"673 646 OFFCURVE",
"752 565 OFFCURVE",
"752 461 CURVE SMOOTH",
"752 357 OFFCURVE",
"673 264 OFFCURVE",
"552 264 CURVE SMOOTH",
"321 264 LINE",
"321 250 LINE",
"552 250 LINE SMOOTH",
"681 250 OFFCURVE",
"768 349 OFFCURVE",
"768 461 CURVE SMOOTH",
"768 573 OFFCURVE",
"681 660 OFFCURVE",
"552 660 CURVE SMOOTH"
);
}
);
width = 825;
},
{
anchors = (
{
name = bottom;
position = "{574, 0}";
},
{
name = top;
position = "{531, 660}";
}
);
components = (
{
name = __swash_topleft;
transform = "{1, 0, 0, 1, -84, 0}";
}
);
layerId = "4A17B37A-CBFD-40E5-9E02-2080A0E1F76C";
name = Regular;
paths = (
{
closed = 1;
nodes = (
"330 -110 OFFCURVE",
"397 -26 OFFCURVE",
"397 66 CURVE SMOOTH",
"397 202 LINE",
"317 202 LINE",
"317 90 LINE SMOOTH",
"317 13 OFFCURVE",
"274 -41 OFFCURVE",
"201 -41 CURVE SMOOTH",
"130 -41 OFFCURVE",
"99 -10 OFFCURVE",
"87 64 CURVE",
"28 21 LINE",
"40 -58 OFFCURVE",
"94 -110 OFFCURVE",
"201 -110 CURVE SMOOTH"
);
},
{
closed = 1;
nodes = (
"397 188 LINE",
"397 660 LINE",
"317 660 LINE",
"317 188 LINE"
);
},
{
closed = 1;
nodes = (
"830 0 LINE",
"646 281 LINE",
"579 237 LINE",
"735 0 LINE"
);
},
{
closed = 1;
nodes = (
"374 660 LINE",
"374 585 LINE",
"583 585 LINE SMOOTH",
"677 585 OFFCURVE",
"737 521 OFFCURVE",
"737 442 CURVE SMOOTH",
"737 363 OFFCURVE",
"677 294 OFFCURVE",
"583 294 CURVE SMOOTH",
"374 294 LINE",
"374 219 LINE",
"584 219 LINE SMOOTH",
"718 219 OFFCURVE",
"821 323 OFFCURVE",
"821 442 CURVE SMOOTH",
"821 561 OFFCURVE",
"718 660 OFFCURVE",
"584 660 CURVE SMOOTH"
);
}
);
width = 864;
},
{
anchors = (
{
name = bottom;
position = "{629, 0}";
},
{
name = top;
position = "{601, 660}";
}
);
components = (
{
name = __swash_topleft;
transform = "{1, 0, 0, 1, 10, 0}";
}
);
layerId = "99EB5860-B45A-4B60-BB0B-F826C8F71D42";
name = Bold;
paths = (
{
closed = 1;
nodes = (
"433 -110 OFFCURVE",
"545 -48 OFFCURVE",
"545 149 CURVE SMOOTH",
"545 212 LINE",
"317 212 LINE",
"317 135 LINE SMOOTH",
"317 87 OFFCURVE",
"287 56 OFFCURVE",
"242 56 CURVE SMOOTH",
"194 56 OFFCURVE",
"162 74 OFFCURVE",
"134 118 CURVE",
"58 -17 LINE",
"104 -83 OFFCURVE",
"178 -110 OFFCURVE",
"277 -110 CURVE SMOOTH"
);
},
{
closed = 1;
nodes = (
"545 203 LINE",
"545 660 LINE",
"317 660 LINE",
"317 203 LINE"
);
},
{
closed = 1;
nodes = (
"979 0 LINE",
"804 274 LINE",
"603 240 LINE",
"726 0 LINE"
);
},
{
closed = 1;
nodes = (
"504 660 LINE",
"504 494 LINE",
"657 494 LINE SMOOTH",
"716 494 OFFCURVE",
"747 450 OFFCURVE",
"747 406 CURVE SMOOTH",
"747 361 OFFCURVE",
"716 317 OFFCURVE",
"657 317 CURVE SMOOTH",
"504 317 LINE",
"504 164 LINE",
"704 164 LINE SMOOTH",
"880 164 OFFCURVE",
"980 266 OFFCURVE",
"980 412 CURVE SMOOTH",
"980 559 OFFCURVE",
"880 660 OFFCURVE",
"704 660 CURVE SMOOTH"
);
}
);
width = 972;
}
);
leftMetricsKey = F.swsh;
rightKerningGroup = R;
rightMetricsKey = R;
userData = {
com.typemytype.robofont.layerData = {
background = {
anchors = (
);
components = (
{
baseGlyph = R;
transformation = (
1,
0,
0,
1,
0,
0
);
}
);
contours = (
);
lib = {
};
name = R.swsh_i;
unicodes = (
);
width = 611;
};
};
};
},
{
color = 4;
glyphname = S.swsh;
lastChange = "2015-12-30 14:14:56 +0000";
layers = (
{
anchors = (
{
name = bottom;
position = "{321, -100}";
},
{
name = bottomC;
position = "{289, -100}";
},
{
name = top;
position = "{290, 660}";
}
);
layerId = "1C7CD022-87C7-4E11-B656-E47B18819458";
name = Light;
paths = (
{
closed = 1;
nodes = (
"458 -110 OFFCURVE",
"548 -39 OFFCURVE",
"548 77 CURVE SMOOTH",
"548 198 OFFCURVE",
"450 233 OFFCURVE",
"325 277 CURVE SMOOTH",
"191 325 OFFCURVE",
"106 356 OFFCURVE",
"106 476 CURVE SMOOTH",
"106 587 OFFCURVE",
"178 656 OFFCURVE",
"314 656 CURVE SMOOTH",
"451 656 OFFCURVE",
"522 585 OFFCURVE",
"511 467 CURVE",
"525 467 LINE",
"536 607 OFFCURVE",
"443 670 OFFCURVE",
"313 670 CURVE SMOOTH",
"170 670 OFFCURVE",
"90 593 OFFCURVE",
"90 474 CURVE SMOOTH",
"90 348 OFFCURVE",
"180 312 OFFCURVE",
"318 264 CURVE SMOOTH",
"441 221 OFFCURVE",
"532 188 OFFCURVE",
"532 75 CURVE SMOOTH",
"532 -32 OFFCURVE",
"450 -96 OFFCURVE",
"307 -96 CURVE SMOOTH",
"170 -96 OFFCURVE",
"90 -38 OFFCURVE",
"90 64 CURVE SMOOTH",
"90 84 OFFCURVE",
"93 107 OFFCURVE",
"99 129 CURVE",
"84 129 LINE",
"78 100 OFFCURVE",
"75 81 OFFCURVE",
"75 61 CURVE SMOOTH",
"75 -47 OFFCURVE",
"163 -110 OFFCURVE",
"306 -110 CURVE SMOOTH"
);
}
);
width = 594;
},
{
anchors = (
{
name = bottom;
position = "{326, -100}";
},
{
name = bottomC;
position = "{296, -100}";
},
{
name = top;
position = "{316, 660}";
}
);
layerId = "4A17B37A-CBFD-40E5-9E02-2080A0E1F76C";
name = Regular;
paths = (
{
closed = 1;
nodes = (
"476 -110 OFFCURVE",
"575 -23 OFFCURVE",
"575 109 CURVE SMOOTH",
"575 238 OFFCURVE",
"481 271 OFFCURVE",
"343 312 CURVE SMOOTH",
"226 347 OFFCURVE",
"153 369 OFFCURVE",
"153 461 CURVE SMOOTH",
"153 545 OFFCURVE",
"213 595 OFFCURVE",
"326 595 CURVE SMOOTH",
"427 595 OFFCURVE",
"480 555 OFFCURVE",
"483 451 CURVE",
"562 451 LINE",
"562 593 OFFCURVE",
"464 670 OFFCURVE",
"320 670 CURVE SMOOTH",
"167 670 OFFCURVE",
"69 583 OFFCURVE",
"69 452 CURVE SMOOTH",
"69 316 OFFCURVE",
"174 280 OFFCURVE",
"308 241 CURVE SMOOTH",
"431 205 OFFCURVE",
"492 186 OFFCURVE",
"492 99 CURVE SMOOTH",
"492 14 OFFCURVE",
"433 -35 OFFCURVE",
"309 -35 CURVE SMOOTH",
"195 -35 OFFCURVE",
"131 7 OFFCURVE",
"131 97 CURVE SMOOTH",
"131 109 OFFCURVE",
"132 122 OFFCURVE",
"134 136 CURVE",
"59 136 LINE",
"57 122 OFFCURVE",
"56 99 OFFCURVE",
"56 87 CURVE SMOOTH",
"56 -32 OFFCURVE",
"152 -110 OFFCURVE",
"310 -110 CURVE SMOOTH"
);
}
);
width = 621;
},
{
anchors = (
{
name = bottom;
position = "{304, -100}";
},
{
name = bottomC;
position = "{296, -100}";
},
{
name = top;
position = "{331, 660}";
}
);
layerId = "99EB5860-B45A-4B60-BB0B-F826C8F71D42";
name = Bold;
paths = (
{
closed = 1;
nodes = (
"495 -110 OFFCURVE",
"629 -31 OFFCURVE",
"629 133 CURVE SMOOTH",
"629 295 OFFCURVE",
"499 326 OFFCURVE",
"396 350 CURVE SMOOTH",
"310 370 OFFCURVE",
"267 382 OFFCURVE",
"267 433 CURVE SMOOTH",
"267 470 OFFCURVE",
"290 495 OFFCURVE",
"332 495 CURVE SMOOTH",
"391 495 OFFCURVE",
"416 446 OFFCURVE",
"413 386 CURVE",
"619 386 LINE",
"619 558 OFFCURVE",
"530 670 OFFCURVE",
"330 670 CURVE SMOOTH",
"157 670 OFFCURVE",
"28 586 OFFCURVE",
"28 423 CURVE SMOOTH",
"28 244 OFFCURVE",
"182 211 OFFCURVE",
"284 191 CURVE SMOOTH",
"357 177 OFFCURVE",
"414 165 OFFCURVE",
"414 117 CURVE SMOOTH",
"414 87 OFFCURVE",
"392 65 OFFCURVE",
"323 65 CURVE SMOOTH",
"251 65 OFFCURVE",
"221 89 OFFCURVE",
"221 134 CURVE SMOOTH",
"221 146 OFFCURVE",
"223 157 OFFCURVE",
"227 174 CURVE",
"25 174 LINE",
"22 162 OFFCURVE",
"19 129 OFFCURVE",
"19 108 CURVE SMOOTH",
"19 -19 OFFCURVE",
"124 -110 OFFCURVE",
"316 -110 CURVE SMOOTH"
);
}
);
width = 646;
}
);
userData = {
com.typemytype.robofont.layerData = {
background = {
anchors = (
);
components = (
{
baseGlyph = S;
transformation = (
1,
0,
0,
1,
0,
0
);
}
);
contours = (
);
lib = {
};
name = S.swsh_i;
unicodes = (
);
width = 594;
};
};
};
},
{
color = 4;
glyphname = T.swsh;
lastChange = "2015-12-28 14:53:01 +0000";
layers = (
{
anchors = (
{
name = bottom;
position = "{352, 0}";
},
{
name = center;
position = "{348, 371}";
},
{
name = top;
position = "{348, 660}";
}
);
layerId = "1C7CD022-87C7-4E11-B656-E47B18819458";
name = Light;
paths = (
{
closed = 1;
nodes = (
"143 361 LINE",
"71 377 OFFCURVE",
"26 424 OFFCURVE",
"26 502 CURVE SMOOTH",
"26 602 OFFCURVE",
"83 646 OFFCURVE",
"188 646 CURVE SMOOTH",
"333 646 LINE",
"333 660 LINE",
"183 660 LINE SMOOTH",
"71 660 OFFCURVE",
"10 608 OFFCURVE",
"10 502 CURVE SMOOTH",
"10 416 OFFCURVE",
"59 366 OFFCURVE",
"132 350 CURVE"
);
},
{
closed = 1;
nodes = (
"356 0 LINE",
"356 653 LINE",
"340 653 LINE",
"340 0 LINE"
);
},
{
closed = 1;
nodes = (
"609 646 LINE",
"609 660 LINE",
"187 660 LINE",
"187 646 LINE"
);
}
);
width = 620;
},
{
anchors = (
{
name = bottom;
position = "{413, 0}";
},
{
name = center;
position = "{397, 330}";
},
{
name = top;
position = "{397, 660}";
}
);
layerId = "4A17B37A-CBFD-40E5-9E02-2080A0E1F76C";
name = Regular;
paths = (
{
closed = 1;
nodes = (
"190 366 LINE",
"126 377 OFFCURVE",
"80 419 OFFCURVE",
"80 480 CURVE SMOOTH",
"80 557 OFFCURVE",
"138 585 OFFCURVE",
"226 585 CURVE SMOOTH",
"403 585 LINE",
"403 660 LINE",
"209 660 LINE SMOOTH",
"82 660 OFFCURVE",
"0 593 OFFCURVE",
"0 481 CURVE SMOOTH",
"0 382 OFFCURVE",
"74 315 OFFCURVE",
"159 302 CURVE"
);
},
{
closed = 1;
nodes = (
"437 0 LINE",
"437 660 LINE",
"357 660 LINE",
"357 0 LINE"
);
},
{
closed = 1;
nodes = (
"667 585 LINE",
"667 660 LINE",
"269 660 LINE",
"269 585 LINE"
);
}
);
width = 689;
},
{
anchors = (
{
name = bottom;
position = "{485, 0}";
},
{
name = center;
position = "{501, 338}";
},
{
name = top;
position = "{502, 660}";
}
);
layerId = "99EB5860-B45A-4B60-BB0B-F826C8F71D42";
name = Bold;
paths = (
{
closed = 1;
nodes = (
"290 362 LINE",
"233 365 OFFCURVE",
"214 396 OFFCURVE",
"214 432 CURVE SMOOTH",
"214 461 OFFCURVE",
"233 489 OFFCURVE",
"287 489 CURVE SMOOTH",
"477 489 LINE",
"477 660 LINE",
"277 660 LINE SMOOTH",
"99 660 OFFCURVE",
"10 578 OFFCURVE",
"10 436 CURVE SMOOTH",
"10 305 OFFCURVE",
"97 216 OFFCURVE",
"227 212 CURVE"
);
},
{
closed = 1;
nodes = (
"619 0 LINE",
"619 660 LINE",
"386 660 LINE",
"386 0 LINE"
);
},
{
closed = 1;
nodes = (
"825 489 LINE",
"825 660 LINE",
"354 660 LINE",
"354 489 LINE"
);
}
);
width = 845;
}
);
leftMetricsKey = F.swsh;
rightKerningGroup = T;
rightMetricsKey = T;
userData = {
com.typemytype.robofont.layerData = {
background = {
anchors = (
);
components = (
{
baseGlyph = T;
transformation = (
1,
0,
0,
1,
0,
0
);
}
);
contours = (
);
lib = {
};
name = T.swsh_i;
unicodes = (
);
width = 544;
};
};
};
},
{
color = 4;
glyphname = uni0162.swsh;
lastChange = "2015-12-28 14:53:01 +0000";
layers = (
{
components = (
{
name = T.swsh;
}
);
layerId = "1C7CD022-87C7-4E11-B656-E47B18819458";
name = Light;
paths = (
{
closed = 1;
nodes = (
"397 -36 OFFCURVE",
"424 -68 OFFCURVE",
"424 -117 CURVE SMOOTH",
"424 -160 OFFCURVE",
"395 -189 OFFCURVE",
"350 -189 CURVE SMOOTH",
"309 -189 OFFCURVE",
"287 -174 OFFCURVE",
"266 -148 CURVE",
"257 -158 LINE",
"277 -184 OFFCURVE",
"303 -202 OFFCURVE",
"350 -202 CURVE SMOOTH",
"404 -202 OFFCURVE",
"439 -168 OFFCURVE",
"439 -117 CURVE SMOOTH",
"439 -65 OFFCURVE",
"412 -32 OFFCURVE",
"355 3 CURVE",
"340 0 LINE"
);
}
);
width = 620;
},
{
components = (
{
name = T.swsh;
}
);
layerId = "4A17B37A-CBFD-40E5-9E02-2080A0E1F76C";
name = Regular;
paths = (
{
closed = 1;
nodes = (
"415 -39 OFFCURVE",
"437 -59 OFFCURVE",
"437 -97 CURVE SMOOTH",
"437 -132 OFFCURVE",
"412 -155 OFFCURVE",
"380 -155 CURVE SMOOTH",
"352 -155 OFFCURVE",
"327 -142 OFFCURVE",
"311 -125 CURVE",
"281 -180 LINE",
"309 -205 OFFCURVE",
"344 -215 OFFCURVE",
"391 -215 CURVE SMOOTH",
"463 -215 OFFCURVE",
"508 -164 OFFCURVE",
"508 -109 CURVE SMOOTH",
"508 -65 OFFCURVE",
"487 -23 OFFCURVE",
"430 14 CURVE",
"357 0 LINE"
);
}
);
width = 689;
},
{
components = (
{
name = T.swsh;
}
);
layerId = "99EB5860-B45A-4B60-BB0B-F826C8F71D42";
name = Bold;
paths = (
{
closed = 1;
nodes = (
"503 0 OFFCURVE",
"531 -18 OFFCURVE",
"531 -51 CURVE SMOOTH",
"531 -87 OFFCURVE",
"504 -101 OFFCURVE",
"475 -101 CURVE SMOOTH",
"440 -101 OFFCURVE",
"424 -89 OFFCURVE",
"409 -70 CURVE",
"353 -170 LINE",
"377 -193 OFFCURVE",
"419 -215 OFFCURVE",
"492 -215 CURVE SMOOTH",
"580 -215 OFFCURVE",
"653 -184 OFFCURVE",
"653 -83 CURVE SMOOTH",
"653 3 OFFCURVE",
"593 46 OFFCURVE",
"467 48 CURVE",
"457 0 LINE"
);
}
);
width = 845;
}
);
},
{
color = 4;
glyphname = W.swsh;
lastChange = "2015-12-28 14:53:01 +0000";
layers = (
{
components = (
{
alignment = -1;
name = W;
transform = "{1, 0, 0, 1, 200, 0}";
}
);
layerId = "1C7CD022-87C7-4E11-B656-E47B18819458";
name = Light;
paths = (
{
closed = 1;
nodes = (
"143 361 LINE",
"71 377 OFFCURVE",
"26 424 OFFCURVE",
"26 502 CURVE SMOOTH",
"26 602 OFFCURVE",
"83 646 OFFCURVE",
"188 646 CURVE SMOOTH",
"233 646 LINE",
"233 660 LINE",
"183 660 LINE SMOOTH",
"71 660 OFFCURVE",
"10 608 OFFCURVE",
"10 502 CURVE SMOOTH",
"10 416 OFFCURVE",
"59 366 OFFCURVE",
"132 350 CURVE"
);
}
);
width = 1109;
},
{
components = (
{
alignment = -1;
name = W;
transform = "{1, 0, 0, 1, 255, 0}";
}
);
layerId = "4A17B37A-CBFD-40E5-9E02-2080A0E1F76C";
name = Regular;
paths = (
{
closed = 1;
nodes = (
"190 366 LINE",
"126 377 OFFCURVE",
"80 419 OFFCURVE",
"80 480 CURVE SMOOTH",
"80 558 OFFCURVE",
"138 595 OFFCURVE",
"226 595 CURVE SMOOTH",
"303 595 LINE",
"303 660 LINE",
"209 660 LINE SMOOTH",
"82 660 OFFCURVE",
"0 593 OFFCURVE",
"0 481 CURVE SMOOTH",
"0 382 OFFCURVE",
"74 315 OFFCURVE",
"159 302 CURVE"
);
}
);
width = 1196;
},
{
components = (
{
name = W;
transform = "{1, 0, 0, 1, 322, 0}";
}
);
layerId = "99EB5860-B45A-4B60-BB0B-F826C8F71D42";
name = Bold;
paths = (
{
closed = 1;
nodes = (
"293 362 LINE",
"237 365 OFFCURVE",
"214 396 OFFCURVE",
"214 432 CURVE SMOOTH",
"214 464 OFFCURVE",
"228 494 OFFCURVE",
"282 494 CURVE SMOOTH",
"467 494 LINE",
"467 660 LINE",
"277 660 LINE SMOOTH",
"99 660 OFFCURVE",
"10 578 OFFCURVE",
"10 436 CURVE SMOOTH",
"10 301 OFFCURVE",
"98 212 OFFCURVE",
"227 212 CURVE"
);
}
);
width = 1343;
}
);
leftMetricsKey = F.swsh;
rightMetricsKey = W;
userData = {
com.typemytype.robofont.layerData = {
background = {
anchors = (
);
components = (
{
baseGlyph = W;
transformation = (
1,
0,
0,
1,
0,
0
);
}
);
contours = (
);
lib = {
};
name = W.swsh_i;
unicodes = (
);
width = 909;
};
};
};
},
{
color = 4;
glyphname = Adieresis.titl;
lastChange = "2015-12-28 14:53:01 +0000";
layers = (
{
layerId = "1C7CD022-87C7-4E11-B656-E47B18819458";
name = Light;
paths = (
{
closed = 1;
nodes = (
"400 618 OFFCURVE",
"409 627 OFFCURVE",
"409 640 CURVE SMOOTH",
"409 653 OFFCURVE",
"400 662 OFFCURVE",
"387 662 CURVE SMOOTH",
"374 662 OFFCURVE",
"365 653 OFFCURVE",
"365 640 CURVE SMOOTH",
"365 627 OFFCURVE",
"374 618 OFFCURVE",
"387 618 CURVE SMOOTH"
);
},
{
closed = 1;
nodes = (
"210 618 OFFCURVE",
"219 627 OFFCURVE",
"219 640 CURVE SMOOTH",
"219 653 OFFCURVE",
"210 662 OFFCURVE",
"197 662 CURVE SMOOTH",
"184 662 OFFCURVE",
"175 653 OFFCURVE",
"175 640 CURVE SMOOTH",
"175 627 OFFCURVE",
"184 618 OFFCURVE",
"197 618 CURVE SMOOTH"
);
},
{
closed = 1;
nodes = (
"29 0 LINE",
"276 597 LINE",
"293 642 LINE",
"293 642 LINE",
"310 596 LINE",
"557 0 LINE",
"574 0 LINE",
"302 660 LINE",
"284 660 LINE",
"12 0 LINE"
);
},
{
closed = 1;
nodes = (
"467 234 LINE",
"467 248 LINE",
"118 248 LINE",
"118 234 LINE"
);
}
);
width = 586;
},
{
layerId = "4A17B37A-CBFD-40E5-9E02-2080A0E1F76C";
name = Regular;
paths = (
{
closed = 1;
nodes = (
"510 553 OFFCURVE",
"532 575 OFFCURVE",
"532 608 CURVE SMOOTH",
"532 640 OFFCURVE",
"510 662 OFFCURVE",
"478 662 CURVE SMOOTH",
"445 662 OFFCURVE",
"423 640 OFFCURVE",
"423 608 CURVE SMOOTH",
"423 575 OFFCURVE",
"445 553 OFFCURVE",
"478 553 CURVE SMOOTH"
);
},
{
closed = 1;
nodes = (
"196 553 OFFCURVE",
"218 575 OFFCURVE",
"218 608 CURVE SMOOTH",
"218 640 OFFCURVE",
"196 662 OFFCURVE",
"163 662 CURVE SMOOTH",
"131 662 OFFCURVE",
"109 640 OFFCURVE",
"109 608 CURVE SMOOTH",
"109 575 OFFCURVE",
"131 553 OFFCURVE",
"163 553 CURVE SMOOTH"
);
},
{
closed = 1;
nodes = (
"100 0 LINE",
"289 495 LINE",
"318 584 LINE",
"320 584 LINE",
"351 492 LINE",
"539 0 LINE",
"624 0 LINE",
"368 660 LINE",
"273 660 LINE",
"16 0 LINE"
);
},
{
closed = 1;
nodes = (
"495 183 LINE",
"495 258 LINE",
"142 258 LINE",
"142 183 LINE"
);
}
);
width = 640;
},
{
layerId = "99EB5860-B45A-4B60-BB0B-F826C8F71D42";
name = Bold;
paths = (
{
closed = 1;
nodes = (
"708 480 OFFCURVE",
"746 513 OFFCURVE",
"746 571 CURVE SMOOTH",
"746 629 OFFCURVE",
"708 662 OFFCURVE",
"641 662 CURVE SMOOTH",
"576 662 OFFCURVE",
"539 629 OFFCURVE",
"539 571 CURVE SMOOTH",
"539 513 OFFCURVE",
"576 480 OFFCURVE",
"641 480 CURVE SMOOTH"
);
},
{
closed = 1;
nodes = (
"111 480 OFFCURVE",
"149 513 OFFCURVE",
"149 571 CURVE SMOOTH",
"149 629 OFFCURVE",
"111 662 OFFCURVE",
"44 662 CURVE SMOOTH",
"-21 662 OFFCURVE",
"-58 629 OFFCURVE",
"-58 571 CURVE SMOOTH",
"-58 513 OFFCURVE",
"-21 480 OFFCURVE",
"44 480 CURVE SMOOTH"
);
},
{
closed = 1;
nodes = (
"222 0 LINE",
"315 379 LINE",
"341 491 LINE",
"344 491 LINE",
"371 379 LINE",
"461 0 LINE",
"699 0 LINE",
"484 660 LINE",
"204 660 LINE",
"-10 0 LINE"
);
},
{
closed = 1;
nodes = (
"534 126 LINE",
"534 271 LINE",
"157 271 LINE",
"157 126 LINE"
);
}
);
width = 689;
},
{
associatedMasterId = "4A17B37A-CBFD-40E5-9E02-2080A0E1F76C";
layerId = "F0B78320-67A7-4194-B2B6-F8A11AE513B0";
name = "{137, 5}";
paths = (
{
closed = 1;
nodes = (
"587 547 OFFCURVE",
"611 569 OFFCURVE",
"611 605 CURVE SMOOTH",
"611 640 OFFCURVE",
"587 662 OFFCURVE",
"550 662 CURVE SMOOTH",
"512 662 OFFCURVE",
"489 640 OFFCURVE",
"489 605 CURVE SMOOTH",
"489 569 OFFCURVE",
"512 547 OFFCURVE",
"550 547 CURVE SMOOTH"
);
},
{
closed = 1;
nodes = (
"159 547 OFFCURVE",
"183 569 OFFCURVE",
"183 605 CURVE SMOOTH",
"183 640 OFFCURVE",
"159 662 OFFCURVE",
"121 662 CURVE SMOOTH",
"84 662 OFFCURVE",
"61 640 OFFCURVE",
"61 605 CURVE SMOOTH",
"61 569 OFFCURVE",
"84 547 OFFCURVE",
"121 547 CURVE SMOOTH"
);
},
{
closed = 1;
nodes = (
"152 0 LINE",
"305 451 LINE",
"333 549 LINE",
"335 549 LINE",
"364 449 LINE",
"515 0 LINE",
"658 0 LINE",
"418 660 LINE",
"253 660 LINE",
"12 0 LINE"
);
},
{
closed = 1;
nodes = (
"516 161 LINE",
"516 263 LINE",
"154 263 LINE",
"154 161 LINE"
);
}
);
width = 671;
}
);
leftKerningGroup = A;
rightKerningGroup = A;
},
{
color = 4;
glyphname = Odieresis.titl;
lastChange = "2015-12-28 14:53:01 +0000";
layers = (
{
layerId = "1C7CD022-87C7-4E11-B656-E47B18819458";
name = Light;
paths = (
{
closed = 1;
nodes = (
"274 600 OFFCURVE",
"265 591 OFFCURVE",
"265 578 CURVE SMOOTH",
"265 565 OFFCURVE",
"274 556 OFFCURVE",
"287 556 CURVE SMOOTH",
"300 556 OFFCURVE",
"309 565 OFFCURVE",
"309 578 CURVE SMOOTH",
"309 591 OFFCURVE",
"300 600 OFFCURVE",
"287 600 CURVE SMOOTH"
);
},
{
closed = 1;
nodes = (
"414 600 OFFCURVE",
"405 591 OFFCURVE",
"405 578 CURVE SMOOTH",
"405 565 OFFCURVE",
"414 556 OFFCURVE",
"427 556 CURVE SMOOTH",
"440 556 OFFCURVE",
"449 565 OFFCURVE",
"449 578 CURVE SMOOTH",
"449 591 OFFCURVE",
"440 600 OFFCURVE",
"427 600 CURVE SMOOTH"
);
},
{
closed = 1;
nodes = (
"172 670 OFFCURVE",
"56 539 OFFCURVE",
"56 330 CURVE SMOOTH",
"56 121 OFFCURVE",
"172 -10 OFFCURVE",
"357 -10 CURVE SMOOTH",
"542 -10 OFFCURVE",
"658 121 OFFCURVE",
"658 330 CURVE SMOOTH",
"658 539 OFFCURVE",
"542 670 OFFCURVE",
"357 670 CURVE SMOOTH"
);
},
{
closed = 1;
nodes = (
"532 656 OFFCURVE",
"642 530 OFFCURVE",
"642 330 CURVE SMOOTH",
"642 130 OFFCURVE",
"532 4 OFFCURVE",
"357 4 CURVE SMOOTH",
"182 4 OFFCURVE",
"72 130 OFFCURVE",
"72 330 CURVE SMOOTH",
"72 530 OFFCURVE",
"182 656 OFFCURVE",
"357 656 CURVE SMOOTH"
);
}
);
width = 714;
},
{
layerId = "4A17B37A-CBFD-40E5-9E02-2080A0E1F76C";
name = Regular;
paths = (
{
closed = 1;
nodes = (
"265 560 OFFCURVE",
"243 538 OFFCURVE",
"243 506 CURVE SMOOTH",
"243 473 OFFCURVE",
"265 451 OFFCURVE",
"297 451 CURVE SMOOTH",
"330 451 OFFCURVE",
"352 473 OFFCURVE",
"352 506 CURVE SMOOTH",
"352 538 OFFCURVE",
"330 560 OFFCURVE",
"297 560 CURVE SMOOTH"
);
},
{
closed = 1;
nodes = (
"398 560 OFFCURVE",
"376 538 OFFCURVE",
"376 506 CURVE SMOOTH",
"376 473 OFFCURVE",
"398 451 OFFCURVE",
"431 451 CURVE SMOOTH",
"463 451 OFFCURVE",
"485 473 OFFCURVE",
"485 506 CURVE SMOOTH",
"485 538 OFFCURVE",
"463 560 OFFCURVE",
"431 560 CURVE SMOOTH"
);
},
{
closed = 1;
nodes = (
"176 670 OFFCURVE",
"58 539 OFFCURVE",
"58 330 CURVE SMOOTH",
"58 121 OFFCURVE",
"176 -10 OFFCURVE",
"364 -10 CURVE SMOOTH",
"552 -10 OFFCURVE",
"670 121 OFFCURVE",
"670 330 CURVE SMOOTH",
"670 539 OFFCURVE",
"552 670 OFFCURVE",
"364 670 CURVE SMOOTH"
);
},
{
closed = 1;
nodes = (
"501 595 OFFCURVE",
"586 496 OFFCURVE",
"586 330 CURVE SMOOTH",
"586 164 OFFCURVE",
"501 65 OFFCURVE",
"364 65 CURVE SMOOTH",
"227 65 OFFCURVE",
"142 164 OFFCURVE",
"142 330 CURVE SMOOTH",
"142 496 OFFCURVE",
"227 595 OFFCURVE",
"364 595 CURVE SMOOTH"
);
}
);
width = 728;
},
{
layerId = "99EB5860-B45A-4B60-BB0B-F826C8F71D42";
name = Bold;
paths = (
{
closed = 1;
nodes = (
"121 670 OFFCURVE",
"95 646 OFFCURVE",
"95 606 CURVE SMOOTH",
"95 568 OFFCURVE",
"121 544 OFFCURVE",
"165 544 CURVE SMOOTH",
"211 544 OFFCURVE",
"238 568 OFFCURVE",
"238 606 CURVE SMOOTH",
"238 646 OFFCURVE",
"211 670 OFFCURVE",
"165 670 CURVE SMOOTH"
);
},
{
closed = 1;
nodes = (
"521 670 OFFCURVE",
"495 647 OFFCURVE",
"495 608 CURVE SMOOTH",
"495 568 OFFCURVE",
"521 544 OFFCURVE",
"565 545 CURVE SMOOTH",
"611 544 OFFCURVE",
"638 568 OFFCURVE",
"638 608 CURVE SMOOTH",
"638 647 OFFCURVE",
"611 670 OFFCURVE",
"565 670 CURVE SMOOTH"
);
},
{
closed = 1;
nodes = (
"156 670 OFFCURVE",
"29 546 OFFCURVE",
"29 330 CURVE SMOOTH",
"29 114 OFFCURVE",
"156 -10 OFFCURVE",
"365 -10 CURVE SMOOTH",
"575 -10 OFFCURVE",
"700 114 OFFCURVE",
"700 330 CURVE SMOOTH",
"700 546 OFFCURVE",
"575 670 OFFCURVE",
"365 670 CURVE SMOOTH"
);
},
{
closed = 1;
nodes = (
"433 495 OFFCURVE",
"462 445 OFFCURVE",
"462 330 CURVE SMOOTH",
"462 215 OFFCURVE",
"433 165 OFFCURVE",
"365 165 CURVE SMOOTH",
"297 165 OFFCURVE",
"267 215 OFFCURVE",
"267 330 CURVE SMOOTH",
"267 445 OFFCURVE",
"297 495 OFFCURVE",
"365 495 CURVE SMOOTH"
);
}
);
width = 729;
},
{
associatedMasterId = "1C7CD022-87C7-4E11-B656-E47B18819458";
layerId = "B9CF9C07-BA3C-4146-BB17-CDF92DD19D7D";
name = "{57, 5}";
paths = (
{
closed = 1;
nodes = (
"278 580 OFFCURVE",
"261 563 OFFCURVE",
"261 538 CURVE SMOOTH",
"261 512 OFFCURVE",
"278 494 OFFCURVE",
"304 494 CURVE SMOOTH",
"329 494 OFFCURVE",
"347 512 OFFCURVE",
"347 538 CURVE SMOOTH",
"347 563 OFFCURVE",
"329 580 OFFCURVE",
"304 580 CURVE SMOOTH"
);
},
{
closed = 1;
nodes = (
"407 580 OFFCURVE",
"390 563 OFFCURVE",
"390 538 CURVE SMOOTH",
"390 512 OFFCURVE",
"407 494 OFFCURVE",
"433 494 CURVE SMOOTH",
"458 494 OFFCURVE",
"476 512 OFFCURVE",
"476 538 CURVE SMOOTH",
"476 563 OFFCURVE",
"458 580 OFFCURVE",
"433 580 CURVE SMOOTH"
);
},
{
closed = 1;
nodes = (
"181 670 OFFCURVE",
"64 539 OFFCURVE",
"64 330 CURVE SMOOTH",
"64 121 OFFCURVE",
"181 -10 OFFCURVE",
"368 -10 CURVE SMOOTH",
"555 -10 OFFCURVE",
"672 121 OFFCURVE",
"672 330 CURVE SMOOTH",
"672 539 OFFCURVE",
"555 670 OFFCURVE",
"368 670 CURVE SMOOTH"
);
},
{
closed = 1;
nodes = (
"518 617 OFFCURVE",
"612 508 OFFCURVE",
"612 330 CURVE SMOOTH",
"612 152 OFFCURVE",
"518 43 OFFCURVE",
"368 43 CURVE SMOOTH",
"217 43 OFFCURVE",
"123 152 OFFCURVE",
"123 330 CURVE SMOOTH",
"123 508 OFFCURVE",
"217 617 OFFCURVE",
"368 617 CURVE SMOOTH"
);
}
);
width = 736;
},
{
associatedMasterId = "4A17B37A-CBFD-40E5-9E02-2080A0E1F76C";
background = {
components = (
{
name = O;
}
);
};
layerId = "195D12CB-996B-411C-AA50-36EC5E228A90";
name = "{137, 5}";
paths = (
{
closed = 1;
nodes = (
"29 662 OFFCURVE",
"5 640 OFFCURVE",
"5 604 CURVE SMOOTH",
"5 570 OFFCURVE",
"29 547 OFFCURVE",
"65 547 CURVE SMOOTH",
"103 547 OFFCURVE",
"127 570 OFFCURVE",
"127 604 CURVE SMOOTH",
"127 640 OFFCURVE",
"103 662 OFFCURVE",
"65 662 CURVE SMOOTH"
);
},
{
closed = 1;
nodes = (
"638 662 OFFCURVE",
"614 640 OFFCURVE",
"614 605 CURVE SMOOTH",
"614 569 OFFCURVE",
"638 547 OFFCURVE",
"675 547 CURVE SMOOTH",
"712 547 OFFCURVE",
"736 569 OFFCURVE",
"736 605 CURVE SMOOTH",
"736 640 OFFCURVE",
"712 662 OFFCURVE",
"675 662 CURVE SMOOTH"
);
},
{
closed = 1;
nodes = (
"174 670 OFFCURVE",
"53 541 OFFCURVE",
"53 330 CURVE SMOOTH",
"53 119 OFFCURVE",
"174 -10 OFFCURVE",
"370 -10 CURVE SMOOTH",
"566 -10 OFFCURVE",
"687 119 OFFCURVE",
"687 330 CURVE SMOOTH",
"687 541 OFFCURVE",
"566 670 OFFCURVE",
"370 670 CURVE SMOOTH"
);
},
{
closed = 1;
nodes = (
"481 557 OFFCURVE",
"545 477 OFFCURVE",
"545 330 CURVE SMOOTH",
"545 183 OFFCURVE",
"481 103 OFFCURVE",
"371 103 CURVE SMOOTH",
"260 103 OFFCURVE",
"196 183 OFFCURVE",
"196 330 CURVE SMOOTH",
"196 477 OFFCURVE",
"260 557 OFFCURVE",
"371 557 CURVE SMOOTH"
);
}
);
width = 741;
},
{
associatedMasterId = "4A17B37A-CBFD-40E5-9E02-2080A0E1F76C";
background = {
components = (
{
name = O;
}
);
};
layerId = "1E0BBCA1-4EDF-408A-AC3C-29CF20F5CB6A";
name = "{107, 5}";
paths = (
{
closed = 1;
nodes = (
"49 662 OFFCURVE",
"26 640 OFFCURVE",
"26 606 CURVE SMOOTH",
"26 573 OFFCURVE",
"49 550 OFFCURVE",
"83 550 CURVE SMOOTH",
"118 550 OFFCURVE",
"141 573 OFFCURVE",
"141 606 CURVE SMOOTH",
"141 640 OFFCURVE",
"118 662 OFFCURVE",
"83 662 CURVE SMOOTH"
);
},
{
closed = 1;
nodes = (
"627 662 OFFCURVE",
"604 640 OFFCURVE",
"604 607 CURVE SMOOTH",
"604 572 OFFCURVE",
"627 550 OFFCURVE",
"662 550 CURVE SMOOTH",
"696 550 OFFCURVE",
"719 572 OFFCURVE",
"719 607 CURVE SMOOTH",
"719 640 OFFCURVE",
"696 662 OFFCURVE",
"662 662 CURVE SMOOTH"
);
},
{
closed = 1;
nodes = (
"180 670 OFFCURVE",
"61 540 OFFCURVE",
"61 330 CURVE SMOOTH",
"61 120 OFFCURVE",
"180 -10 OFFCURVE",
"372 -10 CURVE SMOOTH",
"564 -10 OFFCURVE",
"683 120 OFFCURVE",
"683 330 CURVE SMOOTH",
"683 540 OFFCURVE",
"564 670 OFFCURVE",
"372 670 CURVE SMOOTH"
);
},
{
closed = 1;
nodes = (
"497 577 OFFCURVE",
"572 487 OFFCURVE",
"572 330 CURVE SMOOTH",
"572 173 OFFCURVE",
"497 83 OFFCURVE",
"373 83 CURVE SMOOTH",
"248 83 OFFCURVE",
"173 173 OFFCURVE",
"173 330 CURVE SMOOTH",
"173 487 OFFCURVE",
"248 577 OFFCURVE",
"373 577 CURVE SMOOTH"
);
}
);
width = 745;
}
);
leftKerningGroup = O;
rightKerningGroup = O;
},
{
color = 4;
glyphname = Udieresis.titl;
lastChange = "2015-12-28 14:53:01 +0000";
layers = (
{
layerId = "1C7CD022-87C7-4E11-B656-E47B18819458";
name = Light;
paths = (
{
closed = 1;
nodes = (
"427 618 OFFCURVE",
"436 627 OFFCURVE",
"436 640 CURVE SMOOTH",
"436 653 OFFCURVE",
"427 662 OFFCURVE",
"414 662 CURVE SMOOTH",
"401 662 OFFCURVE",
"392 653 OFFCURVE",
"392 640 CURVE SMOOTH",
"392 627 OFFCURVE",
"401 618 OFFCURVE",
"414 618 CURVE SMOOTH"
);
},
{
closed = 1;
nodes = (
"277 618 OFFCURVE",
"286 627 OFFCURVE",
"286 640 CURVE SMOOTH",
"286 653 OFFCURVE",
"277 662 OFFCURVE",
"264 662 CURVE SMOOTH",
"251 662 OFFCURVE",
"242 653 OFFCURVE",
"242 640 CURVE SMOOTH",
"242 627 OFFCURVE",
"251 618 OFFCURVE",
"264 618 CURVE SMOOTH"
);
},
{
closed = 1;
nodes = (
"573 660 LINE",
"573 235 LINE SMOOTH",
"573 88 OFFCURVE",
"486 4 OFFCURVE",
"340 4 CURVE SMOOTH",
"194 4 OFFCURVE",
"107 88 OFFCURVE",
"107 235 CURVE SMOOTH",
"107 660 LINE",
"91 660 LINE",
"91 235 LINE SMOOTH",
"91 78 OFFCURVE",
"184 -10 OFFCURVE",
"340 -10 CURVE SMOOTH",
"496 -10 OFFCURVE",
"589 78 OFFCURVE",
"589 235 CURVE SMOOTH",
"589 660 LINE"
);
}
);
width = 680;
},
{
layerId = "4A17B37A-CBFD-40E5-9E02-2080A0E1F76C";
name = Regular;
paths = (
{
closed = 1;
nodes = (
"454 553 OFFCURVE",
"476 575 OFFCURVE",
"476 608 CURVE SMOOTH",
"476 640 OFFCURVE",
"454 662 OFFCURVE",
"422 662 CURVE SMOOTH",
"389 662 OFFCURVE",
"367 640 OFFCURVE",
"367 608 CURVE SMOOTH",
"367 575 OFFCURVE",
"389 553 OFFCURVE",
"422 553 CURVE SMOOTH"
);
},
{
closed = 1;
nodes = (
"311 553 OFFCURVE",
"333 575 OFFCURVE",
"333 608 CURVE SMOOTH",
"333 640 OFFCURVE",
"311 662 OFFCURVE",
"278 662 CURVE SMOOTH",
"246 662 OFFCURVE",
"224 640 OFFCURVE",
"224 608 CURVE SMOOTH",
"224 575 OFFCURVE",
"246 553 OFFCURVE",
"278 553 CURVE SMOOTH"
);
},
{
closed = 1;
nodes = (
"529 660 LINE",
"529 266 LINE SMOOTH",
"529 128 OFFCURVE",
"473 65 OFFCURVE",
"350 65 CURVE SMOOTH",
"227 65 OFFCURVE",
"171 128 OFFCURVE",
"171 266 CURVE SMOOTH",
"171 660 LINE",
"91 660 LINE",
"91 246 LINE SMOOTH",
"91 76 OFFCURVE",
"184 -10 OFFCURVE",
"350 -10 CURVE SMOOTH",
"517 -10 OFFCURVE",
"609 76 OFFCURVE",
"609 246 CURVE SMOOTH",
"609 660 LINE"
);
}
);
width = 700;
},
{
layerId = "99EB5860-B45A-4B60-BB0B-F826C8F71D42";
name = Bold;
paths = (
{
closed = 1;
nodes = (
"400 394 OFFCURVE",
"427 418 OFFCURVE",
"427 456 CURVE SMOOTH",
"427 496 OFFCURVE",
"400 520 OFFCURVE",
"354 520 CURVE SMOOTH",
"310 520 OFFCURVE",
"284 496 OFFCURVE",
"284 456 CURVE SMOOTH",
"284 418 OFFCURVE",
"310 394 OFFCURVE",
"354 394 CURVE SMOOTH"
);
},
{
closed = 1;
nodes = (
"400 536 OFFCURVE",
"427 560 OFFCURVE",
"427 600 CURVE SMOOTH",
"427 639 OFFCURVE",
"400 662 OFFCURVE",
"354 662 CURVE SMOOTH",
"310 662 OFFCURVE",
"284 639 OFFCURVE",
"284 600 CURVE SMOOTH",
"284 560 OFFCURVE",
"310 536 OFFCURVE",
"354 537 CURVE SMOOTH"
);
},
{
closed = 1;
nodes = (
"440 660 LINE",
"440 266 LINE SMOOTH",
"440 199 OFFCURVE",
"410 165 OFFCURVE",
"354 165 CURVE SMOOTH",
"299 165 OFFCURVE",
"269 199 OFFCURVE",
"269 266 CURVE SMOOTH",
"269 660 LINE",
"35 660 LINE",
"35 284 LINE SMOOTH",
"35 87 OFFCURVE",
"141 -10 OFFCURVE",
"354 -10 CURVE SMOOTH",
"567 -10 OFFCURVE",
"673 87 OFFCURVE",
"673 284 CURVE SMOOTH",
"673 660 LINE"
);
}
);
width = 708;
},
{
associatedMasterId = "4A17B37A-CBFD-40E5-9E02-2080A0E1F76C";
layerId = "E48143C7-C230-47D3-B4DB-EA5D82A62BDC";
name = "{107, 5}";
paths = (
{
closed = 1;
nodes = (
"469 550 OFFCURVE",
"492 573 OFFCURVE",
"492 607 CURVE SMOOTH",
"492 640 OFFCURVE",
"469 662 OFFCURVE",
"434 662 CURVE SMOOTH",
"400 662 OFFCURVE",
"377 640 OFFCURVE",
"377 607 CURVE SMOOTH",
"377 573 OFFCURVE",
"400 550 OFFCURVE",
"434 550 CURVE SMOOTH"
);
},
{
closed = 1;
nodes = (
"319 550 OFFCURVE",
"342 573 OFFCURVE",
"342 607 CURVE SMOOTH",
"342 640 OFFCURVE",
"319 662 OFFCURVE",
"284 662 CURVE SMOOTH",
"250 662 OFFCURVE",
"227 640 OFFCURVE",
"227 607 CURVE SMOOTH",
"227 573 OFFCURVE",
"250 550 OFFCURVE",
"284 550 CURVE SMOOTH"
);
},
{
closed = 1;
nodes = (
"521 660 LINE",
"521 266 LINE SMOOTH",
"521 141 OFFCURVE",
"470 83 OFFCURVE",
"359 83 CURVE SMOOTH",
"248 83 OFFCURVE",
"197 141 OFFCURVE",
"197 266 CURVE SMOOTH",
"197 660 LINE",
"89 660 LINE",
"89 253 LINE SMOOTH",
"89 78 OFFCURVE",
"184 -10 OFFCURVE",
"359 -10 CURVE SMOOTH",
"534 -10 OFFCURVE",
"629 78 OFFCURVE",
"629 253 CURVE SMOOTH",
"629 660 LINE"
);
}
);
width = 718;
},
{
associatedMasterId = "4A17B37A-CBFD-40E5-9E02-2080A0E1F76C";
layerId = "AE0E93AC-C92B-4C2C-8EE9-CFE8B3EE0737";
name = "{137, 5}";
paths = (
{
closed = 1;
nodes = (
"400 376 OFFCURVE",
"427 400 OFFCURVE",
"427 440 CURVE SMOOTH",
"427 479 OFFCURVE",
"400 503 OFFCURVE",
"358 503 CURVE SMOOTH",
"316 503 OFFCURVE",
"290 479 OFFCURVE",
"290 440 CURVE SMOOTH",
"290 400 OFFCURVE",
"316 376 OFFCURVE",
"358 376 CURVE SMOOTH"
);
},
{
closed = 1;
nodes = (
"400 535 OFFCURVE",
"427 559 OFFCURVE",
"427 600 CURVE SMOOTH",
"427 638 OFFCURVE",
"400 662 OFFCURVE",
"358 662 CURVE SMOOTH",
"316 662 OFFCURVE",
"290 638 OFFCURVE",
"290 600 CURVE SMOOTH",
"290 559 OFFCURVE",
"316 535 OFFCURVE",
"358 535 CURVE SMOOTH"
);
},
{
closed = 1;
nodes = (
"501 660 LINE",
"501 266 LINE SMOOTH",
"501 155 OFFCURVE",
"456 103 OFFCURVE",
"358 103 CURVE SMOOTH",
"261 103 OFFCURVE",
"215 155 OFFCURVE",
"215 266 CURVE SMOOTH",
"215 660 LINE",
"76 660 LINE",
"76 261 LINE SMOOTH",
"76 80 OFFCURVE",
"174 -10 OFFCURVE",
"358 -10 CURVE SMOOTH",
"542 -10 OFFCURVE",
"640 80 OFFCURVE",
"640 261 CURVE SMOOTH",
"640 660 LINE"
);
}
);
width = 716;
}
);
leftKerningGroup = U;
rightKerningGroup = U;
},
{
color = 4;
glyphname = Ydieresis.titl;
lastChange = "2015-12-28 14:53:01 +0000";
layers = (
{
layerId = "1C7CD022-87C7-4E11-B656-E47B18819458";
name = Light;
paths = (
{
closed = 1;
nodes = (
"332 626 OFFCURVE",
"342 636 OFFCURVE",
"342 648 CURVE SMOOTH",
"342 660 OFFCURVE",
"332 670 OFFCURVE",
"320 670 CURVE SMOOTH",
"308 670 OFFCURVE",
"298 660 OFFCURVE",
"298 648 CURVE SMOOTH",
"298 636 OFFCURVE",
"308 626 OFFCURVE",
"320 626 CURVE SMOOTH"
);
},
{
closed = 1;
nodes = (
"202 626 OFFCURVE",
"212 636 OFFCURVE",
"212 648 CURVE SMOOTH",
"212 660 OFFCURVE",
"202 670 OFFCURVE",
"190 670 CURVE SMOOTH",
"178 670 OFFCURVE",
"168 660 OFFCURVE",
"168 648 CURVE SMOOTH",
"168 636 OFFCURVE",
"178 626 OFFCURVE",
"190 626 CURVE SMOOTH"
);
},
{
closed = 1;
nodes = (
"477 660 LINE",
"348 434 LINE",
"256 273 LINE",
"164 434 LINE",
"35 660 LINE",
"16 660 LINE",
"248 256 LINE",
"248 0 LINE",
"264 0 LINE",
"264 256 LINE",
"496 660 LINE"
);
}
);
width = 512;
},
{
layerId = "4A17B37A-CBFD-40E5-9E02-2080A0E1F76C";
name = Regular;
paths = (
{
closed = 1;
nodes = (
"374 561 OFFCURVE",
"396 583 OFFCURVE",
"396 616 CURVE SMOOTH",
"396 648 OFFCURVE",
"374 670 OFFCURVE",
"342 670 CURVE SMOOTH",
"309 670 OFFCURVE",
"287 648 OFFCURVE",
"287 616 CURVE SMOOTH",
"287 583 OFFCURVE",
"309 561 OFFCURVE",
"342 561 CURVE SMOOTH"
);
},
{
closed = 1;
nodes = (
"243 561 OFFCURVE",
"265 583 OFFCURVE",
"265 616 CURVE SMOOTH",
"265 648 OFFCURVE",
"243 670 OFFCURVE",
"210 670 CURVE SMOOTH",
"178 670 OFFCURVE",
"156 648 OFFCURVE",
"156 616 CURVE SMOOTH",
"156 583 OFFCURVE",
"178 561 OFFCURVE",
"210 561 CURVE SMOOTH"
);
},
{
closed = 1;
nodes = (
"457 660 LINE",
"329 434 LINE",
"276 340 LINE",
"223 434 LINE",
"95 660 LINE",
"0 660 LINE",
"236 258 LINE",
"236 0 LINE",
"316 0 LINE",
"316 258 LINE",
"552 660 LINE"
);
}
);
width = 552;
},
{
layerId = "99EB5860-B45A-4B60-BB0B-F826C8F71D42";
name = Bold;
paths = (
{
closed = 1;
nodes = (
"540 698 OFFCURVE",
"578 731 OFFCURVE",
"578 789 CURVE SMOOTH",
"578 847 OFFCURVE",
"540 880 OFFCURVE",
"473 880 CURVE SMOOTH",
"408 880 OFFCURVE",
"371 847 OFFCURVE",
"371 789 CURVE SMOOTH",
"371 731 OFFCURVE",
"408 698 OFFCURVE",
"473 698 CURVE SMOOTH"
);
},
{
closed = 1;
nodes = (
"303 698 OFFCURVE",
"341 731 OFFCURVE",
"341 789 CURVE SMOOTH",
"341 847 OFFCURVE",
"303 880 OFFCURVE",
"236 880 CURVE SMOOTH",
"171 880 OFFCURVE",
"134 847 OFFCURVE",
"134 789 CURVE SMOOTH",
"134 731 OFFCURVE",
"171 698 OFFCURVE",
"236 698 CURVE SMOOTH"
);
},
{
closed = 1;
nodes = (
"475 660 LINE",
"405 509 LINE",
"358 389 LINE",
"311 509 LINE",
"241 660 LINE",
"9 660 LINE",
"240 229 LINE",
"240 0 LINE",
"473 0 LINE",
"473 229 LINE",
"704.006 660 LINE"
);
}
);
width = 713;
},
{
associatedMasterId = "4A17B37A-CBFD-40E5-9E02-2080A0E1F76C";
layerId = "0E3AB2F4-ACFC-4D6F-A7CE-76F458009A27";
name = "{137, 5}";
paths = (
{
closed = 1;
nodes = (
"443 613 OFFCURVE",
"471 639 OFFCURVE",
"471 682 CURVE SMOOTH",
"471 724 OFFCURVE",
"443 750 OFFCURVE",
"398 750 CURVE SMOOTH",
"353 750 OFFCURVE",
"325 724 OFFCURVE",
"325 682 CURVE SMOOTH",
"325 639 OFFCURVE",
"353 613 OFFCURVE",
"398 613 CURVE SMOOTH"
);
},
{
closed = 1;
nodes = (
"272 613 OFFCURVE",
"300 639 OFFCURVE",
"300 682 CURVE SMOOTH",
"300 724 OFFCURVE",
"272 750 OFFCURVE",
"226 750 CURVE SMOOTH",
"182 750 OFFCURVE",
"154 724 OFFCURVE",
"154 682 CURVE SMOOTH",
"154 639 OFFCURVE",
"182 613 OFFCURVE",
"226 613 CURVE SMOOTH"
);
},
{
closed = 1;
nodes = (
"470 660 LINE",
"364 463 LINE",
"314 359 LINE",
"263 463 LINE",
"157 660 LINE",
"10 660 LINE",
"244 247 LINE",
"244 0 LINE",
"382 0 LINE",
"382 247 LINE",
"616 660 LINE"
);
}
);
width = 626;
}
);
leftKerningGroup = Y;
rightKerningGroup = Y;
},
{
color = 4;
glyphname = a;
lastChange = "2016-03-15 16:18:36 +0000";
layers = (
{
anchors = (
{
name = ogonek;
position = "{493, 0}";
},
{
name = top;
position = "{291, 500}";
}
);
layerId = "4A17B37A-CBFD-40E5-9E02-2080A0E1F76C";
name = Regular;
paths = (
{
closed = 1;
nodes = (
"164 510 OFFCURVE",
"85 462 OFFCURVE",
"59 388 CURVE",
"118 345 LINE",
"145 408 OFFCURVE",
"205 440 OFFCURVE",
"281 440 CURVE SMOOTH",
"356 440 OFFCURVE",
"408 396 OFFCURVE",
"408 330 CURVE SMOOTH",
"408 112 LINE",
"408 102 LINE SMOOTH",
"408 1 OFFCURVE",
"408 11 OFFCURVE",
"408 -9 CURVE",
"488 -8 LINE",
"488 18 OFFCURVE",
"488 55 OFFCURVE",
"488 94 CURVE SMOOTH",
"488 340 LINE SMOOTH",
"488 456 OFFCURVE",
"395 510 OFFCURVE",
"281 510 CURVE SMOOTH"
);
},
{
closed = 1;
nodes = (
"311 298 OFFCURVE",
"242 291 OFFCURVE",
"178 271 CURVE SMOOTH",
"100 247 OFFCURVE",
"50 194 OFFCURVE",
"50 124 CURVE SMOOTH",
"50 34 OFFCURVE",
"126 -10 OFFCURVE",
"230 -10 CURVE SMOOTH",
"318 -10 OFFCURVE",
"430 42 OFFCURVE",
"430 125 CURVE",
"408 168 LINE",
"408 102 OFFCURVE",
"314 57 OFFCURVE",
"234 57 CURVE SMOOTH",
"177 57 OFFCURVE",
"130 82 OFFCURVE",
"130 124 CURVE SMOOTH",
"130 168 OFFCURVE",
"161 198 OFFCURVE",
"203 210 CURVE SMOOTH",
"256 225 OFFCURVE",
"322 233 OFFCURVE",
"452 236 CURVE",
"441 299 LINE"
);
}
);
width = 553;
},
{
anchors = (
{
name = ogonek;
position = "{535, 10}";
},
{
name = top;
position = "{299, 500}";
}
);
layerId = "99EB5860-B45A-4B60-BB0B-F826C8F71D42";
name = Bold;
paths = (
{
closed = 1;
nodes = (
"134 510 OFFCURVE",
"51 441 OFFCURVE",
"41 329 CURVE",
"231 300 LINE",
"233 349 OFFCURVE",
"256 361 OFFCURVE",
"284 361 CURVE SMOOTH",
"313 361 OFFCURVE",
"329 343 OFFCURVE",
"329 312 CURVE SMOOTH",
"329 114 LINE",
"361 119 LINE",
"361 17 OFFCURVE",
"361 8 OFFCURVE",
"361 0 CURVE",
"557 0 LINE",
"557 11 OFFCURVE",
"557 125 OFFCURVE",
"557 164 CURVE SMOOTH",
"557 304 LINE SMOOTH",
"557 441 OFFCURVE",
"476 510 OFFCURVE",
"297 510 CURVE SMOOTH"
);
},
{
closed = 1;
nodes = (
"226 269 OFFCURVE",
"215 267 OFFCURVE",
"216 267 CURVE SMOOTH",
"84 236 OFFCURVE",
"35 189 OFFCURVE",
"35 109 CURVE SMOOTH",
"35 33 OFFCURVE",
"84 -15 OFFCURVE",
"189 -15 CURVE SMOOTH",
"331 -15 OFFCURVE",
"391 56 OFFCURVE",
"391 166 CURVE",
"329 166 LINE",
"329 133 OFFCURVE",
"310 119 OFFCURVE",
"286 119 CURVE SMOOTH",
"267 119 OFFCURVE",
"251 129 OFFCURVE",
"251 153 CURVE SMOOTH",
"251 164 OFFCURVE",
"260 181 OFFCURVE",
"293 192 CURVE SMOOTH",
"307 197 OFFCURVE",
"331 205 OFFCURVE",
"379 214 CURVE",
"361 299 LINE"
);
}
);
width = 597;
},
{
anchors = (
{
name = ogonek;
position = "{558, -1}";
},
{
name = top;
position = "{282, 501}";
}
);
layerId = "1C7CD022-87C7-4E11-B656-E47B18819458";
name = Light;
paths = (
{
closed = 1;
nodes = (
"167 510 OFFCURVE",
"96 471 OFFCURVE",
"65 388 CURVE",
"78 378 LINE",
"108 462 OFFCURVE",
"176 494 OFFCURVE",
"267 494 CURVE SMOOTH",
"370 494 OFFCURVE",
"441 441 OFFCURVE",
"441 348 CURVE SMOOTH",
"441 113 LINE",
"441 82 LINE SMOOTH",
"441 42 OFFCURVE",
"441 9 OFFCURVE",
"441 0 CURVE",
"457 0 LINE",
"457 8 OFFCURVE",
"457 50 OFFCURVE",
"457 76 CURVE SMOOTH",
"457 348 LINE SMOOTH",
"457 453 OFFCURVE",
"380 510 OFFCURVE",
"267 510 CURVE SMOOTH"
);
},
{
closed = 1;
nodes = (
"302 282 OFFCURVE",
"272 276 OFFCURVE",
"242 271 CURVE SMOOTH",
"107 250 OFFCURVE",
"55 206 OFFCURVE",
"55 128 CURVE SMOOTH",
"55 54 OFFCURVE",
"113 -10 OFFCURVE",
"221 -10 CURVE SMOOTH",
"319 -10 OFFCURVE",
"449 37 OFFCURVE",
"449 140 CURVE",
"441 151 LINE",
"441 47 OFFCURVE",
"304 4 OFFCURVE",
"226 4 CURVE SMOOTH",
"125 4 OFFCURVE",
"71 63 OFFCURVE",
"71 128 CURVE SMOOTH",
"71 194 OFFCURVE",
"117 236 OFFCURVE",
"252 258 CURVE SMOOTH",
"280 263 OFFCURVE",
"311 267 OFFCURVE",
"448 285 CURVE",
"446 301 LINE"
);
}
);
width = 547;
}
);
leftKerningGroup = a;
unicode = 0061;
},
{
color = 4;
glyphname = aogonek;
lastChange = "2015-12-28 15:17:08 +0000";
layers = (
{
components = (
{
name = bowl;
transform = "{1, 0, 0, 1, -18, 0}";
}
);
guideLines = (
{
angle = 90;
position = "{1108, 188}";
}
);
hints = (
{
horizontal = 1;
origin = "{0, 5}";
target = "{0, 12}";
type = Stem;
},
{
horizontal = 1;
origin = "{0, 18}";
target = "{0, 19}";
type = Stem;
},
{
horizontal = 1;
place = "{510, -70}";
type = Stem;
},
{
horizontal = 1;
origin = "{0, 18}";
target = up;
type = BottomGhost;
},
{
origin = "{0, 2}";
target = "{0, 2}";
type = Stem;
},
{
origin = "{0, 18}";
place = "{551, 2147483647}";
type = Stem;
}
);
layerId = "4A17B37A-CBFD-40E5-9E02-2080A0E1F76C";
name = Regular;
paths = (
{
closed = 1;
nodes = (
"416 -6 OFFCURVE",
"362 -49 OFFCURVE",
"362 -119 CURVE SMOOTH",
"362 -177 OFFCURVE",
"407 -215 OFFCURVE",
"479 -215 CURVE SMOOTH",
"508 -215 OFFCURVE",
"537 -209 OFFCURVE",
"556 -197 CURVE",
"540 -146 LINE",
"524 -156 OFFCURVE",
"502 -158 OFFCURVE",
"485 -158 CURVE SMOOTH",
"447 -158 OFFCURVE",
"427 -138 OFFCURVE",
"427 -105 CURVE SMOOTH",
"427 -65 OFFCURVE",
"453 -30 OFFCURVE",
"551 0 CURVE",
"505 26 LINE"
);
},
{
closed = 1;
nodes = (
"471 500 LINE",
"471 449 LINE",
"471 361 LINE",
"471 123 LINE",
"474 117 LINE",
"474 0 LINE",
"551 0 LINE",
"551 117 LINE",
"551 500 LINE"
);
}
);
width = 615;
},
{
components = (
{
name = bowl;
transform = "{1, 0, 0, 1, -37, 0}";
}
);
guideLines = (
{
angle = 90;
position = "{641, 127}";
}
);
hints = (
{
horizontal = 1;
origin = "{0, 5}";
target = "{0, 12}";
type = Stem;
},
{
horizontal = 1;
place = "{510, -149}";
type = Stem;
},
{
horizontal = 1;
origin = "{0, 18}";
target = "{0, 19}";
type = Stem;
},
{
origin = "{0, 2}";
target = "{0, 12}";
type = Stem;
},
{
place = "{16, 349}";
type = Stem;
}
);
layerId = "99EB5860-B45A-4B60-BB0B-F826C8F71D42";
name = Bold;
paths = (
{
closed = 1;
nodes = (
"423 27 OFFCURVE",
"365 -17 OFFCURVE",
"365 -90 CURVE SMOOTH",
"365 -180 OFFCURVE",
"434 -215 OFFCURVE",
"517 -215 CURVE SMOOTH",
"567 -215 OFFCURVE",
"603 -209 OFFCURVE",
"635 -189 CURVE",
"608 -86 LINE",
"598 -92 OFFCURVE",
"583 -94 OFFCURVE",
"568 -94 CURVE SMOOTH",
"537 -94 OFFCURVE",
"519 -80 OFFCURVE",
"519 -56 CURVE SMOOTH",
"519 -18 OFFCURVE",
"555 -1 OFFCURVE",
"623 5 CURVE",
"525 27 LINE"
);
},
{
closed = 1;
nodes = (
"416 500 LINE",
"416 410 LINE",
"393 364 LINE",
"393 149 LINE",
"422 92 LINE",
"422 0 LINE",
"623 0 LINE",
"623 219 LINE",
"623 500 LINE"
);
}
);
width = 670;
},
{
components = (
{
alignment = -1;
name = bowl;
transform = "{1, 0, 0, 1, -76, 0}";
}
);
guideLines = (
{
angle = 270;
position = "{516, 13}";
}
);
hints = (
{
horizontal = 1;
origin = "{0, 5}";
target = "{0, 12}";
type = Stem;
},
{
horizontal = 1;
place = "{-10, 14}";
type = Stem;
},
{
horizontal = 1;
place = "{510, -14}";
type = Stem;
},
{
horizontal = 1;
origin = "{0, 18}";
target = up;
type = BottomGhost;
},
{
place = "{46, 16}";
type = Stem;
},
{
place = "{407, 16}";
type = Stem;
}
);
layerId = "1C7CD022-87C7-4E11-B656-E47B18819458";
leftMetricsKey = "=a";
rightMetricsKey = "=a";
name = Light;
paths = (
{
closed = 1;
nodes = (
"410 -33 OFFCURVE",
"365 -70 OFFCURVE",
"365 -126 CURVE SMOOTH",
"365 -174 OFFCURVE",
"405 -202 OFFCURVE",
"453 -202 CURVE SMOOTH",
"489 -202 OFFCURVE",
"506 -196 OFFCURVE",
"522 -185 CURVE",
"516 -172 LINE",
"502 -183 OFFCURVE",
"487 -188 OFFCURVE",
"453 -188 CURVE SMOOTH",
"413 -188 OFFCURVE",
"380 -165 OFFCURVE",
"380 -126 CURVE SMOOTH",
"380 -73 OFFCURVE",
"429 -42 OFFCURVE",
"528 0 CURVE",
"516 11 LINE"
);
},
{
closed = 1;
nodes = (
"512 500 LINE",
"512 459 LINE",
"512 345 LINE",
"512 184 LINE",
"512 175 LINE",
"512 0 LINE",
"528 0 LINE",
"528 101 LINE",
"528 500 LINE"
);
}
);
width = 584;
}
);
leftKerningGroup = a;
rightKerningGroup = a;
unicode = 0105;
},
{
color = 4;
glyphname = ae;
lastChange = "2015-12-28 15:17:08 +0000";
layers = (
{
hints = (
{
horizontal = 1;
origin = "{1, 21}";
target = "{1, 6}";
type = Stem;
},
{
horizontal = 1;
origin = "{2, 4}";
target = "{2, 11}";
type = Stem;
}
);
layerId = "4A17B37A-CBFD-40E5-9E02-2080A0E1F76C";
name = Regular;
paths = (
{
closed = 1;
nodes = (
"715 -10 OFFCURVE",
"767 31 OFFCURVE",
"805 99 CURVE",
"738 134 LINE",
"720 86 OFFCURVE",
"680 60 OFFCURVE",
"607 60 CURVE SMOOTH",
"518 60 OFFCURVE",
"453 131 OFFCURVE",
"453 250 CURVE SMOOTH",
"453 369 OFFCURVE",
"512 440 OFFCURVE",
"601 440 CURVE SMOOTH",
"695 440 OFFCURVE",
"738 370 OFFCURVE",
"740 260 CURVE",
"776 291 LINE",
"407 291 LINE",
"407 220 LINE",
"811 220 LINE",
"813 234 OFFCURVE",
"815 253 OFFCURVE",
"815 276 CURVE SMOOTH",
"815 405 OFFCURVE",
"746 510 OFFCURVE",
"601 510 CURVE SMOOTH",
"473 510 OFFCURVE",
"391 402 OFFCURVE",
"391 250 CURVE SMOOTH",
"391 68 OFFCURVE",
"478 -10 OFFCURVE",
"607 -10 CURVE SMOOTH"
);
},
{
closed = 1;
nodes = (
"328 -10 OFFCURVE",
"424 54 OFFCURVE",
"424 179 CURVE",
"382 198 LINE",
"382 112 OFFCURVE",
"306 60 OFFCURVE",
"224 60 CURVE SMOOTH",
"163 60 OFFCURVE",
"130 81 OFFCURVE",
"130 124 CURVE SMOOTH",
"130 171 OFFCURVE",
"166 195 OFFCURVE",
"254 209 CURVE SMOOTH",
"424 236 LINE",
"413 296 LINE",
"233 273 LINE SMOOTH",
"110 257 OFFCURVE",
"47 199 OFFCURVE",
"47 124 CURVE SMOOTH",
"47 42 OFFCURVE",
"112 -10 OFFCURVE",
"210 -10 CURVE SMOOTH"
);
},
{
closed = 1;
nodes = (
"450 188 LINE",
"450 290 LINE SMOOTH",
"450 435 OFFCURVE",
"376 510 OFFCURVE",
"261 510 CURVE SMOOTH",
"165 510 OFFCURVE",
"85 465 OFFCURVE",
"56 388 CURVE",
"115 345 LINE",
"142 408 OFFCURVE",
"193 440 OFFCURVE",
"259 440 CURVE SMOOTH",
"338 440 OFFCURVE",
"382 396 OFFCURVE",
"382 330 CURVE SMOOTH",
"382 181 LINE"
);
}
);
width = 864;
},
{
hints = (
{
horizontal = 1;
origin = "{1, 21}";
target = "{1, 6}";
type = Stem;
},
{
horizontal = 1;
origin = "{2, 4}";
target = "{2, 11}";
type = Stem;
}
);
layerId = "99EB5860-B45A-4B60-BB0B-F826C8F71D42";
leftMetricsKey = "=a";
rightMetricsKey = "=e";
name = Bold;
paths = (
{
closed = 1;
nodes = (
"721 -10 OFFCURVE",
"821 37 OFFCURVE",
"844 136 CURVE",
"659 186 LINE",
"652 159 OFFCURVE",
"643 143 OFFCURVE",
"609 143 CURVE SMOOTH",
"561 143 OFFCURVE",
"528 159 OFFCURVE",
"528 246 CURVE SMOOTH",
"528 332 OFFCURVE",
"545 358 OFFCURVE",
"588 358 CURVE SMOOTH",
"631 358 OFFCURVE",
"639 320 OFFCURVE",
"639 248 CURVE",
"748 285 LINE",
"458 285 LINE",
"458 206 LINE",
"848 206 LINE",
"851 219 OFFCURVE",
"853 244 OFFCURVE",
"853 266 CURVE SMOOTH",
"853 412 OFFCURVE",
"763 510 OFFCURVE",
"597 510 CURVE SMOOTH",
"460 510 OFFCURVE",
"371 416 OFFCURVE",
"371 250 CURVE SMOOTH",
"371 84 OFFCURVE",
"448 -10 OFFCURVE",
"599 -10 CURVE SMOOTH"
);
},
{
closed = 1;
nodes = (
"361 -10 OFFCURVE",
"440 84 OFFCURVE",
"440 179 CURVE",
"311 161 LINE",
"311 118 OFFCURVE",
"286 106 OFFCURVE",
"264 106 CURVE SMOOTH",
"239 106 OFFCURVE",
"227 122 OFFCURVE",
"227 146 CURVE SMOOTH",
"227 176 OFFCURVE",
"243 190 OFFCURVE",
"278 199 CURVE SMOOTH",
"361 220 LINE",
"343 294 LINE",
"202 264 LINE SMOOTH",
"69 236 OFFCURVE",
"16 198 OFFCURVE",
"16 107 CURVE SMOOTH",
"16 39 OFFCURVE",
"62 -10 OFFCURVE",
"179 -10 CURVE SMOOTH"
);
},
{
closed = 1;
nodes = (
"499 148 LINE",
"499 304 LINE SMOOTH",
"499 431 OFFCURVE",
"399 510 OFFCURVE",
"257 510 CURVE SMOOTH",
"100 510 OFFCURVE",
"31 436 OFFCURVE",
"22 330 CURVE",
"212 300 LINE",
"216 348 OFFCURVE",
"231 362 OFFCURVE",
"265 362 CURVE SMOOTH",
"297 362 OFFCURVE",
"311 345 OFFCURVE",
"311 312 CURVE SMOOTH",
"311 112 LINE"
);
}
);
width = 873;
},
{
hints = (
{
horizontal = 1;
origin = "{1, 21}";
target = "{1, 6}";
type = Stem;
},
{
horizontal = 1;
origin = "{2, 4}";
target = "{2, 11}";
type = Stem;
}
);
layerId = "1C7CD022-87C7-4E11-B656-E47B18819458";
name = Light;
paths = (
{
closed = 1;
nodes = (
"717 -10 OFFCURVE",
"778 35 OFFCURVE",
"809 109 CURVE",
"796 116 LINE",
"767 46 OFFCURVE",
"711 4 OFFCURVE",
"616 4 CURVE SMOOTH",
"497 4 OFFCURVE",
"422 96 OFFCURVE",
"422 250 CURVE SMOOTH",
"422 404 OFFCURVE",
"496 496 OFFCURVE",
"615 496 CURVE SMOOTH",
"741 496 OFFCURVE",
"803 420 OFFCURVE",
"804 265 CURVE",
"811 272 LINE",
"418 272 LINE",
"418 257 LINE",
"818 257 LINE",
"818 259 OFFCURVE",
"818 262 OFFCURVE",
"818 264 CURVE SMOOTH",
"818 429 OFFCURVE",
"747 510 OFFCURVE",
"615 510 CURVE SMOOTH",
"487 510 OFFCURVE",
"407 413 OFFCURVE",
"407 250 CURVE SMOOTH",
"407 87 OFFCURVE",
"488 -10 OFFCURVE",
"616 -10 CURVE SMOOTH"
);
},
{
closed = 1;
nodes = (
"300 -10 OFFCURVE",
"418 37 OFFCURVE",
"418 180 CURVE",
"407 188 LINE",
"407 44 OFFCURVE",
"285 4 OFFCURVE",
"207 4 CURVE SMOOTH",
"125 4 OFFCURVE",
"62 38 OFFCURVE",
"62 108 CURVE SMOOTH",
"62 175 OFFCURVE",
"109 229 OFFCURVE",
"241 241 CURVE SMOOTH",
"414 257 LINE",
"412 271 LINE",
"230 253 LINE SMOOTH",
"99 240 OFFCURVE",
"46 187 OFFCURVE",
"46 108 CURVE SMOOTH",
"46 30 OFFCURVE",
"110 -10 OFFCURVE",
"202 -10 CURVE SMOOTH"
);
},
{
closed = 1;
nodes = (
"423 178 LINE",
"423 351 LINE SMOOTH",
"423 453 OFFCURVE",
"361 510 OFFCURVE",
"248 510 CURVE SMOOTH",
"148 510 OFFCURVE",
"87 471 OFFCURVE",
"56 388 CURVE",
"69 378 LINE",
"100 459 OFFCURVE",
"157 496 OFFCURVE",
"248 496 CURVE SMOOTH",
"351 496 OFFCURVE",
"407 441 OFFCURVE",
"407 345 CURVE SMOOTH",
"407 172 LINE"
);
}
);
width = 866;
},
{
associatedMasterId = "4A17B37A-CBFD-40E5-9E02-2080A0E1F76C";
background = {
paths = (
{
closed = 1;
nodes = (
"143 510 OFFCURVE",
"68 456 OFFCURVE",
"47 371 CURVE",
"156 325 LINE",
"171 388 OFFCURVE",
"213 410 OFFCURVE",
"271 410 CURVE SMOOTH",
"325 410 OFFCURVE",
"356 376 OFFCURVE",
"356 323 CURVE SMOOTH",
"356 112 LINE",
"368 108 LINE",
"368 22 OFFCURVE",
"414 -10 OFFCURVE",
"488 -10 CURVE SMOOTH",
"513 -10 OFFCURVE",
"535 -5 OFFCURVE",
"553 4 CURVE",
"563 87 LINE",
"553 84 OFFCURVE",
"541 83 OFFCURVE",
"529 83 CURVE SMOOTH",
"503 83 OFFCURVE",
"492 95 OFFCURVE",
"492 121 CURVE SMOOTH",
"492 326 LINE SMOOTH",
"492 450 OFFCURVE",
"404 510 OFFCURVE",
"265 510 CURVE SMOOTH"
);
},
{
closed = 1;
nodes = (
"236 276 LINE SMOOTH",
"102 251 OFFCURVE",
"41 196 OFFCURVE",
"41 118 CURVE SMOOTH",
"41 34 OFFCURVE",
"101 -10 OFFCURVE",
"196 -10 CURVE SMOOTH",
"317 -10 OFFCURVE",
"393 44 OFFCURVE",
"393 140 CURVE",
"356 163 LINE",
"356 110 OFFCURVE",
"291 83 OFFCURVE",
"239 83 CURVE SMOOTH",
"203 83 OFFCURVE",
"182 100 OFFCURVE",
"182 132 CURVE SMOOTH",
"182 165 OFFCURVE",
"205 181 OFFCURVE",
"249 191 CURVE SMOOTH",
"404 226 LINE",
"390 305 LINE"
);
},
{
closed = 1;
nodes = (
"719 -10 OFFCURVE",
"796 33 OFFCURVE",
"828 113 CURVE",
"716 154 LINE",
"702 114 OFFCURVE",
"664 92 OFFCURVE",
"606 92 CURVE SMOOTH",
"525 92 OFFCURVE",
"477 142 OFFCURVE",
"477 248 CURVE SMOOTH",
"477 355 OFFCURVE",
"519 409 OFFCURVE",
"597 409 CURVE SMOOTH",
"670 409 OFFCURVE",
"715 355 OFFCURVE",
"715 257 CURVE",
"751 294 LINE",
"435 294 LINE",
"435 198 LINE",
"835 198 LINE",
"837 211 OFFCURVE",
"839 238 OFFCURVE",
"839 252 CURVE SMOOTH",
"839 416 OFFCURVE",
"754 510 OFFCURVE",
"598 510 CURVE SMOOTH",
"437 510 OFFCURVE",
"346 414 OFFCURVE",
"346 250 CURVE SMOOTH",
"346 86 OFFCURVE",
"440 -10 OFFCURVE",
"606 -10 CURVE SMOOTH"
);
}
);
};
hints = (
{
horizontal = 1;
origin = "{2, 4}";
target = "{0, 12}";
type = Stem;
},
{
horizontal = 1;
origin = "{1, 21}";
target = "{1, 6}";
type = Stem;
}
);
layerId = "2DE3B94B-D4B3-4990-AED3-596ECEDF97E8";
name = "{137, 5}";
paths = (
{
closed = 1;
nodes = (
"724 -10 OFFCURVE",
"794 33 OFFCURVE",
"826 113 CURVE",
"715 154 LINE",
"701 114 OFFCURVE",
"673 92 OFFCURVE",
"614 92 CURVE SMOOTH",
"544 92 OFFCURVE",
"494 142 OFFCURVE",
"494 248 CURVE SMOOTH",
"494 355 OFFCURVE",
"536 409 OFFCURVE",
"610 409 CURVE SMOOTH",
"687 409 OFFCURVE",
"713 351 OFFCURVE",
"714 255 CURVE",
"772 292 LINE",
"433 292 LINE",
"433 208 LINE",
"832 208 LINE",
"834 223 OFFCURVE",
"836 247 OFFCURVE",
"836 272 CURVE SMOOTH",
"836 408 OFFCURVE",
"759 510 OFFCURVE",
"606 510 CURVE SMOOTH",
"475 510 OFFCURVE",
"390 407 OFFCURVE",
"390 250 CURVE SMOOTH",
"390 74 OFFCURVE",
"473 -10 OFFCURVE",
"611 -10 CURVE SMOOTH"
);
},
{
closed = 1;
nodes = (
"352 -10 OFFCURVE",
"446 45 OFFCURVE",
"446 179 CURVE",
"361 184 LINE",
"361 118 OFFCURVE",
"304 83 OFFCURVE",
"245 83 CURVE SMOOTH",
"200 83 OFFCURVE",
"182 100 OFFCURVE",
"182 132 CURVE SMOOTH",
"182 169 OFFCURVE",
"209 184 OFFCURVE",
"269 199 CURVE SMOOTH",
"406 230 LINE",
"392 304 LINE",
"227 272 LINE SMOOTH",
"101 248 OFFCURVE",
"41 199 OFFCURVE",
"41 118 CURVE SMOOTH",
"41 41 OFFCURVE",
"99 -10 OFFCURVE",
"204 -10 CURVE SMOOTH"
);
},
{
closed = 1;
nodes = (
"475 173 LINE",
"475 295 LINE SMOOTH",
"475 433 OFFCURVE",
"401 510 OFFCURVE",
"273 510 CURVE SMOOTH",
"146 510 OFFCURVE",
"70 454 OFFCURVE",
"49 366 CURVE",
"158 328 LINE",
"176 385 OFFCURVE",
"213 410 OFFCURVE",
"267 410 CURVE SMOOTH",
"328 410 OFFCURVE",
"361 377 OFFCURVE",
"361 323 CURVE SMOOTH",
"361 155 LINE"
);
}
);
width = 882;
}
);
leftKerningGroup = a;
rightKerningGroup = e;
rightMetricsKey = "=e";
unicode = 00E6;
},
{
color = 4;
glyphname = b;
lastChange = "2016-03-15 13:19:46 +0000";
layers = (
{
components = (
{
name = bowl;
transform = "{-1, 0, 0, 1, 631, 0}";
}
);
layerId = "4A17B37A-CBFD-40E5-9E02-2080A0E1F76C";
name = Regular;
paths = (
{
closed = 1;
nodes = (
"65 117 LINE",
"65 0 LINE",
"138 0 LINE",
"138 373 LINE",
"145 379 LINE",
"145 730 LINE",
"65 730 LINE"
);
}
);
width = 600;
},
{
components = (
{
name = bowl;
transform = "{-1, 0, 0, 1, 671, 1}";
}
);
layerId = "99EB5860-B45A-4B60-BB0B-F826C8F71D42";
leftMetricsKey = "=n";
rightMetricsKey = "=o+5";
name = Bold;
paths = (
{
closed = 1;
nodes = (
"40 219 LINE",
"40 0 LINE",
"232 0 LINE",
"232 376 LINE",
"270 419 LINE",
"270 700 LINE",
"40 700 LINE"
);
}
);
width = 624;
},
{
components = (
{
alignment = -1;
name = bowl;
transform = "{-1, 0, 0, 1, 682, 0}";
}
);
layerId = "1C7CD022-87C7-4E11-B656-E47B18819458";
name = Light;
paths = (
{
closed = 1;
nodes = (
"78 101 LINE",
"78 0 LINE",
"94 0 LINE",
"94 175 LINE",
"94 184 LINE",
"94 730 LINE",
"78 730 LINE"
);
}
);
width = 607;
}
);
leftKerningGroup = h;
rightKerningGroup = o;
unicode = 0062;
},
{
color = 4;
glyphname = c;
lastChange = "2016-03-15 16:25:26 +0000";
layers = (
{
anchors = (
{
name = bottomC;
position = "{282, 0}";
},
{
name = top;
position = "{284, 500}";
}
);
layerId = "4A17B37A-CBFD-40E5-9E02-2080A0E1F76C";
name = Regular;
paths = (
{
closed = 1;
nodes = (
"40 103 OFFCURVE",
"156 -9 OFFCURVE",
"298 -9 CURVE",
"390 -9 OFFCURVE",
"474 36 OFFCURVE",
"519 112 CURVE",
"454 149 LINE",
"420 94 OFFCURVE",
"364 66 OFFCURVE",
"298 66 CURVE",
"195 66 OFFCURVE",
"119 145 OFFCURVE",
"119 250 CURVE",
"119 355 OFFCURVE",
"195 438 OFFCURVE",
"298 438 CURVE",
"367 438 OFFCURVE",
"426 402 OFFCURVE",
"458 344 CURVE",
"520 382 LINE",
"475 460 OFFCURVE",
"391 511 OFFCURVE",
"298 511 CURVE",
"156 511 OFFCURVE",
"40 394 OFFCURVE",
"40 248 CURVE"
);
}
);
width = 550;
},
{
anchors = (
{
name = bottomC;
position = "{323, 0}";
},
{
name = top;
position = "{306, 500}";
}
);
layerId = "99EB5860-B45A-4B60-BB0B-F826C8F71D42";
name = Bold;
paths = (
{
closed = 1;
nodes = (
"25 95 OFFCURVE",
"144 -15 OFFCURVE",
"294 -15 CURVE",
"405 -15 OFFCURVE",
"490 42 OFFCURVE",
"531 140 CURVE",
"366 215 LINE",
"354 188 OFFCURVE",
"325 166 OFFCURVE",
"290 166 CURVE",
"250 166 OFFCURVE",
"213 203 OFFCURVE",
"213 246 CURVE",
"213 289 OFFCURVE",
"250 326 OFFCURVE",
"290 326 CURVE",
"325 326 OFFCURVE",
"356 303 OFFCURVE",
"367 274 CURVE",
"531 352 LINE",
"490 450 OFFCURVE",
"406 511 OFFCURVE",
"294 511 CURVE",
"144 511 OFFCURVE",
"25 397 OFFCURVE",
"25 247 CURVE"
);
}
);
width = 551;
},
{
anchors = (
{
name = bottomC;
position = "{304, 0}";
},
{
name = top;
position = "{321, 500}";
}
);
layerId = "1C7CD022-87C7-4E11-B656-E47B18819458";
name = Light;
paths = (
{
closed = 1;
nodes = (
"45 107 OFFCURVE",
"161 -10 OFFCURVE",
"305 -10 CURVE",
"394 -10 OFFCURVE",
"473 35 OFFCURVE",
"520 104 CURVE",
"507 113 LINE",
"463 48 OFFCURVE",
"390 6 OFFCURVE",
"306 6 CURVE",
"170 6 OFFCURVE",
"62 115 OFFCURVE",
"62 250 CURVE",
"62 385 OFFCURVE",
"170 494 OFFCURVE",
"306 494 CURVE",
"390 494 OFFCURVE",
"464 451 OFFCURVE",
"508 386 CURVE",
"520 395 LINE",
"474 464 OFFCURVE",
"394 510 OFFCURVE",
"305 510 CURVE",
"161 510 OFFCURVE",
"45 393 OFFCURVE",
"45 250 CURVE"
);
}
);
width = 560;
}
);
leftKerningGroup = o;
rightKerningGroup = c;
unicode = 0063;
},
{
color = 4;
glyphname = d;
lastChange = "2016-03-15 01:46:33 +0000";
layers = (
{
anchors = (
{
name = center;
position = "{295, 250}";
},
{
name = topright;
position = "{586, 730}";
}
);
components = (
{
name = bowl;
transform = "{1, 0, 0, 1, -32, 0}";
}
);
layerId = "4A17B37A-CBFD-40E5-9E02-2080A0E1F76C";
name = Regular;
paths = (
{
closed = 1;
nodes = (
"454 730 LINE",
"454 379 LINE",
"461 373 LINE",
"461 0 LINE",
"534 0 LINE",
"534 117 LINE",
"534 730 LINE"
);
}
);
width = 599;
},
{
anchors = (
{
name = center;
position = "{286, 250}";
},
{
name = topright;
position = "{619, 700}";
}
);
components = (
{
name = bowl;
transform = "{1, 0, 0, 1, -49, 1}";
}
);
layerId = "99EB5860-B45A-4B60-BB0B-F826C8F71D42";
leftMetricsKey = "=o+5";
rightMetricsKey = "=|n";
name = Bold;
paths = (
{
closed = 1;
nodes = (
"352 700 LINE",
"352 419 LINE",
"390 376 LINE",
"390 0 LINE",
"582 0 LINE",
"582 219 LINE",
"582 700 LINE"
);
}
);
width = 622;
},
{
anchors = (
{
name = center;
position = "{302, 281}";
},
{
name = topright;
position = "{612, 730}";
}
);
components = (
{
alignment = -1;
name = bowl;
transform = "{1, 0, 0, 1, -75, 0}";
}
);
layerId = "1C7CD022-87C7-4E11-B656-E47B18819458";
name = Light;
paths = (
{
closed = 1;
nodes = (
"513 730 LINE",
"513 184 LINE",
"513 175 LINE",
"513 0 LINE",
"529 0 LINE",
"529 101 LINE",
"529 730 LINE"
);
}
);
width = 614;
}
);
leftKerningGroup = o;
rightKerningGroup = d;
unicode = 0064;
},
{
color = 4;
glyphname = eth;
lastChange = "2015-12-28 15:17:08 +0000";
layers = (
{
layerId = "99EB5860-B45A-4B60-BB0B-F826C8F71D42";
name = Bold;
paths = (
{
closed = 1;
nodes = (
"156 717 LINE",
"328 591 OFFCURVE",
"415 521 OFFCURVE",
"415 318 CURVE",
"357 246 LINE",
"357 169 OFFCURVE",
"345 145 OFFCURVE",
"306 145 CURVE SMOOTH",
"269 145 OFFCURVE",
"258 171 OFFCURVE",
"258 246 CURVE SMOOTH",
"258 335 OFFCURVE",
"269 362 OFFCURVE",
"306 362 CURVE SMOOTH",
"345 362 OFFCURVE",
"357 335 OFFCURVE",
"357 246 CURVE",
"427 265 LINE",
"427 395 OFFCURVE",
"414 502 OFFCURVE",
"278 502 CURVE SMOOTH",
"126 502 OFFCURVE",
"27 409 OFFCURVE",
"27 246 CURVE SMOOTH",
"27 83 OFFCURVE",
"127 -10 OFFCURVE",
"289 -10 CURVE SMOOTH",
"491 -10 OFFCURVE",
"572 75 OFFCURVE",
"572 313 CURVE SMOOTH",
"572 543 OFFCURVE",
"435 671 OFFCURVE",
"341 717 CURVE"
);
},
{
closed = 1;
nodes = (
"172 604 LINE",
"183 544 LINE",
"353 573 LINE",
"318 616 LINE"
);
},
{
closed = 1;
nodes = (
"404 635 LINE",
"423 598 LINE",
"582 610 LINE",
"567 670 LINE"
);
}
);
width = 593;
},
{
layerId = "4A17B37A-CBFD-40E5-9E02-2080A0E1F76C";
name = Regular;
paths = (
{
closed = 1;
nodes = (
"195 730 LINE",
"391 626 OFFCURVE",
"447 519 OFFCURVE",
"470 322 CURVE",
"458 238 LINE",
"458 144 OFFCURVE",
"397 60 OFFCURVE",
"292 60 CURVE SMOOTH",
"196 60 OFFCURVE",
"135 126 OFFCURVE",
"135 238 CURVE SMOOTH",
"135 348 OFFCURVE",
"196 415 OFFCURVE",
"297 415 CURVE SMOOTH",
"397 415 OFFCURVE",
"458 348 OFFCURVE",
"458 238 CURVE",
"504 238 LINE",
"504 392 OFFCURVE",
"436 485 OFFCURVE",
"286 485 CURVE SMOOTH",
"153 485 OFFCURVE",
"52 392 OFFCURVE",
"52 238 CURVE SMOOTH",
"52 83 OFFCURVE",
"143 -10 OFFCURVE",
"288 -10 CURVE SMOOTH",
"457 -10 OFFCURVE",
"536 114 OFFCURVE",
"536 288 CURVE SMOOTH",
"536 491 OFFCURVE",
"462 638 OFFCURVE",
"306 730 CURVE"
);
},
{
closed = 1;
nodes = (
"178 594 LINE",
"188 545 LINE",
"409 602 LINE",
"378 638 LINE"
);
},
{
closed = 1;
nodes = (
"378 638 LINE",
"409 602 LINE",
"535 628 LINE",
"521 678 LINE"
);
}
);
width = 600;
},
{
layerId = "1C7CD022-87C7-4E11-B656-E47B18819458";
name = Light;
paths = (
{
closed = 1;
nodes = (
"239 730 LINE",
"381 676 OFFCURVE",
"497 535 OFFCURVE",
"497 290 CURVE",
"498 257 LINE",
"492 95 OFFCURVE",
"416 4 OFFCURVE",
"287 4 CURVE SMOOTH",
"150 4 OFFCURVE",
"67 95 OFFCURVE",
"67 237 CURVE SMOOTH",
"67 379 OFFCURVE",
"151 471 OFFCURVE",
"279 471 CURVE SMOOTH",
"424 471 OFFCURVE",
"498 366 OFFCURVE",
"498 257 CURVE",
"504 281 LINE",
"497 405 OFFCURVE",
"413 485 OFFCURVE",
"279 485 CURVE SMOOTH",
"142 485 OFFCURVE",
"51 388 OFFCURVE",
"51 237 CURVE SMOOTH",
"51 88 OFFCURVE",
"141 -10 OFFCURVE",
"287 -10 CURVE SMOOTH",
"425 -10 OFFCURVE",
"511 85 OFFCURVE",
"511 283 CURVE SMOOTH",
"511 550 OFFCURVE",
"398 672 OFFCURVE",
"270 730 CURVE"
);
},
{
closed = 1;
nodes = (
"224 587 LINE",
"228 574 LINE",
"414 613 LINE",
"406 625 LINE"
);
},
{
closed = 1;
nodes = (
"406 625 LINE",
"414 613 LINE",
"530 638 LINE",
"526 651 LINE"
);
}
);
width = 577;
}
);
unicode = 00F0;
},
{
color = 4;
glyphname = dcroat;
lastChange = "2015-12-28 15:17:08 +0000";
layers = (
{
components = (
{
name = d;
}
);
layerId = "4A17B37A-CBFD-40E5-9E02-2080A0E1F76C";
name = Regular;
paths = (
{
closed = 1;
nodes = (
"290 627 LINE",
"290 566 LINE",
"604 566 LINE",
"604 627 LINE"
);
}
);
width = 609;
},
{
components = (
{
name = d;
}
);
layerId = "99EB5860-B45A-4B60-BB0B-F826C8F71D42";
leftMetricsKey = "=o+5";
name = Bold;
paths = (
{
closed = 1;
nodes = (
"246 640 LINE",
"246 519 LINE",
"664 519 LINE",
"664 640 LINE"
);
}
);
width = 627;
},
{
associatedMasterId = "99EB5860-B45A-4B60-BB0B-F826C8F71D42";
background = {
components = (
{
name = d;
transform = "{1, 0, 0, 1, 334, 0}";
}
);
paths = (
{
closed = 1;
nodes = (
"634 627 LINE",
"634 566 LINE",
"948 566 LINE",
"948 627 LINE"
);
}
);
};
components = (
{
name = d;
}
);
layerId = "F761A027-701B-4886-BE79-5C40867E8DED";
leftMetricsKey = "=o+5";
name = "[201]";
paths = (
{
closed = 1;
nodes = (
"246 629 LINE",
"246 539 LINE",
"674 539 LINE",
"674 629 LINE"
);
}
);
width = 627;
},
{
components = (
{
alignment = -1;
name = d;
}
);
layerId = "1C7CD022-87C7-4E11-B656-E47B18819458";
name = Light;
paths = (
{
closed = 1;
nodes = (
"302 606 LINE",
"302 594 LINE",
"597 594 LINE",
"597 606 LINE"
);
}
);
width = 585;
}
);
leftKerningGroup = o;
rightKerningGroup = d;
unicode = 0111;
},
{
color = 4;
glyphname = e;
lastChange = "2016-03-15 16:25:14 +0000";
layers = (
{
anchors = (
{
name = bottom;
position = "{303, 0}";
},
{
name = ogonek;
position = "{378, 40}";
},
{
name = top;
position = "{294, 500}";
}
);
hints = (
{
horizontal = 1;
origin = "{0, 31}";
target = "{0, 6}";
type = Stem;
},
{
horizontal = 1;
origin = "{0, 25}";
target = "{0, 12}";
type = Stem;
}
);
layerId = "4A17B37A-CBFD-40E5-9E02-2080A0E1F76C";
name = Regular;
paths = (
{
closed = 1;
nodes = (
"401 -9 OFFCURVE",
"483 31 OFFCURVE",
"521 99 CURVE",
"455 135 LINE",
"437 87 OFFCURVE",
"366 60 OFFCURVE",
"303 60 CURVE SMOOTH",
"212 60 OFFCURVE",
"128 131 OFFCURVE",
"128 250 CURVE SMOOTH",
"128 349 OFFCURVE",
"196 440 OFFCURVE",
"297 440 CURVE SMOOTH",
"391 440 OFFCURVE",
"454 360 OFFCURVE",
"456 260 CURVE",
"492 288 LINE",
"102 288 LINE",
"102 220 LINE",
"527 220 LINE",
"529 234 OFFCURVE",
"531 253 OFFCURVE",
"531 276 CURVE SMOOTH",
"531 395 OFFCURVE",
"442 510 OFFCURVE",
"297 510 CURVE SMOOTH",
"146 510 OFFCURVE",
"50 392 OFFCURVE",
"50 250 CURVE SMOOTH",
"50 88 OFFCURVE",
"162 -9 OFFCURVE",
"303 -9 CURVE SMOOTH"
);
}
);
width = 571;
},
{
anchors = (
{
name = bottom;
position = "{292, 0}";
},
{
name = ogonek;
position = "{346, 36}";
},
{
name = top;
position = "{294, 500}";
}
);
hints = (
{
horizontal = 1;
origin = "{0, 31}";
target = "{0, 6}";
type = Stem;
},
{
horizontal = 1;
origin = "{0, 25}";
target = "{0, 12}";
type = Stem;
}
);
layerId = "99EB5860-B45A-4B60-BB0B-F826C8F71D42";
name = Bold;
paths = (
{
closed = 1;
nodes = (
"421 -15 OFFCURVE",
"524 37 OFFCURVE",
"546 136 CURVE",
"362 186 LINE",
"356 159 OFFCURVE",
"329 143 OFFCURVE",
"297 143 CURVE SMOOTH",
"253 143 OFFCURVE",
"218 168 OFFCURVE",
"218 246 CURVE SMOOTH",
"218 332 OFFCURVE",
"249 358 OFFCURVE",
"295 358 CURVE SMOOTH",
"339 358 OFFCURVE",
"366 320 OFFCURVE",
"366 248 CURVE",
"446 291 LINE",
"173 291 LINE",
"173 206 LINE",
"550 206 LINE",
"553 219 OFFCURVE",
"555 244 OFFCURVE",
"555 266 CURVE SMOOTH",
"555 412 OFFCURVE",
"460 511 OFFCURVE",
"295 511 CURVE SMOOTH",
"129 511 OFFCURVE",
"25 396 OFFCURVE",
"25 250 CURVE SMOOTH",
"25 84 OFFCURVE",
"126 -15 OFFCURVE",
"306 -15 CURVE SMOOTH"
);
}
);
width = 580;
},
{
anchors = (
{
name = bottom;
position = "{309, 0}";
},
{
name = ogonek;
position = "{403, 21}";
},
{
name = top;
position = "{304, 500}";
}
);
hints = (
{
horizontal = 1;
origin = "{0, 31}";
target = "{0, 6}";
type = Stem;
},
{
horizontal = 1;
origin = "{0, 25}";
target = "{0, 12}";
type = Stem;
}
);
layerId = "1C7CD022-87C7-4E11-B656-E47B18819458";
name = Light;
paths = (
{
closed = 1;
nodes = (
"400 -10 OFFCURVE",
"486 35 OFFCURVE",
"521 109 CURVE",
"508 116 LINE",
"475 46 OFFCURVE",
"393 4 OFFCURVE",
"309 4 CURVE SMOOTH",
"174 4 OFFCURVE",
"76 96 OFFCURVE",
"76 250 CURVE SMOOTH",
"76 404 OFFCURVE",
"173 496 OFFCURVE",
"304 496 CURVE SMOOTH",
"431 496 OFFCURVE",
"520 403 OFFCURVE",
"521 248 CURVE",
"528 254 LINE",
"68 254 LINE",
"68 239 LINE",
"535 239 LINE",
"535 241 OFFCURVE",
"535 244 OFFCURVE",
"535 246 CURVE SMOOTH",
"535 411 OFFCURVE",
"436 510 OFFCURVE",
"304 510 CURVE SMOOTH",
"164 510 OFFCURVE",
"60 413 OFFCURVE",
"60 250 CURVE SMOOTH",
"60 87 OFFCURVE",
"165 -10 OFFCURVE",
"309 -10 CURVE SMOOTH"
);
}
);
width = 585;
},
{
anchors = (
{
name = bottom;
position = "{299, 0}";
},
{
name = ogonek;
position = "{366, 38}";
},
{
name = top;
position = "{294, 500}";
}
);
associatedMasterId = "4A17B37A-CBFD-40E5-9E02-2080A0E1F76C";
background = {
paths = (
{
closed = 1;
nodes = (
"418 -10 OFFCURVE",
"495 33 OFFCURVE",
"527 113 CURVE",
"415 154 LINE",
"401 114 OFFCURVE",
"363 92 OFFCURVE",
"305 92 CURVE SMOOTH",
"224 92 OFFCURVE",
"176 142 OFFCURVE",
"176 248 CURVE SMOOTH",
"176 355 OFFCURVE",
"218 409 OFFCURVE",
"297 409 CURVE SMOOTH",
"372 409 OFFCURVE",
"407 351 OFFCURVE",
"409 255 CURVE",
"472 291 LINE",
"133 291 LINE",
"133 215 LINE",
"532 215 LINE",
"535 228 OFFCURVE",
"537 250 OFFCURVE",
"537 272 CURVE SMOOTH",
"537 408 OFFCURVE",
"453 510 OFFCURVE",
"297 510 CURVE SMOOTH",
"136 510 OFFCURVE",
"45 414 OFFCURVE",
"45 250 CURVE SMOOTH",
"45 86 OFFCURVE",
"139 -10 OFFCURVE",
"305 -10 CURVE SMOOTH"
);
}
);
};
hints = (
{
horizontal = 1;
origin = "{0, 31}";
target = "{0, 6}";
type = Stem;
},
{
horizontal = 1;
origin = "{0, 25}";
target = "{0, 12}";
type = Stem;
}
);
layerId = "72421C35-BB32-41DB-AC18-520E82ABE3E5";
name = "{137, 5}";
paths = (
{
closed = 1;
nodes = (
"418 -10 OFFCURVE",
"505 33 OFFCURVE",
"537 113 CURVE",
"425 154 LINE",
"411 114 OFFCURVE",
"363 92 OFFCURVE",
"305 92 CURVE SMOOTH",
"227 92 OFFCURVE",
"166 142 OFFCURVE",
"166 248 CURVE SMOOTH",
"166 355 OFFCURVE",
"218 409 OFFCURVE",
"296 409 CURVE SMOOTH",
"369 409 OFFCURVE",
"424 355 OFFCURVE",
"424 257 CURVE",
"460 294 LINE",
"124 294 LINE",
"124 198 LINE",
"544 198 LINE",
"546 211 OFFCURVE",
"548 238 OFFCURVE",
"548 252 CURVE SMOOTH",
"548 416 OFFCURVE",
"453 510 OFFCURVE",
"297 510 CURVE SMOOTH",
"126 510 OFFCURVE",
"35 394 OFFCURVE",
"35 250 CURVE SMOOTH",
"35 96 OFFCURVE",
"129 -10 OFFCURVE",
"305 -10 CURVE SMOOTH"
);
}
);
width = 581;
}
);
leftKerningGroup = o;
rightKerningGroup = e;
unicode = 0065;
},
{
color = 4;
glyphname = f;
lastChange = "2016-03-15 16:28:06 +0000";
layers = (
{
guideLines = (
{
angle = 90;
position = "{1022, 500}";
}
);
hints = (
{
horizontal = 1;
origin = "{0, 4}";
target = up;
type = BottomGhost;
},
{
horizontal = 1;
origin = "{1, 3}";
target = "{1, 1}";
type = Stem;
},
{
horizontal = 1;
origin = "{0, 10}";
target = "{0, 17}";
type = Stem;
},
{
place = "{102, 50}";
type = Stem;
}
);
layerId = "4A17B37A-CBFD-40E5-9E02-2080A0E1F76C";
name = Regular;
paths = (
{
closed = 1;
nodes = (
"184 735 OFFCURVE",
"130 673 OFFCURVE",
"130 584 CURVE SMOOTH",
"130 0 LINE",
"210 0 LINE",
"210 474 LINE",
"210 500 LINE",
"210 576 LINE SMOOTH",
"210 636 OFFCURVE",
"243 662 OFFCURVE",
"301 662 CURVE SMOOTH",
"324 662 OFFCURVE",
"358 653 OFFCURVE",
"374 647 CURVE",
"374 720 LINE",
"354 730 OFFCURVE",
"329 735 OFFCURVE",
"294 735 CURVE SMOOTH"
);
},
{
closed = 1;
nodes = (
"30 500 LINE",
"30 431 LINE",
"377 431 LINE",
"377 500 LINE"
);
}
);
width = 412;
},
{
guideLines = (
{
angle = 90;
position = "{432, 500}";
}
);
hints = (
{
horizontal = 1;
origin = "{0, 3}";
target = up;
type = BottomGhost;
},
{
horizontal = 1;
origin = "{1, 0}";
target = "{1, 1}";
type = Stem;
},
{
horizontal = 1;
origin = "{0, 10}";
target = "{0, 17}";
type = Stem;
},
{
origin = "{0, 3}";
target = "{0, 4}";
type = Stem;
}
);
layerId = "99EB5860-B45A-4B60-BB0B-F826C8F71D42";
name = Bold;
paths = (
{
closed = 1;
nodes = (
"190 720 OFFCURVE",
"77 672 OFFCURVE",
"77 520 CURVE SMOOTH",
"77 0 LINE",
"307 0 LINE",
"307 421 LINE",
"291 450 LINE",
"291 498 LINE SMOOTH",
"291 525 OFFCURVE",
"320 550 OFFCURVE",
"368 550 CURVE SMOOTH",
"396 550 OFFCURVE",
"418 540 OFFCURVE",
"432 534 CURVE",
"432 687 LINE",
"406 707 OFFCURVE",
"368 720 OFFCURVE",
"305 720 CURVE SMOOTH"
);
},
{
closed = 1;
nodes = (
"10 480 LINE",
"10 325 LINE",
"433 325 LINE",
"433 480 LINE"
);
}
);
width = 453;
},
{
hints = (
{
horizontal = 1;
origin = "{0, 3}";
target = up;
type = BottomGhost;
},
{
horizontal = 1;
origin = "{1, 0}";
target = "{1, 1}";
type = Stem;
},
{
horizontal = 1;
origin = "{0, 17}";
target = "{0, 10}";
type = Stem;
},
{
origin = "{0, 3}";
target = "{0, 4}";
type = Stem;
}
);
layerId = "1C7CD022-87C7-4E11-B656-E47B18819458";
name = Light;
paths = (
{
closed = 1;
nodes = (
"180 735 OFFCURVE",
"130 678 OFFCURVE",
"130 583 CURVE SMOOTH",
"130 0 LINE",
"146 0 LINE",
"146 491 LINE",
"146 500 LINE",
"146 583 LINE SMOOTH",
"146 669 OFFCURVE",
"190 721 OFFCURVE",
"263 721 CURVE SMOOTH",
"295 721 OFFCURVE",
"323 705 OFFCURVE",
"340 687 CURVE",
"340 706 LINE",
"325 721 OFFCURVE",
"302 735 OFFCURVE",
"263 735 CURVE SMOOTH"
);
},
{
closed = 1;
nodes = (
"30 500 LINE",
"30 486 LINE",
"332 486 LINE",
"332 500 LINE"
);
}
);
width = 360;
}
);
leftKerningGroup = f;
unicode = 0066;
},
{
color = 4;
glyphname = g;
lastChange = "2016-03-15 01:43:21 +0000";
layers = (
{
anchors = (
{
name = top;
position = "{265, 500}";
}
);
components = (
{
name = gbase;
transform = "{1, 0, 0, 1, 10, 0}";
}
);
hints = (
{
horizontal = 1;
place = "{838, -20}";
target = down;
type = TopGhost;
}
);
layerId = "4A17B37A-CBFD-40E5-9E02-2080A0E1F76C";
name = Regular;
paths = (
{
closed = 1;
nodes = (
"384 460 LINE",
"450 423 LINE",
"530 500 LINE",
"480 551 LINE"
);
}
);
width = 569;
},
{
anchors = (
{
name = top;
position = "{265, 500}";
}
);
components = (
{
alignment = -1;
name = gbase;
transform = "{1, 0, 0, 1, 3, 0}";
}
);
hints = (
{
horizontal = 1;
place = "{662, -20}";
target = down;
type = TopGhost;
}
);
layerId = "99EB5860-B45A-4B60-BB0B-F826C8F71D42";
name = Bold;
paths = (
{
closed = 1;
nodes = (
"341 487 LINE",
"486 419 LINE",
"569 496 LINE",
"457 589 LINE"
);
}
);
width = 611;
},
{
anchors = (
{
name = top;
position = "{259, 500}";
}
);
components = (
{
alignment = -1;
name = gbase;
transform = "{1, 0, 0, 1, -9, 0}";
}
);
hints = (
{
horizontal = 1;
place = "{592, -20}";
target = down;
type = TopGhost;
}
);
layerId = "1C7CD022-87C7-4E11-B656-E47B18819458";
name = Light;
paths = (
{
closed = 1;
nodes = (
"385 459 LINE",
"398 454 LINE",
"473 535 LINE",
"463 544 LINE"
);
}
);
width = 548;
}
);
leftKerningGroup = g;
rightKerningGroup = g;
unicode = 0067;
},
{
color = 4;
glyphname = gbreve;
lastChange = "2015-12-28 15:17:08 +0000";
layers = (
{
components = (
{
name = gbase;
transform = "{1, 0, 0, 1, -10, 0}";
},
{
name = breve;
transform = "{1, 0, 0, 1, 27, 0}";
}
);
hints = (
{
horizontal = 1;
origin = "{0, 7}";
target = down;
type = TopGhost;
}
);
layerId = "4A17B37A-CBFD-40E5-9E02-2080A0E1F76C";
name = Regular;
paths = (
{
closed = 1;
nodes = (
"425 592 OFFCURVE",
"362 542 OFFCURVE",
"364 460 CURVE",
"414 439 LINE",
"412 497 OFFCURVE",
"452 522 OFFCURVE",
"522 522 CURVE",
"504 592 LINE"
);
}
);
width = 512;
},
{
components = (
{
alignment = -1;
name = gbase;
transform = "{1, 0, 0, 1, -6, 0}";
},
{
name = breve;
transform = "{1, 0, 0, 1, 39, 0}";
}
);
hints = (
{
horizontal = 1;
origin = "{0, 7}";
target = down;
type = TopGhost;
}
);
layerId = "99EB5860-B45A-4B60-BB0B-F826C8F71D42";
name = Bold;
paths = (
{
closed = 1;
nodes = (
"483 662 OFFCURVE",
"417 559 OFFCURVE",
"437 454 CURVE",
"494 434 LINE",
"494 500 OFFCURVE",
"541 527 OFFCURVE",
"597 520 CURVE",
"578 662 LINE"
);
}
);
width = 578;
},
{
components = (
{
alignment = -1;
name = gbase;
transform = "{1, 0, 0, 1, -15, 0}";
},
{
alignment = -1;
name = breve;
transform = "{1, 0, 0, 1, 6, 0}";
}
);
hints = (
{
horizontal = 1;
origin = "{0, 7}";
target = down;
type = TopGhost;
}
);
layerId = "1C7CD022-87C7-4E11-B656-E47B18819458";
name = Light;
paths = (
{
closed = 1;
nodes = (
"421 592 OFFCURVE",
"379 544 OFFCURVE",
"379 470 CURVE",
"392 465 LINE",
"392 533 OFFCURVE",
"429 578 OFFCURVE",
"496 578 CURVE",
"491 592 LINE"
);
}
);
width = 496;
}
);
leftKerningGroup = g;
leftMetricsKey = g;
rightKerningGroup = g;
unicode = 011F;
},
{
color = 4;
glyphname = h;
lastChange = "2016-03-15 01:43:15 +0000";
layers = (
{
layerId = "4A17B37A-CBFD-40E5-9E02-2080A0E1F76C";
name = Regular;
paths = (
{
closed = 1;
nodes = (
"65 730 LINE",
"65 0 LINE",
"145 0 LINE",
"145 730 LINE"
);
},
{
closed = 1;
nodes = (
"202 510 OFFCURVE",
"114 449 OFFCURVE",
"114 288 CURVE",
"145 265 LINE",
"145 393 OFFCURVE",
"227 440 OFFCURVE",
"300 440 CURVE SMOOTH",
"369 440 OFFCURVE",
"423 403 OFFCURVE",
"423 292 CURVE SMOOTH",
"423 0 LINE",
"503 0 LINE",
"503 320 LINE SMOOTH",
"503 449 OFFCURVE",
"415 510 OFFCURVE",
"308 510 CURVE SMOOTH"
);
}
);
width = 568;
},
{
layerId = "99EB5860-B45A-4B60-BB0B-F826C8F71D42";
leftMetricsKey = "=n";
rightMetricsKey = "=n";
name = Bold;
paths = (
{
closed = 1;
nodes = (
"40 700 LINE",
"40 0 LINE",
"270 0 LINE",
"270 700 LINE"
);
},
{
closed = 1;
nodes = (
"310 510 OFFCURVE",
"146 449 OFFCURVE",
"146 262 CURVE",
"270 262 LINE",
"270 316 OFFCURVE",
"285 341 OFFCURVE",
"318 341 CURVE SMOOTH",
"342 341 OFFCURVE",
"353 327 OFFCURVE",
"353 282 CURVE SMOOTH",
"353 0 LINE",
"583 0 LINE",
"583 342 LINE SMOOTH",
"583 449 OFFCURVE",
"525 510 OFFCURVE",
"426 510 CURVE SMOOTH"
);
}
);
width = 623;
},
{
layerId = "1C7CD022-87C7-4E11-B656-E47B18819458";
name = Light;
paths = (
{
closed = 1;
nodes = (
"78 730 LINE",
"78 0 LINE",
"94 0 LINE",
"94 730 LINE"
);
},
{
closed = 1;
nodes = (
"177 511 OFFCURVE",
"87 424 OFFCURVE",
"87 318 CURVE",
"94 302 LINE",
"94 406 OFFCURVE",
"182 497 OFFCURVE",
"299 497 CURVE SMOOTH",
"405 497 OFFCURVE",
"472 435 OFFCURVE",
"472 328 CURVE SMOOTH",
"472 1 LINE",
"488 1 LINE",
"488 330 LINE SMOOTH",
"488 445 OFFCURVE",
"417 511 OFFCURVE",
"302 511 CURVE SMOOTH"
);
}
);
width = 567;
}
);
leftKerningGroup = h;
rightKerningGroup = n;
unicode = 0068;
},
{
color = 4;
glyphname = i;
lastChange = "2016-03-15 13:19:41 +0000";
layers = (
{
components = (
{
alignment = -1;
name = idotless;
transform = "{1, 0, 0, 1, 2, 0}";
}
);
layerId = "4A17B37A-CBFD-40E5-9E02-2080A0E1F76C";
name = Regular;
paths = (
{
closed = 1;
nodes = (
"158 592 OFFCURVE",
"185 619 OFFCURVE",
"185 652 CURVE SMOOTH",
"185 685 OFFCURVE",
"158 712 OFFCURVE",
"125 712 CURVE SMOOTH",
"92 712 OFFCURVE",
"65 685 OFFCURVE",
"65 652 CURVE SMOOTH",
"65 619 OFFCURVE",
"92 592 OFFCURVE",
"125 592 CURVE SMOOTH"
);
}
);
width = 250;
},
{
components = (
{
alignment = -1;
name = idotless;
transform = "{1, 0, 0, 1, 6, 0}";
}
);
layerId = "99EB5860-B45A-4B60-BB0B-F826C8F71D42";
name = Bold;
paths = (
{
closed = 1;
nodes = (
"224 540 OFFCURVE",
"279 595 OFFCURVE",
"279 660 CURVE SMOOTH",
"279 725 OFFCURVE",
"224 780 OFFCURVE",
"159 780 CURVE SMOOTH",
"92 780 OFFCURVE",
"39 725 OFFCURVE",
"39 660 CURVE SMOOTH",
"39 595 OFFCURVE",
"92 540 OFFCURVE",
"159 540 CURVE SMOOTH"
);
}
);
width = 318;
},
{
components = (
{
alignment = -1;
name = idotless;
transform = "{1, 0, 0, 1, 11, 0}";
}
);
hints = (
{
horizontal = 1;
origin = "{0, 11}";
target = "{0, 5}";
type = Stem;
}
);
layerId = "1C7CD022-87C7-4E11-B656-E47B18819458";
name = Light;
paths = (
{
closed = 1;
nodes = (
"119 592 OFFCURVE",
"133 604 OFFCURVE",
"133 619 CURVE SMOOTH",
"133 633 OFFCURVE",
"119 647 OFFCURVE",
"105 647 CURVE SMOOTH",
"90 647 OFFCURVE",
"78 633 OFFCURVE",
"78 619 CURVE SMOOTH",
"78 604 OFFCURVE",
"90 592 OFFCURVE",
"105 592 CURVE SMOOTH"
);
}
);
width = 210;
}
);
leftKerningGroup = i;
rightKerningGroup = i;
unicode = 0069;
},
{
color = 4;
glyphname = idotless;
lastChange = "2015-12-28 15:17:08 +0000";
layers = (
{
anchors = (
{
name = ogonek;
position = "{163, 0}";
},
{
name = top;
position = "{123, 500}";
}
);
layerId = "4A17B37A-CBFD-40E5-9E02-2080A0E1F76C";
name = Regular;
paths = (
{
closed = 1;
nodes = (
"83 500 LINE",
"83 0 LINE",
"163 0 LINE",
"163 500 LINE"
);
}
);
width = 246;
},
{
anchors = (
{
name = ogonek;
position = "{250, 10}";
},
{
name = top;
position = "{154, 500}";
}
);
layerId = "99EB5860-B45A-4B60-BB0B-F826C8F71D42";
name = Bold;
paths = (
{
closed = 1;
nodes = (
"39 500 LINE",
"39 0 LINE",
"269 0 LINE",
"269 500 LINE"
);
}
);
width = 308;
},
{
anchors = (
{
name = ogonek;
position = "{101, 0}";
},
{
name = top;
position = "{93, 500}";
}
);
hints = (
{
horizontal = 1;
origin = "{0, 1}";
target = up;
type = BottomGhost;
},
{
horizontal = 1;
origin = "{0, 0}";
target = down;
type = TopGhost;
},
{
origin = "{0, 1}";
target = "{0, 2}";
type = Stem;
}
);
layerId = "1C7CD022-87C7-4E11-B656-E47B18819458";
name = Light;
paths = (
{
closed = 1;
nodes = (
"85 500 LINE",
"85 0 LINE",
"101 0 LINE",
"101 500 LINE"
);
}
);
width = 186;
}
);
leftKerningGroup = i;
rightKerningGroup = i;
unicode = 0131;
},
{
color = 4;
glyphname = idieresis;
lastChange = "2015-12-28 15:17:08 +0000";
layers = (
{
components = (
{
name = idotless;
}
);
hints = (
{
horizontal = 1;
origin = "{0, 11}";
target = "{0, 5}";
type = Stem;
}
);
layerId = "4A17B37A-CBFD-40E5-9E02-2080A0E1F76C";
name = Regular;
paths = (
{
closed = 1;
nodes = (
"237 582 OFFCURVE",
"260 605 OFFCURVE",
"260 639 CURVE SMOOTH",
"260 673 OFFCURVE",
"237 696 OFFCURVE",
"203 696 CURVE SMOOTH",
"168 696 OFFCURVE",
"145 673 OFFCURVE",
"145 639 CURVE SMOOTH",
"145 605 OFFCURVE",
"168 582 OFFCURVE",
"203 582 CURVE SMOOTH"
);
},
{
closed = 1;
nodes = (
"78 582 OFFCURVE",
"101 605 OFFCURVE",
"101 639 CURVE SMOOTH",
"101 673 OFFCURVE",
"78 696 OFFCURVE",
"43 696 CURVE SMOOTH",
"9 696 OFFCURVE",
"-14 673 OFFCURVE",
"-14 639 CURVE SMOOTH",
"-14 605 OFFCURVE",
"9 582 OFFCURVE",
"43 582 CURVE SMOOTH"
);
}
);
width = 246;
},
{
components = (
{
name = idotless;
}
);
layerId = "99EB5860-B45A-4B60-BB0B-F826C8F71D42";
name = Bold;
paths = (
{
closed = 1;
nodes = (
"325 535 OFFCURVE",
"357 566 OFFCURVE",
"357 629 CURVE SMOOTH",
"357 692 OFFCURVE",
"325 723 OFFCURVE",
"261 723 CURVE SMOOTH",
"197 723 OFFCURVE",
"165 692 OFFCURVE",
"165 629 CURVE SMOOTH",
"165 566 OFFCURVE",
"197 535 OFFCURVE",
"261 535 CURVE SMOOTH"
);
},
{
closed = 1;
nodes = (
"111 535 OFFCURVE",
"143 566 OFFCURVE",
"143 629 CURVE SMOOTH",
"143 692 OFFCURVE",
"111 723 OFFCURVE",
"47 723 CURVE SMOOTH",
"-17 723 OFFCURVE",
"-49 692 OFFCURVE",
"-49 629 CURVE SMOOTH",
"-49 566 OFFCURVE",
"-17 535 OFFCURVE",
"47 535 CURVE SMOOTH"
);
}
);
width = 308;
},
{
components = (
{
alignment = -1;
name = idotless;
}
);
layerId = "1C7CD022-87C7-4E11-B656-E47B18819458";
name = Light;
paths = (
{
closed = 1;
nodes = (
"156 598 OFFCURVE",
"165 607 OFFCURVE",
"165 620 CURVE SMOOTH",
"165 633 OFFCURVE",
"156 642 OFFCURVE",
"143 642 CURVE SMOOTH",
"130 642 OFFCURVE",
"121 633 OFFCURVE",
"121 620 CURVE SMOOTH",
"121 607 OFFCURVE",
"130 598 OFFCURVE",
"143 598 CURVE SMOOTH"
);
},
{
closed = 1;
nodes = (
"56 598 OFFCURVE",
"65 607 OFFCURVE",
"65 620 CURVE SMOOTH",
"65 633 OFFCURVE",
"56 642 OFFCURVE",
"43 642 CURVE SMOOTH",
"30 642 OFFCURVE",
"21 633 OFFCURVE",
"21 620 CURVE SMOOTH",
"21 607 OFFCURVE",
"30 598 OFFCURVE",
"43 598 CURVE SMOOTH"
);
}
);
width = 186;
}
);
leftKerningGroup = i;
rightKerningGroup = i;
unicode = 00EF;
},
{
color = 4;
glyphname = iogonek;
lastChange = "2015-12-28 15:17:08 +0000";
layers = (
{
components = (
{
name = i;
}
);
layerId = "4A17B37A-CBFD-40E5-9E02-2080A0E1F76C";
name = Regular;
paths = (
{
closed = 1;
nodes = (
"117 20 LINE",
"38 -19 OFFCURVE",
"-2 -60 OFFCURVE",
"-2 -117 CURVE SMOOTH",
"-2 -177 OFFCURVE",
"43 -215 OFFCURVE",
"114 -215 CURVE SMOOTH",
"151 -215 OFFCURVE",
"177 -208 OFFCURVE",
"199 -194 CURVE",
"180 -144 LINE",
"164 -154 OFFCURVE",
"140 -159 OFFCURVE",
"121 -159 CURVE SMOOTH",
"84 -159 OFFCURVE",
"64 -138 OFFCURVE",
"64 -109 CURVE SMOOTH",
"64 -72 OFFCURVE",
"85 -44 OFFCURVE",
"163 0 CURVE"
);
}
);
width = 246;
},
{
components = (
{
name = i;
}
);
layerId = "99EB5860-B45A-4B60-BB0B-F826C8F71D42";
name = Bold;
paths = (
{
closed = 1;
nodes = (
"177 32 LINE",
"75 26 OFFCURVE",
"2 -17 OFFCURVE",
"2 -96 CURVE SMOOTH",
"2 -180 OFFCURVE",
"71 -215 OFFCURVE",
"154 -215 CURVE SMOOTH",
"204 -215 OFFCURVE",
"240 -209 OFFCURVE",
"272 -189 CURVE",
"245 -86 LINE",
"235 -92 OFFCURVE",
"220 -94 OFFCURVE",
"205 -94 CURVE SMOOTH",
"174 -94 OFFCURVE",
"156 -80 OFFCURVE",
"156 -56 CURVE SMOOTH",
"156 -25 OFFCURVE",
"199 0 OFFCURVE",
"269 0 CURVE"
);
}
);
width = 308;
},
{
components = (
{
alignment = -1;
name = i;
}
);
hints = (
{
horizontal = 1;
origin = "{0, 6}";
target = "{0, 13}";
type = Stem;
}
);
layerId = "1C7CD022-87C7-4E11-B656-E47B18819458";
name = Light;
paths = (
{
closed = 1;
nodes = (
"89 5 LINE",
"29 -45 OFFCURVE",
"2 -74 OFFCURVE",
"2 -120 CURVE SMOOTH",
"2 -172 OFFCURVE",
"43 -202 OFFCURVE",
"87 -202 CURVE SMOOTH",
"117 -202 OFFCURVE",
"133 -198 OFFCURVE",
"151 -180 CURVE",
"145 -167 LINE",
"128 -183 OFFCURVE",
"116 -188 OFFCURVE",
"87 -188 CURVE SMOOTH",
"51 -188 OFFCURVE",
"17 -163 OFFCURVE",
"17 -120 CURVE SMOOTH",
"17 -77 OFFCURVE",
"43 -50 OFFCURVE",
"101 0 CURVE"
);
}
);
width = 186;
}
);
leftKerningGroup = i;
rightKerningGroup = i;
unicode = 012F;
},
{
color = 4;
glyphname = j;
lastChange = "2016-03-15 12:39:42 +0000";
layers = (
{
layerId = "4A17B37A-CBFD-40E5-9E02-2080A0E1F76C";
name = Regular;
paths = (
{
closed = 1;
nodes = (
"83 500 LINE",
"83 -43 LINE SMOOTH",
"83 -113 OFFCURVE",
"53 -137 OFFCURVE",
"10 -137 CURVE SMOOTH",
"10 -137 OFFCURVE",
"11 -215 OFFCURVE",
"11 -215 CURVE SMOOTH",
"79 -215 OFFCURVE",
"163 -176 OFFCURVE",
"163 -51 CURVE SMOOTH",
"163 500 LINE"
);
},
{
closed = 1;
nodes = (
"157 590 OFFCURVE",
"186 618 OFFCURVE",
"186 652 CURVE SMOOTH",
"186 686 OFFCURVE",
"157 715 OFFCURVE",
"123 715 CURVE SMOOTH",
"89 715 OFFCURVE",
"61 686 OFFCURVE",
"61 652 CURVE SMOOTH",
"61 618 OFFCURVE",
"89 590 OFFCURVE",
"123 590 CURVE SMOOTH"
);
}
);
width = 246;
},
{
layerId = "99EB5860-B45A-4B60-BB0B-F826C8F71D42";
rightMetricsKey = "=|n-12";
name = Bold;
paths = (
{
closed = 1;
nodes = (
"54 500 LINE",
"54 37 LINE SMOOTH",
"54 0 OFFCURVE",
"32 -14 OFFCURVE",
"-10 -14 CURVE SMOOTH",
"-10 -14 OFFCURVE",
"-10 -215 OFFCURVE",
"-10 -215 CURVE SMOOTH",
"204 -215 OFFCURVE",
"284 -199 OFFCURVE",
"284 -13 CURVE SMOOTH",
"284 500 LINE"
);
},
{
closed = 1;
nodes = (
"233 540 OFFCURVE",
"288 595 OFFCURVE",
"288 660 CURVE SMOOTH",
"288 725 OFFCURVE",
"233 780 OFFCURVE",
"168 780 CURVE SMOOTH",
"101 780 OFFCURVE",
"48 725 OFFCURVE",
"48 660 CURVE SMOOTH",
"48 595 OFFCURVE",
"101 540 OFFCURVE",
"168 540 CURVE SMOOTH"
);
}
);
width = 316;
},
{
hints = (
{
horizontal = 1;
origin = "{0, 7}";
target = "{0, 4}";
type = Stem;
},
{
horizontal = 1;
origin = "{0, 0}";
target = down;
type = TopGhost;
},
{
horizontal = 1;
place = "{598, 44}";
type = Stem;
},
{
origin = "{0, 1}";
target = "{0, 10}";
type = Stem;
}
);
layerId = "1C7CD022-87C7-4E11-B656-E47B18819458";
name = Light;
paths = (
{
closed = 1;
nodes = (
"85 500 LINE",
"85 -64 LINE SMOOTH",
"85 -147 OFFCURVE",
"39 -201 OFFCURVE",
"-31 -201 CURVE SMOOTH",
"-31 -201 OFFCURVE",
"-31 -215 OFFCURVE",
"-31 -215 CURVE SMOOTH",
"49 -215 OFFCURVE",
"101 -156 OFFCURVE",
"101 -64 CURVE SMOOTH",
"101 500 LINE"
);
},
{
closed = 1;
nodes = (
"108 592 OFFCURVE",
"121 604 OFFCURVE",
"121 619 CURVE",
"121 633 OFFCURVE",
"108 647 OFFCURVE",
"94 647 CURVE",
"79 647 OFFCURVE",
"67 633 OFFCURVE",
"67 619 CURVE",
"67 604 OFFCURVE",
"79 592 OFFCURVE",
"94 592 CURVE"
);
}
);
width = 186;
}
);
leftKerningGroup = i;
rightKerningGroup = i;
unicode = 006A;
},
{
color = 4;
glyphname = k;
lastChange = "2016-03-15 01:44:34 +0000";
layers = (
{
anchors = (
{
name = bottom;
position = "{280, 0}";
}
);
layerId = "4A17B37A-CBFD-40E5-9E02-2080A0E1F76C";
name = Regular;
paths = (
{
closed = 1;
nodes = (
"397 500 LINE",
"98 201 LINE",
"98 101 LINE",
"262 265 LINE",
"281 284 LINE",
"497 500 LINE"
);
},
{
closed = 1;
nodes = (
"58 730 LINE",
"58 0 LINE",
"138 0 LINE",
"138 730 LINE"
);
},
{
closed = 1;
nodes = (
"221 280 LINE",
"412 0 LINE",
"509 0 LINE",
"288 325 LINE"
);
}
);
width = 522;
},
{
anchors = (
{
name = bottom;
position = "{338, 0}";
}
);
layerId = "99EB5860-B45A-4B60-BB0B-F826C8F71D42";
leftMetricsKey = "=n";
name = Bold;
paths = (
{
closed = 1;
nodes = (
"416 500 LINE",
"235 281 LINE",
"238 58 LINE",
"367 215 LINE",
"407 218 LINE",
"663 500 LINE"
);
},
{
closed = 1;
nodes = (
"40 700 LINE",
"40 0 LINE",
"270 0 LINE",
"270 700 LINE"
);
},
{
closed = 1;
nodes = (
"306 230 LINE",
"424 0 LINE",
"674 0 LINE",
"446 366 LINE"
);
}
);
width = 669;
},
{
anchors = (
{
name = bottom;
position = "{310, 0}";
}
);
layerId = "1C7CD022-87C7-4E11-B656-E47B18819458";
name = Light;
paths = (
{
closed = 1;
nodes = (
"441 500 LINE",
"93 177 LINE",
"93 155 LINE",
"237 289 LINE",
"241 292 LINE",
"465 500 LINE"
);
},
{
closed = 1;
nodes = (
"85 730 LINE",
"85 0 LINE",
"101 0 LINE",
"101 730 LINE"
);
},
{
closed = 1;
nodes = (
"228 291 LINE",
"450 0 LINE",
"470 0 LINE",
"240 302 LINE"
);
}
);
width = 482;
}
);
leftKerningGroup = h;
rightKerningGroup = k;
unicode = 006B;
},
{
color = 4;
glyphname = l;
lastChange = "2016-03-15 16:24:55 +0000";
layers = (
{
anchors = (
{
name = bottom;
position = "{199, 0}";
},
{
name = center;
position = "{254, 355}";
},
{
name = top;
position = "{114, 730}";
},
{
name = topright;
position = "{231, 730}";
}
);
layerId = "4A17B37A-CBFD-40E5-9E02-2080A0E1F76C";
name = Regular;
paths = (
{
closed = 1;
nodes = (
"75 0 LINE",
"154 0 LINE",
"154 730 LINE",
"75 730 LINE"
);
}
);
width = 229;
},
{
anchors = (
{
name = bottom;
position = "{174, 0}";
},
{
name = center;
position = "{311, 352}";
},
{
name = top;
position = "{144, 700}";
},
{
name = topright;
position = "{317, 700}";
}
);
layerId = "99EB5860-B45A-4B60-BB0B-F826C8F71D42";
name = Bold;
paths = (
{
closed = 1;
nodes = (
"39 0 LINE",
"269 0 LINE",
"269 700 LINE",
"39 700 LINE"
);
}
);
width = 308;
},
{
anchors = (
{
name = bottom;
position = "{188, 0}";
},
{
name = center;
position = "{225, 360}";
},
{
name = top;
position = "{98, 730}";
},
{
name = topright;
position = "{220, 730}";
}
);
layerId = "1C7CD022-87C7-4E11-B656-E47B18819458";
name = Light;
paths = (
{
closed = 1;
nodes = (
"90 0 LINE",
"106 0 LINE",
"106 730 LINE",
"90 730 LINE"
);
}
);
width = 196;
}
);
leftKerningGroup = l;
rightKerningGroup = l;
unicode = 006C;
},
{
color = 4;
glyphname = lacute;
lastChange = "2015-12-30 14:26:51 +0000";
layers = (
{
components = (
{
name = l;
}
);
layerId = "4A17B37A-CBFD-40E5-9E02-2080A0E1F76C";
name = Regular;
paths = (
{
closed = 1;
nodes = (
"83 800 LINE",
"153 800 LINE",
"193 930 LINE",
"120 930 LINE"
);
}
);
width = 295;
},
{
components = (
{
name = l;
}
);
layerId = "99EB5860-B45A-4B60-BB0B-F826C8F71D42";
name = Bold;
paths = (
{
closed = 1;
nodes = (
"65 746 LINE",
"254 746 LINE",
"318 913 LINE",
"123 913 LINE"
);
}
);
width = 341;
},
{
components = (
{
alignment = -1;
name = l;
}
);
layerId = "1C7CD022-87C7-4E11-B656-E47B18819458";
name = Light;
paths = (
{
closed = 1;
nodes = (
"84 793 LINE",
"98 793 LINE",
"143 930 LINE",
"125 930 LINE"
);
}
);
width = 237;
}
);
leftKerningGroup = l;
rightKerningGroup = l;
unicode = 013A;
},
{
color = 4;
glyphname = lslash;
lastChange = "2015-12-28 15:17:08 +0000";
layers = (
{
components = (
{
name = l;
transform = "{1, 0, 0, 1, 46, 0}";
}
);
layerId = "4A17B37A-CBFD-40E5-9E02-2080A0E1F76C";
name = Regular;
paths = (
{
closed = 1;
nodes = (
"165 398 LINE",
"29 312 LINE",
"29 229 LINE",
"177 323 LINE",
"325 417 LINE",
"325 500 LINE"
);
}
);
width = 352;
},
{
components = (
{
alignment = -1;
name = l;
transform = "{1, 0, 0, 1, 39, 0}";
}
);
layerId = "99EB5860-B45A-4B60-BB0B-F826C8F71D42";
name = Bold;
paths = (
{
closed = 1;
nodes = (
"185 375 LINE",
"-2 297 LINE",
"-2 145 LINE",
"236 300 LINE",
"402 365 LINE",
"402 518 LINE"
);
}
);
width = 409;
},
{
components = (
{
alignment = -1;
name = l;
transform = "{1, 0, 0, 1, 30, 0}";
}
);
layerId = "1C7CD022-87C7-4E11-B656-E47B18819458";
name = Light;
paths = (
{
closed = 1;
nodes = (
"118 359 LINE",
"14 284 LINE",
"14 267 LINE",
"120 343 LINE",
"252 438 LINE",
"252 455 LINE"
);
}
);
width = 278;
}
);
unicode = 0142;
},
{
color = 4;
glyphname = m;
lastChange = "2016-03-15 16:37:46 +0000";
layers = (
{
anchors = (
{
name = bottom;
position = "{479, 0}";
},
{
name = bottomC;
position = "{825, 0}";
},
{
name = ogonek;
position = "{865, 0}";
},
{
name = top;
position = "{479, 500}";
}
);
guideLines = (
{
position = "{573, 423}";
}
);
layerId = "4A17B37A-CBFD-40E5-9E02-2080A0E1F76C";
name = Regular;
paths = (
{
closed = 1;
nodes = (
"594 510 OFFCURVE",
"486 461 OFFCURVE",
"486 346 CURVE",
"519 274 LINE",
"519 381 OFFCURVE",
"589 440 OFFCURVE",
"667 440 CURVE SMOOTH",
"733 440 OFFCURVE",
"785 403 OFFCURVE",
"785 312 CURVE SMOOTH",
"785 0 LINE",
"865 0 LINE",
"865 320 LINE SMOOTH",
"865 452 OFFCURVE",
"770 510 OFFCURVE",
"674 510 CURVE SMOOTH"
);
},
{
closed = 1;
nodes = (
"93 500 LINE",
"93 383 LINE",
"93 0 LINE",
"173 0 LINE",
"173 379 LINE",
"170 383 LINE",
"163 500 LINE"
);
},
{
closed = 1;
nodes = (
"233 510 OFFCURVE",
"136 445 OFFCURVE",
"136 293 CURVE",
"173 267 LINE",
"173 391 OFFCURVE",
"255 440 OFFCURVE",
"321 440 CURVE SMOOTH",
"387 440 OFFCURVE",
"439 403 OFFCURVE",
"439 312 CURVE SMOOTH",
"439 0 LINE",
"519 0 LINE",
"519 320 LINE SMOOTH",
"519 452 OFFCURVE",
"424 510 OFFCURVE",
"328 510 CURVE SMOOTH"
);
}
);
width = 935;
},
{
anchors = (
{
name = bottom;
position = "{468, 0}";
},
{
name = bottomC;
position = "{777, 0}";
},
{
name = ogonek;
position = "{892, 0}";
},
{
name = top;
position = "{468, 500}";
}
);
guideLines = (
{
position = "{187, 423}";
}
);
hints = (
{
horizontal = 1;
origin = "{1, 2}";
target = up;
type = BottomGhost;
},
{
horizontal = 1;
origin = "{2, 15}";
target = down;
type = TopGhost;
},
{
horizontal = 1;
origin = "{1, 0}";
target = "{2, 6}";
type = Stem;
},
{
origin = "{1, 2}";
target = "{1, 3}";
type = Stem;
},
{
origin = "{2, 10}";
target = "{2, 11}";
type = Stem;
},
{
place = "{666, 228}";
type = Stem;
}
);
layerId = "99EB5860-B45A-4B60-BB0B-F826C8F71D42";
leftMetricsKey = "=n";
rightMetricsKey = "=n";
name = Bold;
paths = (
{
closed = 1;
nodes = (
"613 510 OFFCURVE",
"545 418 OFFCURVE",
"545 262 CURVE",
"583 262 LINE",
"583 316 OFFCURVE",
"598 340 OFFCURVE",
"631 340 CURVE SMOOTH",
"655 340 OFFCURVE",
"666 327 OFFCURVE",
"666 282 CURVE SMOOTH",
"666 0 LINE",
"892 0 LINE",
"896 342 LINE SMOOTH",
"897 449 OFFCURVE",
"838 510 OFFCURVE",
"739 510 CURVE SMOOTH"
);
},
{
closed = 1;
nodes = (
"40 500 LINE",
"40 281 LINE",
"40 0 LINE",
"270 0 LINE",
"270 281 LINE",
"255 338 LINE",
"247 500 LINE"
);
},
{
closed = 1;
nodes = (
"300 510 OFFCURVE",
"232 418 OFFCURVE",
"232 262 CURVE",
"270 262 LINE",
"270 316 OFFCURVE",
"285 340 OFFCURVE",
"318 340 CURVE SMOOTH",
"342 340 OFFCURVE",
"353 327 OFFCURVE",
"353 282 CURVE SMOOTH",
"353 0 LINE",
"583 0 LINE",
"583 342 LINE SMOOTH",
"583 449 OFFCURVE",
"525 510 OFFCURVE",
"426 510 CURVE SMOOTH"
);
}
);
width = 939;
},
{
anchors = (
{
name = bottom;
position = "{487, 0}";
},
{
name = bottomC;
position = "{889, 0}";
},
{
name = ogonek;
position = "{889, 2}";
},
{
name = top;
position = "{487, 500}";
}
);
layerId = "1C7CD022-87C7-4E11-B656-E47B18819458";
name = Light;
paths = (
{
closed = 1;
nodes = (
"578 512 OFFCURVE",
"488 425 OFFCURVE",
"488 319 CURVE",
"495 303 LINE",
"495 407 OFFCURVE",
"583 498 OFFCURVE",
"700 498 CURVE SMOOTH",
"806 498 OFFCURVE",
"873 436 OFFCURVE",
"873 329 CURVE SMOOTH",
"873 2 LINE",
"889 2 LINE",
"889 331 LINE SMOOTH",
"889 446 OFFCURVE",
"818 512 OFFCURVE",
"703 512 CURVE SMOOTH"
);
},
{
closed = 1;
nodes = (
"85 500 LINE",
"85 301 LINE",
"85 0 LINE",
"101 0 LINE",
"101 334 LINE",
"101 341 LINE",
"101 500 LINE"
);
},
{
closed = 1;
nodes = (
"184 510 OFFCURVE",
"94 423 OFFCURVE",
"94 317 CURVE",
"101 301 LINE",
"101 405 OFFCURVE",
"189 496 OFFCURVE",
"306 496 CURVE SMOOTH",
"412 496 OFFCURVE",
"479 434 OFFCURVE",
"479 327 CURVE SMOOTH",
"479 0 LINE",
"495 0 LINE",
"495 329 LINE SMOOTH",
"495 444 OFFCURVE",
"424 510 OFFCURVE",
"309 510 CURVE SMOOTH"
);
}
);
width = 969;
}
);
leftKerningGroup = n;
rightKerningGroup = n;
unicode = 006D;
},
{
color = 4;
glyphname = n;
lastChange = "2016-03-15 16:37:14 +0000";
layers = (
{
anchors = (
{
name = bottom;
position = "{314, 0}";
},
{
name = bottomC;
position = "{463, 0}";
},
{
name = ogonek;
position = "{503, 0}";
},
{
name = top;
position = "{290, 500}";
}
);
layerId = "4A17B37A-CBFD-40E5-9E02-2080A0E1F76C";
name = Regular;
paths = (
{
closed = 1;
nodes = (
"203 510 OFFCURVE",
"110 451 OFFCURVE",
"110 291 CURVE",
"145 266 LINE",
"145 394 OFFCURVE",
"227 440 OFFCURVE",
"300 440 CURVE SMOOTH",
"369 440 OFFCURVE",
"423 403 OFFCURVE",
"423 292 CURVE SMOOTH",
"423 0 LINE",
"503 0 LINE",
"503 320 LINE SMOOTH",
"503 449 OFFCURVE",
"415 510 OFFCURVE",
"308 510 CURVE SMOOTH"
);
},
{
closed = 1;
nodes = (
"65 500 LINE",
"65 383 LINE",
"65 0 LINE",
"145 0 LINE",
"145 377 LINE",
"142 383 LINE",
"135 500 LINE"
);
}
);
width = 568;
},
{
anchors = (
{
name = bottom;
position = "{304, 0}";
},
{
name = bottomC;
position = "{468, 0}";
},
{
name = ogonek;
position = "{583, 0}";
},
{
name = top;
position = "{310, 500}";
}
);
layerId = "99EB5860-B45A-4B60-BB0B-F826C8F71D42";
name = Bold;
paths = (
{
closed = 1;
nodes = (
"300 510 OFFCURVE",
"232 418 OFFCURVE",
"232 262 CURVE",
"270 262 LINE",
"270 316 OFFCURVE",
"285 340 OFFCURVE",
"318 340 CURVE SMOOTH",
"342 340 OFFCURVE",
"353 327 OFFCURVE",
"353 282 CURVE SMOOTH",
"353 0 LINE",
"583 0 LINE",
"583 342 LINE SMOOTH",
"583 449 OFFCURVE",
"525 510 OFFCURVE",
"426 510 CURVE SMOOTH"
);
},
{
closed = 1;
nodes = (
"40 500 LINE",
"40 281 LINE",
"40 0 LINE",
"270 0 LINE",
"270 281 LINE",
"255 338 LINE",
"247 500 LINE"
);
}
);
width = 626;
},
{
anchors = (
{
name = bottom;
position = "{323, 0}";
},
{
name = bottomC;
position = "{495, 0}";
},
{
name = ogonek;
position = "{495, 0}";
},
{
name = top;
position = "{293, 500}";
}
);
layerId = "1C7CD022-87C7-4E11-B656-E47B18819458";
name = Light;
paths = (
{
closed = 1;
nodes = (
"184 510 OFFCURVE",
"94 423 OFFCURVE",
"94 317 CURVE",
"101 301 LINE",
"101 405 OFFCURVE",
"189 496 OFFCURVE",
"306 496 CURVE SMOOTH",
"412 496 OFFCURVE",
"479 434 OFFCURVE",
"479 327 CURVE SMOOTH",
"479 0 LINE",
"495 0 LINE",
"495 329 LINE SMOOTH",
"495 444 OFFCURVE",
"424 510 OFFCURVE",
"309 510 CURVE SMOOTH"
);
},
{
closed = 1;
nodes = (
"85 500 LINE",
"85 301 LINE",
"85 0 LINE",
"101 0 LINE",
"101 292 LINE",
"101 301 LINE",
"101 500 LINE"
);
}
);
width = 580;
}
);
leftKerningGroup = n;
rightKerningGroup = n;
unicode = 006E;
},
